{"glyphs":{"0":{"ha":739,"x_min":33,"x_max":706,"o":"m 369 674 q 499 647 438 674 q 606 575 560 621 q 678 468 651 529 q 706 336 706 407 q 679 206 706 267 q 608 100 653 146 q 501 28 563 54 q 369 1 440 1 q 239 26 300 1 q 132 97 178 51 q 60 203 86 142 q 33 336 33 264 q 59 466 33 406 q 130 572 85 526 q 237 644 175 617 q 369 674 299 671 m 369 492 q 310 480 338 492 q 260 447 282 468 q 226 398 239 426 q 214 336 214 369 q 226 276 214 304 q 260 226 239 247 q 310 192 282 204 q 369 179 338 179 q 430 192 401 179 q 479 226 458 204 q 513 276 500 247 q 525 336 525 304 q 479 444 522 400 q 369 492 436 489 z "},"1":{"ha":393,"x_min":10,"x_max":344,"o":"m 344 92 q 318 27 344 54 q 254 0 292 0 l 238 0 q 172 27 199 0 q 146 92 146 54 l 146 424 q 83 418 117 408 q 29 461 47 428 q 19 530 10 493 q 63 586 28 567 q 246 681 208 681 q 315 651 286 681 q 344 582 344 622 l 344 92 z "},"2":{"ha":671,"x_min":38,"x_max":633,"o":"m 394 401 q 419 442 418 418 q 397 488 418 472 q 333 501 375 503 q 267 481 296 501 q 219 429 238 460 q 185 390 204 406 q 135 374 165 374 q 68 401 96 374 q 40 468 40 429 q 70 551 40 506 q 158 630 100 596 q 254 672 215 664 q 322 679 293 679 q 445 664 396 679 q 534 616 494 649 q 598 539 574 583 q 622 436 622 494 q 546 294 622 350 l 399 188 l 540 188 q 606 161 578 188 q 633 94 633 135 q 606 28 633 56 q 540 0 578 0 l 133 0 q 85 15 107 1 q 51 50 64 29 q 39 107 38 71 q 86 174 40 143 l 394 401 z "},"3":{"ha":681,"x_min":35,"x_max":644,"o":"m 586 653 q 614 583 614 622 q 588 517 614 544 l 453 382 q 550 318 507 358 q 619 220 593 276 q 644 99 644 164 q 620 -23 644 33 q 553 -122 596 -79 q 454 -188 511 -164 q 333 -212 397 -212 q 239 -200 282 -212 q 157 -165 196 -187 q 87 -112 118 -143 q 43 -42 56 -81 q 38 4 35 -19 q 51 47 40 28 q 83 79 63 67 q 129 92 103 92 q 193 64 165 92 q 220 36 210 51 q 243 7 231 21 q 273 -16 256 -7 q 333 -25 290 -25 q 422 10 386 -25 q 457 99 457 46 q 422 185 457 150 q 333 221 386 221 l 283 221 q 267 219 275 219 q 254 221 260 219 l 256 221 l 254 221 q 201 249 224 225 q 172 315 172 276 q 200 381 172 353 l 311 493 l 164 493 q 97 521 124 493 q 71 588 71 549 q 97 655 71 628 q 164 682 124 682 l 504 682 q 528 679 517 682 q 586 653 560 676 z "},"4":{"ha":636,"x_min":17,"x_max":622,"o":"m 622 94 q 597 30 622 57 q 535 0 571 3 l 535 -137 q 507 -190 535 -162 q 439 -217 479 -217 q 374 -190 401 -217 q 347 -137 347 -162 l 347 0 l 110 0 q 44 27 71 0 q 17 94 17 54 l 17 96 l 171 621 q 221 674 189 657 q 289 678 253 692 q 345 626 326 664 q 344 554 364 589 l 222 188 l 347 188 q 376 251 349 225 q 439 278 403 278 q 506 251 479 278 q 535 188 533 225 q 597 158 571 185 q 622 94 622 131 z "},"5":{"ha":672,"x_min":40,"x_max":640,"o":"m 329 414 q 447 389 390 413 q 546 324 503 365 q 615 226 589 282 q 640 104 640 169 q 616 -23 640 33 q 549 -122 592 -79 q 450 -188 507 -164 q 329 -212 393 -212 q 245 -200 285 -212 q 167 -165 206 -187 q 97 -112 128 -143 q 53 -42 65 -81 q 47 4 44 -19 q 61 47 50 28 q 92 79 72 67 q 139 92 113 92 q 203 64 175 92 q 230 36 219 51 q 253 7 240 21 q 283 -16 265 -7 q 329 -25 300 -25 q 417 10 382 -25 q 453 104 453 46 q 417 191 453 156 q 329 226 382 226 l 135 226 q 69 253 99 226 q 40 319 40 281 l 40 586 q 68 653 40 626 q 135 681 96 681 l 479 681 q 547 653 519 681 q 574 586 574 626 q 547 520 574 547 q 479 493 519 493 l 224 493 l 224 414 l 329 414 z "},"6":{"ha":732,"x_min":26,"x_max":710,"o":"m 200 46 q 101 134 140 79 q 44 251 61 189 q 34 381 26 314 q 75 506 42 447 l 279 861 q 335 899 299 892 q 400 889 371 906 q 443 833 433 869 q 435 767 453 797 l 383 676 q 535 628 461 671 q 638 539 597 593 q 694 423 678 485 q 701 295 710 361 q 658 169 693 229 q 570 69 624 108 q 454 13 517 29 q 326 3 392 -4 q 200 46 260 11 m 233 415 q 213 358 217 388 q 217 299 210 328 q 243 245 225 271 q 290 203 261 219 q 348 184 318 188 q 406 188 378 181 q 460 214 435 196 q 501 260 485 232 q 521 318 517 288 q 517 378 525 349 q 492 432 510 407 q 446 474 475 457 q 389 492 419 489 q 329 489 358 496 q 275 463 300 482 q 233 415 250 444 z "},"7":{"ha":694,"x_min":35,"x_max":682,"o":"m 286 -165 q 220 -206 260 -200 q 149 -192 181 -212 q 109 -134 117 -171 q 122 -65 101 -97 l 425 493 l 128 493 q 63 519 90 493 q 35 586 35 546 q 63 653 35 625 q 128 681 90 681 l 589 681 q 637 665 615 679 q 670 630 658 651 q 682 586 682 608 q 667 529 682 564 l 286 -165 z "},"8":{"ha":692,"x_min":32,"x_max":661,"o":"m 347 439 q 298 429 319 439 q 259 403 276 419 q 231 363 242 386 q 221 314 221 340 q 231 264 221 286 q 259 224 242 242 q 298 197 276 207 q 347 186 319 186 q 396 197 374 186 q 435 224 418 207 q 462 264 451 242 q 472 314 472 286 q 435 401 469 365 q 347 439 400 436 m 349 732 q 301 714 321 732 q 281 669 282 696 q 299 618 281 636 q 349 600 318 600 q 394 619 375 600 q 413 665 413 639 q 394 713 413 693 q 349 732 375 732 m 346 893 q 502 825 438 893 q 567 665 567 757 q 542 560 567 608 q 568 536 556 549 q 636 437 611 494 q 661 314 661 379 q 636 192 661 249 q 569 92 611 135 q 470 25 528 50 q 347 0 413 0 q 224 24 282 0 q 124 90 167 47 q 57 189 82 132 q 32 314 32 246 q 56 435 32 378 q 122 533 81 492 q 142 551 132 543 q 115 676 115 603 q 188 830 119 767 q 346 893 256 893 z "},"9":{"ha":731,"x_min":22,"x_max":706,"o":"m 532 636 q 631 548 592 603 q 688 431 671 493 q 698 301 706 368 q 657 176 690 235 l 453 -179 q 397 -217 433 -210 q 332 -207 361 -224 q 289 -151 299 -187 q 297 -85 279 -115 l 349 6 q 197 54 271 11 q 94 143 135 89 q 38 259 54 197 q 31 387 22 321 q 74 513 39 453 q 162 613 108 574 q 278 669 215 653 q 406 678 340 686 q 532 636 472 671 m 499 267 q 519 324 515 294 q 515 383 522 354 q 489 437 507 411 q 442 479 471 463 q 384 498 414 494 q 326 494 354 501 q 272 468 297 486 q 231 422 247 450 q 211 364 215 394 q 215 304 207 333 q 240 250 222 275 q 286 208 257 225 q 343 190 313 193 q 403 193 374 186 q 457 219 432 200 q 499 267 482 238 z "},"f":{"ha":524,"x_min":19,"x_max":506,"o":"m 407 888 q 475 865 447 888 q 506 799 503 843 q 480 738 506 763 q 415 710 454 713 q 369 689 386 708 q 353 643 353 669 l 353 507 q 441 478 417 504 q 465 415 465 453 q 442 353 465 378 q 353 325 418 328 l 353 46 q 340 -32 353 6 q 303 -99 326 -69 q 247 -153 279 -129 q 172 -189 214 -176 q 121 -197 147 -197 q 73 -185 94 -196 q 36 -156 51 -175 q 19 -106 21 -136 q 45 -44 19 -69 q 107 -17 71 -18 q 153 3 135 -17 q 172 49 172 24 l 172 325 q 85 350 107 325 q 60 415 63 375 q 83 477 60 451 q 172 507 107 503 l 172 644 q 190 735 172 692 q 240 813 208 779 q 315 867 272 847 q 407 888 358 888 z "},"h":{"ha":743,"x_min":49,"x_max":722,"o":"m 139 882 q 201 857 175 882 q 229 792 226 832 l 229 632 q 304 661 261 653 q 386 669 347 669 q 515 644 454 669 q 622 575 576 619 q 695 471 668 531 q 722 343 722 411 l 722 89 q 697 25 722 51 q 632 -3 671 -1 q 571 22 596 -3 q 540 83 546 46 l 540 333 q 528 392 540 364 q 496 442 517 421 q 447 476 475 464 q 386 489 419 489 q 280 446 324 489 q 229 340 236 403 l 229 89 q 203 25 229 51 q 139 -3 178 -1 q 80 22 104 -3 q 49 83 56 46 l 49 797 q 76 857 51 832 q 139 882 100 882 z "},"g":{"ha":739,"x_min":31,"x_max":703,"o":"m 411 -253 l 367 -253 q 306 -282 332 -256 q 240 -308 278 -308 q 174 -281 201 -308 q 145 -220 147 -256 q 167 -158 143 -185 q 289 -82 208 -106 q 367 -69 325 -71 l 469 -69 q 503 -51 490 -67 q 524 33 533 -6 l 524 35 q 460 10 496 19 q 367 0 425 0 q 231 25 293 0 q 125 94 169 50 q 56 201 81 139 q 31 336 31 263 q 58 465 31 404 q 133 572 86 526 q 240 645 179 618 q 367 672 300 672 q 497 646 436 672 q 604 574 558 619 q 676 467 650 528 q 701 336 701 406 q 661 169 701 242 q 701 -7 701 115 q 684 -95 703 -47 q 634 -176 665 -143 q 560 -230 603 -210 q 467 -253 517 -250 l 419 -253 l 411 -253 m 367 492 q 308 478 336 492 q 259 444 281 465 q 224 394 238 422 q 211 336 211 367 q 223 277 211 306 q 256 227 235 249 q 305 192 276 206 q 367 179 333 179 q 429 192 400 179 q 479 226 458 204 q 512 276 500 249 q 524 336 524 304 q 510 397 524 368 q 476 446 497 425 q 426 479 454 467 q 367 492 397 492 z "},"i":{"ha":272,"x_min":46,"x_max":225,"o":"m 138 881 q 199 853 174 881 q 225 790 225 826 q 199 727 225 754 q 138 700 174 700 q 72 726 97 701 q 46 794 46 750 q 74 856 47 831 q 138 881 101 881 m 138 668 q 198 642 174 668 q 225 578 222 615 l 225 86 q 201 24 225 49 q 138 -4 178 -1 q 76 18 101 -4 q 46 81 51 40 l 46 583 q 75 643 49 619 q 138 668 101 667 z "},"j":{"ha":389,"x_min":13,"x_max":346,"o":"m 257 668 q 317 642 293 668 q 344 578 342 615 l 344 46 q 333 -32 346 6 q 296 -99 319 -69 q 240 -153 272 -129 q 165 -189 207 -176 q 114 -197 140 -197 q 66 -185 88 -196 q 29 -156 44 -175 q 13 -106 14 -136 q 38 -44 13 -69 q 100 -17 64 -18 q 147 3 128 -17 q 165 49 165 24 l 165 583 q 194 643 168 619 q 257 668 221 667 m 257 881 q 319 853 293 881 q 344 790 344 826 q 319 727 344 754 q 257 700 293 700 q 191 726 217 701 q 165 794 165 750 q 194 856 167 831 q 257 881 221 881 z "},"k":{"ha":622,"x_min":49,"x_max":606,"o":"m 578 158 q 606 92 606 131 q 578 26 606 54 q 513 -1 550 1 q 446 26 475 -3 l 236 235 l 236 93 q 208 28 236 57 q 143 0 181 0 q 78 27 107 0 q 49 93 49 54 l 49 794 q 76 859 49 831 q 143 888 104 888 q 209 860 182 888 q 236 794 236 833 l 236 446 l 446 656 q 511 683 474 683 q 578 656 549 682 q 606 590 606 628 q 578 524 606 551 l 394 340 l 578 158 z "},"l":{"ha":396,"x_min":43,"x_max":382,"o":"m 135 883 q 198 857 172 883 q 226 792 224 831 l 226 243 q 244 196 226 215 q 290 176 263 176 q 353 151 326 176 q 382 89 381 126 q 359 30 382 56 q 300 -1 336 4 l 281 -1 q 189 19 232 -1 q 113 72 146 39 q 62 150 81 106 q 43 243 43 194 l 43 797 q 72 857 47 832 q 135 883 97 882 z "},"m":{"ha":896,"x_min":44,"x_max":850,"o":"m 293 672 q 374 659 335 672 q 447 618 414 646 q 603 672 514 672 q 697 653 651 672 q 776 603 742 635 q 830 526 810 571 q 850 432 850 482 l 850 83 q 822 25 850 50 q 758 0 794 0 q 695 27 722 0 q 668 90 668 54 l 668 428 q 649 472 668 454 q 603 490 631 490 q 559 474 579 490 q 539 428 539 458 l 539 90 q 512 26 539 53 q 447 0 485 0 q 385 24 413 0 q 357 83 357 49 l 357 428 q 336 473 356 456 q 293 490 317 490 q 248 472 267 490 q 228 426 229 454 l 228 82 q 199 24 225 49 q 138 0 174 0 q 101 7 118 0 q 72 26 85 14 q 52 56 60 39 q 46 90 44 72 l 46 432 q 65 524 46 481 q 118 601 85 568 q 197 653 151 633 q 293 672 242 672 z "},"n":{"ha":756,"x_min":40,"x_max":714,"o":"m 378 676 q 506 652 444 676 q 613 584 567 628 q 686 481 658 540 q 714 351 714 421 l 714 94 q 688 32 714 58 q 625 4 663 6 q 560 28 588 4 q 533 90 533 53 l 533 340 q 522 401 533 372 q 488 450 510 429 q 438 483 467 471 q 376 496 410 496 q 318 484 346 496 q 269 453 290 472 q 236 406 249 433 q 224 347 224 378 l 224 94 q 196 31 224 58 q 132 4 168 4 q 68 29 96 4 q 40 90 40 54 l 40 340 q 67 471 42 410 q 138 578 93 532 q 244 650 183 624 q 378 676 306 676 z "},"o":{"ha":739,"x_min":33,"x_max":706,"o":"m 369 674 q 499 647 438 674 q 606 575 560 621 q 678 468 651 529 q 706 336 706 407 q 679 206 706 267 q 608 100 653 146 q 501 28 563 54 q 369 1 440 1 q 239 26 300 1 q 132 97 178 51 q 60 203 86 142 q 33 336 33 264 q 59 466 33 406 q 130 572 85 526 q 237 644 175 617 q 369 674 299 671 m 369 492 q 310 480 338 492 q 260 447 282 468 q 226 398 239 426 q 214 336 214 369 q 226 276 214 304 q 260 226 239 247 q 310 192 282 204 q 369 179 338 179 q 430 192 401 179 q 479 226 458 204 q 513 276 500 247 q 525 336 525 304 q 479 444 522 400 q 369 492 436 489 z "},"p":{"ha":732,"x_min":43,"x_max":717,"o":"m 381 672 q 510 646 449 672 q 617 574 571 619 q 690 467 663 528 q 717 336 717 406 q 691 206 717 267 q 620 99 665 144 q 513 26 575 53 q 381 0 451 0 q 225 35 294 0 l 225 -125 q 199 -187 225 -161 q 133 -214 172 -214 q 72 -190 99 -214 q 43 -129 44 -165 l 43 336 q 70 465 43 404 q 143 572 97 526 q 250 645 189 618 q 381 672 311 672 m 225 336 q 238 273 225 301 q 272 224 250 244 q 322 191 293 203 q 381 179 350 179 q 442 192 414 179 q 490 226 469 204 q 523 276 511 247 q 535 336 535 304 q 522 397 535 368 q 489 446 510 425 q 440 478 468 467 q 381 490 413 490 q 319 478 347 490 q 269 444 290 465 q 237 396 249 424 q 225 336 225 368 z "},"q":{"ha":732,"x_min":15,"x_max":689,"o":"m 351 674 q 481 647 419 674 q 589 574 543 619 q 662 467 635 528 q 689 338 689 406 l 689 -128 q 660 -188 688 -164 q 599 -212 633 -212 q 533 -186 560 -212 q 507 -124 507 -160 l 507 36 q 351 1 438 1 q 219 28 281 1 q 112 100 157 54 q 41 207 67 146 q 15 338 15 268 q 42 468 15 407 q 114 575 68 529 q 221 647 160 621 q 351 674 282 674 m 507 338 q 495 397 507 369 q 463 446 483 425 q 413 479 442 467 q 351 492 385 492 q 292 480 319 492 q 243 447 264 468 q 210 398 222 426 q 197 338 197 369 q 209 277 197 306 q 242 227 221 249 q 290 193 263 206 q 351 181 318 181 q 410 192 382 181 q 460 225 439 204 q 494 274 482 246 q 507 338 507 303 z "},"r":{"ha":474,"x_min":36,"x_max":464,"o":"m 126 -1 q 64 23 89 -1 q 36 88 39 47 l 36 344 q 65 470 38 411 q 137 573 92 529 q 242 642 182 617 q 371 671 303 668 q 435 644 410 671 q 464 581 461 618 q 438 517 464 543 q 372 490 411 492 q 313 478 340 490 q 264 446 285 467 q 231 397 243 425 q 218 335 218 368 l 218 82 q 191 22 215 46 q 126 -1 167 -1 z "},"s":{"ha":653,"x_min":40,"x_max":615,"o":"m 494 675 q 557 647 532 675 q 582 586 582 618 q 555 523 582 550 q 494 496 528 496 l 256 496 q 227 486 239 496 q 215 458 215 476 q 227 428 215 439 q 256 418 239 418 l 413 418 q 492 400 456 418 q 556 352 529 382 q 599 289 583 322 q 614 214 614 256 q 598 128 615 168 q 551 60 581 88 q 483 16 522 32 q 396 0 444 0 l 140 0 q 78 25 104 0 q 51 88 51 50 q 76 151 51 122 q 138 181 101 179 l 393 181 q 431 214 431 181 q 393 251 431 251 l 240 251 q 162 269 199 251 q 98 317 125 286 q 56 383 71 347 q 40 461 40 419 q 56 542 40 503 q 100 610 72 581 q 165 656 128 639 q 247 675 203 674 l 494 675 z "},"t":{"ha":663,"x_min":42,"x_max":653,"o":"m 136 888 q 201 860 175 888 q 231 793 228 833 l 231 682 l 469 682 q 535 654 510 682 q 560 589 560 626 q 532 524 560 553 q 469 496 504 496 l 231 496 l 231 343 q 242 283 231 311 q 275 232 254 254 q 324 197 296 210 q 386 185 353 185 q 448 194 422 185 q 493 224 474 204 q 558 249 522 249 q 624 222 593 250 q 644 194 638 210 q 652 160 651 178 q 647 126 653 143 q 629 97 642 110 q 522 25 581 50 q 397 0 464 0 q 261 24 325 0 q 149 94 197 49 q 72 202 100 139 q 42 343 43 265 l 42 800 q 70 863 42 838 q 136 888 99 888 z "},"u":{"ha":756,"x_min":40,"x_max":715,"o":"m 131 674 q 194 647 167 674 q 222 581 222 619 l 222 336 q 235 276 222 304 q 268 226 247 247 q 317 193 289 206 q 378 181 346 181 q 436 192 408 181 q 485 222 464 203 q 519 269 507 242 q 532 329 532 297 l 532 582 q 558 644 532 617 q 622 674 585 672 q 687 647 660 674 q 715 586 714 619 l 715 336 q 689 206 715 267 q 617 99 663 144 q 510 26 571 53 q 378 0 449 0 q 250 23 311 -3 q 142 94 189 49 q 68 199 96 139 q 40 326 40 260 l 40 582 q 66 645 40 618 q 131 674 92 672 z "},"w":{"ha":896,"x_min":44,"x_max":850,"o":"m 293 0 q 197 19 242 0 q 118 72 151 39 q 65 148 85 104 q 46 240 46 192 l 46 582 q 52 617 44 600 q 72 646 60 633 q 101 665 85 658 q 138 672 118 672 q 199 648 174 672 q 228 590 225 624 l 228 246 q 248 200 229 218 q 293 182 267 182 q 336 199 317 182 q 357 244 356 217 l 357 592 q 385 651 357 626 q 447 675 413 675 q 512 649 485 675 q 539 585 539 622 l 539 244 q 559 198 539 214 q 603 182 579 182 q 649 200 631 182 q 668 244 668 218 l 668 582 q 695 645 668 618 q 758 672 722 672 q 822 647 794 672 q 850 589 850 622 l 850 240 q 830 146 850 190 q 776 69 810 101 q 697 19 742 38 q 603 0 651 0 q 447 54 514 0 q 374 13 414 26 q 293 0 335 0 z "},"v":{"ha":654,"x_min":22,"x_max":632,"o":"m 565 668 q 617 619 601 653 q 617 549 632 585 l 415 58 q 385 22 408 43 q 331 0 363 0 q 278 13 303 0 q 242 58 253 26 l 38 549 q 38 619 22 585 q 89 668 53 653 q 160 667 125 682 q 210 615 194 651 l 328 349 l 444 615 q 495 667 460 651 q 565 668 531 682 z "},"x":{"ha":761,"x_min":43,"x_max":718,"o":"m 565 646 q 627 672 592 672 q 690 644 663 671 q 715 582 715 619 q 690 518 715 544 l 510 336 l 690 154 q 717 91 715 129 q 690 25 718 53 q 627 0 665 0 q 561 29 589 0 l 381 207 l 200 25 q 138 0 175 3 q 72 25 100 -3 q 45 87 47 50 q 69 151 43 124 l 254 336 l 69 521 q 46 582 43 547 q 72 644 49 617 q 138 672 103 675 q 200 644 172 669 l 381 464 l 565 646 z "},"y":{"ha":743,"x_min":19,"x_max":694,"o":"m 110 674 q 173 650 144 674 q 201 589 201 626 l 201 338 q 213 278 201 306 q 246 229 225 250 q 295 196 267 208 q 357 183 324 183 q 415 194 386 183 q 465 225 443 206 q 499 272 486 244 q 513 331 513 299 l 513 585 q 538 647 513 621 q 603 674 564 674 q 667 649 639 674 q 694 589 694 625 l 694 -125 q 667 -186 694 -161 q 603 -211 639 -211 q 540 -186 568 -211 q 513 -121 513 -161 l 513 39 q 440 10 481 19 q 357 1 399 1 q 228 28 289 1 q 120 100 167 54 q 47 209 74 146 q 19 347 19 272 l 19 585 q 45 647 19 621 q 110 674 71 674 z "},"z":{"ha":767,"x_min":44,"x_max":721,"o":"m 632 672 q 694 646 668 672 q 721 583 721 617 q 694 519 721 546 q 681 506 688 513 q 667 492 674 499 q 512 337 589 414 q 356 182 435 260 l 632 182 q 694 154 667 181 q 721 89 721 125 q 694 26 721 56 q 632 0 665 0 l 628 0 l 175 0 l 140 0 l 136 0 q 74 26 100 0 q 47 89 46 54 q 72 151 44 126 l 411 492 l 140 492 l 136 492 q 74 519 99 494 q 47 583 44 546 q 74 646 46 618 q 136 672 99 672 l 632 672 z "},"c":{"ha":664,"x_min":32,"x_max":629,"o":"m 369 672 q 606 575 508 672 q 627 513 629 549 q 600 453 625 476 q 536 428 575 429 q 472 453 497 426 q 369 492 429 492 q 309 478 338 492 q 259 444 281 465 q 225 394 238 422 q 213 336 213 367 q 225 276 213 304 q 260 226 238 247 q 310 192 282 204 q 369 181 338 179 q 472 218 431 181 q 536 246 497 246 q 600 218 575 246 q 619 192 613 207 q 627 160 626 176 q 622 127 628 143 q 606 99 617 111 q 499 25 557 50 q 369 0 440 0 q 239 27 300 0 q 132 100 178 54 q 59 207 86 146 q 32 336 32 268 q 59 464 32 403 q 133 571 86 525 q 240 644 179 617 q 369 672 301 672 z "},"a":{"ha":747,"x_min":33,"x_max":707,"o":"m 410 671 q 527 635 472 664 q 622 560 582 606 q 684 458 661 515 q 707 336 707 400 l 707 90 q 679 26 707 53 q 617 0 651 0 q 539 44 568 0 q 526 38 532 42 q 515 32 521 35 q 447 8 482 17 q 371 0 411 0 q 185 56 267 0 q 63 201 103 113 q 41 267 49 233 q 33 336 33 300 q 41 406 33 372 q 63 471 49 439 q 185 617 103 561 q 371 672 267 672 q 391 672 382 672 q 410 671 400 672 m 369 181 q 430 192 401 181 q 479 225 458 204 q 513 274 500 246 q 525 336 525 303 q 513 395 525 367 q 478 445 500 424 q 428 479 457 467 q 369 492 400 492 q 311 479 339 492 q 262 445 283 467 q 228 395 240 424 q 215 336 215 367 q 228 276 215 304 q 263 226 242 247 q 313 193 285 206 q 369 181 340 181 z "},"d":{"ha":732,"x_min":15,"x_max":689,"o":"m 599 885 q 662 859 635 885 q 689 793 689 833 l 689 336 q 662 207 689 268 q 588 100 635 146 q 481 27 542 54 q 353 0 419 0 q 225 26 286 0 q 117 99 164 53 q 43 206 71 144 q 15 336 15 267 q 42 465 15 404 q 116 572 69 526 q 224 645 163 618 q 353 672 285 672 q 507 635 436 672 l 507 794 q 515 829 507 813 q 535 858 522 846 q 564 878 547 871 q 599 885 581 885 m 353 492 q 292 479 321 492 q 242 445 264 467 q 208 395 221 424 q 196 336 196 367 q 208 276 196 304 q 242 226 221 247 q 292 193 264 206 q 353 181 321 181 q 411 193 383 181 q 460 227 439 206 q 494 276 482 249 q 507 336 507 304 q 494 398 507 369 q 460 447 482 426 q 411 480 439 468 q 353 492 383 492 z "},"!":{"ha":278,"x_min":44,"x_max":232,"o":"m 232 93 q 204 28 232 56 q 140 0 176 0 q 72 28 100 0 q 44 93 44 56 q 72 160 44 132 q 140 188 100 188 q 204 160 176 188 q 232 93 232 132 m 140 888 q 204 860 176 888 q 232 793 232 833 l 232 325 q 204 258 232 285 q 140 231 176 231 q 72 258 100 231 q 44 325 44 285 l 44 793 q 72 860 44 833 q 140 888 100 888 z "},"\"":{"ha":510,"x_min":46,"x_max":464,"o":"m 140 888 q 207 860 181 888 q 233 794 233 833 l 233 621 q 207 555 233 582 q 140 528 181 528 q 74 555 101 528 q 46 621 46 582 l 46 794 q 74 860 46 833 q 140 888 101 888 m 371 888 q 438 860 411 888 q 464 794 464 833 l 464 621 q 438 555 464 582 q 371 528 411 528 q 304 555 332 528 q 276 621 276 582 l 276 794 q 304 860 276 833 q 371 888 332 888 z "},"$":{"ha":740,"x_min":28,"x_max":713,"o":"m 374 982 q 443 953 414 982 q 472 888 471 925 l 599 888 q 663 860 636 888 q 692 793 689 833 q 665 726 692 753 q 599 700 639 700 l 472 700 l 472 536 q 544 517 510 532 q 631 459 593 496 q 690 373 668 422 q 713 268 713 324 q 692 165 713 214 q 635 81 671 117 q 550 22 599 44 q 472 0 508 4 q 443 -64 469 -36 q 374 -93 414 -93 q 304 -64 333 -93 q 276 0 278 -36 l 143 0 q 75 27 101 0 q 49 94 49 54 q 76 160 49 132 q 143 188 103 188 l 276 188 l 276 350 q 194 372 233 354 q 109 428 146 393 q 50 513 72 464 q 28 618 28 561 q 49 718 28 669 q 106 804 69 767 q 192 864 143 842 q 276 888 236 886 q 304 953 278 925 q 374 982 333 982 m 239 675 q 215 615 217 651 q 239 560 217 583 q 276 539 256 544 l 276 697 q 239 675 256 692 m 503 211 q 528 268 528 235 q 503 325 528 303 q 472 344 489 339 l 472 192 q 503 211 489 197 z "},"%":{"ha":1168,"x_min":24,"x_max":1144,"o":"m 719 885 q 775 839 757 874 q 782 768 793 804 l 560 67 q 513 13 549 31 q 442 6 478 -6 q 388 51 406 17 q 381 124 369 85 l 603 824 q 648 879 614 861 q 719 885 682 897 m 269 888 q 435 815 367 888 q 503 644 503 743 q 435 478 503 550 q 269 406 367 406 q 92 474 161 408 q 24 658 24 539 q 100 821 28 754 q 269 888 172 888 m 267 718 q 215 697 236 718 q 192 649 193 676 q 213 593 192 613 q 267 572 235 574 q 316 594 294 572 q 338 644 338 617 q 316 697 338 675 q 267 718 294 718 m 911 486 q 1076 414 1008 486 q 1144 243 1144 342 q 1076 76 1144 149 q 911 4 1008 4 q 734 72 803 7 q 665 257 665 138 q 742 419 669 353 q 911 486 814 486 m 908 317 q 856 296 878 317 q 833 247 835 275 q 855 192 833 211 q 908 171 876 172 q 958 193 936 171 q 979 243 979 215 q 958 295 979 274 q 908 317 936 317 z "},"&":{"ha":831,"x_min":39,"x_max":811,"o":"m 781 149 q 809 89 807 125 q 788 26 811 53 q 727 -3 764 -1 q 665 19 690 -4 l 536 132 l 482 68 q 401 18 446 36 q 303 0 356 0 q 192 24 242 0 q 108 86 142 47 q 56 174 74 125 q 40 276 39 224 q 64 378 42 328 q 132 471 86 429 q 79 548 99 504 q 60 643 60 592 q 79 738 60 693 q 131 815 99 782 q 208 867 164 849 q 303 886 253 886 q 440 843 382 886 q 524 736 497 800 q 540 601 550 672 q 475 471 531 529 q 458 457 467 464 q 443 443 450 450 l 519 375 l 592 456 q 651 485 615 483 q 713 463 686 486 q 742 403 740 439 q 719 340 743 368 l 650 261 l 781 149 m 303 714 q 253 693 274 714 q 233 643 233 672 q 252 597 233 619 q 303 574 271 574 q 353 594 332 574 q 374 643 374 614 q 353 693 374 672 q 303 714 332 714 m 406 244 l 281 356 q 231 323 250 347 q 211 267 211 299 q 238 202 211 229 q 303 175 264 175 q 367 201 340 175 l 406 244 z "},"'":{"ha":272,"x_min":42,"x_max":229,"o":"m 136 890 q 203 863 176 890 q 229 797 229 836 l 229 624 q 203 558 229 585 q 136 531 176 531 q 69 558 97 531 q 42 624 42 585 l 42 797 q 69 863 42 836 q 136 890 97 890 z "},"(":{"ha":532,"x_min":35,"x_max":489,"o":"m 394 0 q 462 -26 435 0 q 489 -93 489 -53 q 462 -159 489 -132 q 394 -186 435 -186 l 376 -186 q 245 -158 307 -186 q 137 -84 183 -131 q 63 24 90 -37 q 35 153 35 86 l 35 549 q 63 678 35 617 q 137 786 90 739 q 245 861 183 833 q 376 889 307 889 l 394 889 q 462 862 435 889 q 489 796 489 835 q 462 729 489 756 q 394 703 435 703 q 329 683 360 703 q 275 634 299 664 q 238 567 251 604 q 224 497 224 531 l 224 172 q 238 108 224 139 q 275 52 251 76 q 329 14 299 28 q 394 0 360 0 z "},")":{"ha":533,"x_min":44,"x_max":499,"o":"m 139 0 q 204 14 174 0 q 258 52 235 28 q 296 108 282 76 q 310 172 310 139 l 310 497 q 296 567 310 531 q 258 634 282 604 q 204 683 235 664 q 139 703 174 703 q 72 729 99 703 q 44 796 44 756 q 72 862 44 835 q 139 889 99 889 l 157 889 q 288 861 225 889 q 397 786 350 833 q 471 678 443 739 q 499 549 499 617 l 499 153 q 471 24 499 86 q 397 -84 443 -37 q 288 -158 350 -131 q 157 -186 225 -186 l 139 -186 q 72 -159 99 -186 q 44 -93 44 -132 q 72 -26 44 -53 q 139 0 99 0 z "},"*":{"ha":507,"x_min":32,"x_max":475,"o":"m 254 482 q 194 504 218 482 q 165 561 169 526 q 101 557 133 546 q 50 600 69 568 q 39 663 32 631 q 74 715 46 696 q 39 769 46 735 q 50 835 32 803 q 101 875 69 865 q 165 869 133 885 q 194 928 169 906 q 254 951 218 951 q 315 928 290 951 q 344 872 340 906 q 408 874 376 885 q 457 835 439 864 q 467 769 475 803 q 432 715 460 735 q 467 663 460 696 q 457 600 475 631 q 407 558 438 569 q 344 560 376 547 q 315 504 340 526 q 254 482 290 482 z "},"[":{"ha":432,"x_min":49,"x_max":390,"o":"m 297 0 q 363 -26 336 0 q 390 -93 390 -53 q 363 -159 390 -132 q 297 -186 336 -186 l 142 -186 q 78 -160 103 -186 q 49 -100 54 -135 l 49 803 q 78 863 54 838 q 142 889 103 888 l 297 889 q 363 862 336 889 q 390 796 390 835 q 363 729 390 756 q 297 703 336 703 l 235 703 l 235 0 l 297 0 z "},"]":{"ha":433,"x_min":43,"x_max":385,"o":"m 136 0 l 199 0 l 199 703 l 136 703 q 70 729 97 703 q 43 796 43 756 q 70 862 43 835 q 136 889 97 889 l 292 889 q 355 863 331 888 q 385 803 379 838 l 385 -100 q 355 -160 379 -135 q 292 -186 331 -186 l 136 -186 q 70 -159 97 -186 q 43 -93 43 -132 q 70 -26 43 -53 q 136 0 97 0 z "},"+":{"ha":574,"x_min":17,"x_max":557,"o":"m 461 511 q 529 484 501 511 q 557 417 557 457 q 529 350 557 378 q 461 322 501 322 l 381 322 l 381 242 q 353 174 381 201 q 286 146 325 146 q 219 174 246 146 q 192 242 192 201 l 192 322 l 110 322 q 43 350 69 322 q 17 417 17 378 q 43 484 17 457 q 110 511 69 511 l 192 511 l 192 593 q 219 660 192 633 q 286 688 246 688 q 353 660 325 688 q 381 593 381 633 l 381 511 l 461 511 z "},",":{"ha":274,"x_min":42,"x_max":231,"o":"m 135 189 q 203 161 175 189 q 231 96 231 133 l 231 -78 q 203 -144 231 -117 q 135 -171 175 -171 q 69 -144 96 -171 q 42 -78 42 -117 l 42 96 q 69 161 42 133 q 135 189 96 189 z "},"-":{"ha":626,"x_min":43,"x_max":583,"o":"m 583 418 q 556 351 583 379 q 490 324 529 324 l 136 324 q 69 351 96 324 q 43 418 43 379 q 69 485 43 458 q 136 513 96 513 l 490 513 q 556 485 529 513 q 583 418 583 458 z "},".":{"ha":257,"x_min":35,"x_max":224,"o":"m 224 94 q 196 28 224 56 q 128 0 168 0 q 62 28 89 0 q 35 94 35 56 q 62 161 35 133 q 128 189 89 189 q 196 161 168 189 q 224 94 224 133 z "},"/":{"ha":449,"x_min":13,"x_max":436,"o":"m 364 883 q 418 838 400 872 q 425 767 436 803 l 203 65 q 157 11 192 29 q 86 4 122 -7 q 31 49 49 15 q 24 122 13 83 l 246 822 q 292 878 257 860 q 364 883 328 896 z "},"{":{"ha":608,"x_min":18,"x_max":564,"o":"m 469 0 q 536 -27 508 0 q 564 -92 564 -54 q 536 -159 564 -132 q 469 -186 508 -186 l 451 -186 q 322 -158 383 -186 q 213 -84 260 -131 q 140 24 167 -37 q 113 154 113 86 l 113 257 q 45 284 72 257 q 18 350 18 311 q 45 418 18 390 q 113 446 72 446 l 113 549 q 140 678 113 617 q 213 785 167 739 q 322 860 260 832 q 451 888 383 888 l 469 888 q 536 860 508 888 q 564 794 564 833 q 536 728 564 756 q 469 701 508 701 q 404 682 435 701 q 351 633 374 663 q 314 567 328 603 q 300 496 300 531 l 300 172 q 314 108 300 139 q 351 52 328 76 q 404 14 374 28 q 469 0 435 0 z "},"\\":{"ha":449,"x_min":13,"x_max":436,"o":"m 85 883 q 156 878 121 896 q 203 822 192 860 l 425 122 q 418 49 436 83 q 363 4 400 15 q 292 11 326 -7 q 246 65 257 29 l 24 767 q 31 838 13 803 q 85 883 49 872 z "},"|":{"ha":293,"x_min":47,"x_max":243,"o":"m 144 889 q 214 860 185 889 q 243 790 243 831 l 243 -87 q 214 -157 243 -128 q 144 -186 185 -186 q 76 -157 104 -186 q 47 -87 47 -128 l 47 790 q 76 860 47 831 q 144 889 104 889 z "},"}":{"ha":608,"x_min":44,"x_max":590,"o":"m 139 0 q 204 14 174 0 q 258 52 235 28 q 294 108 281 76 q 308 172 308 139 l 308 496 q 294 567 308 531 q 258 633 281 603 q 204 682 235 663 q 139 701 174 701 q 72 728 100 701 q 44 794 44 756 q 72 860 44 833 q 139 888 100 888 l 157 888 q 287 860 225 888 q 395 785 349 832 q 469 678 442 739 q 496 549 496 617 l 496 446 q 563 418 536 446 q 590 350 590 390 q 563 284 590 311 q 496 257 536 257 l 496 154 q 469 24 496 86 q 395 -84 442 -37 q 287 -158 349 -131 q 157 -186 225 -186 l 139 -186 q 72 -159 100 -186 q 44 -92 44 -132 q 72 -27 44 -54 q 139 0 100 0 z "},":":{"ha":265,"x_min":39,"x_max":228,"o":"m 228 94 q 200 28 228 56 q 132 0 172 0 q 66 28 93 0 q 39 94 39 56 q 66 161 39 133 q 132 189 93 189 q 200 161 172 189 q 228 94 228 133 m 228 579 q 200 513 228 540 q 132 485 172 485 q 66 513 93 485 q 39 579 39 540 q 66 646 39 618 q 132 674 93 674 q 200 646 172 674 q 228 579 228 618 z "},";":{"ha":272,"x_min":42,"x_max":231,"o":"m 231 579 q 203 513 231 540 q 135 485 175 485 q 69 513 96 485 q 42 579 42 540 q 69 646 42 618 q 135 674 96 674 q 203 646 175 674 q 231 579 231 618 m 135 189 q 69 161 96 189 q 42 96 42 133 l 42 -78 q 69 -144 42 -117 q 135 -171 96 -171 q 203 -144 175 -171 q 231 -78 231 -117 l 231 96 q 203 161 231 133 q 135 189 175 189 z "},"‘":{"ha":329,"x_min":21,"x_max":310,"o":"m 254 874 q 299 815 289 853 q 290 744 310 778 l 204 594 q 147 551 185 561 q 74 563 108 542 q 31 619 40 582 q 40 690 21 656 l 128 840 q 183 883 146 872 q 254 874 221 893 z "},"’":{"ha":329,"x_min":21,"x_max":310,"o":"m 254 876 q 299 818 289 856 q 290 747 310 781 l 204 597 q 147 554 185 564 q 74 565 108 544 q 31 622 40 585 q 40 693 21 658 l 128 843 q 183 885 146 875 q 254 876 221 896 z "},"“":{"ha":618,"x_min":32,"x_max":586,"o":"m 265 874 q 310 815 300 853 q 301 744 321 778 l 215 594 q 158 551 196 561 q 85 563 119 542 q 42 619 51 582 q 51 690 32 656 l 139 840 q 194 883 157 872 q 265 874 232 893 m 531 874 q 576 815 565 853 q 567 744 586 778 l 481 594 q 423 551 461 561 q 350 563 385 542 q 307 619 317 582 q 317 690 297 656 l 404 840 q 460 883 422 872 q 531 874 497 893 z "},"”":{"ha":618,"x_min":32,"x_max":586,"o":"m 265 874 q 310 815 300 853 q 301 744 321 778 l 215 594 q 158 551 196 561 q 85 563 119 542 q 42 619 51 582 q 51 690 32 656 l 139 840 q 194 883 157 872 q 265 874 232 893 m 531 874 q 576 815 565 853 q 567 744 586 778 l 481 594 q 423 551 461 561 q 350 563 385 542 q 307 619 317 582 q 317 690 297 656 l 404 840 q 460 883 422 872 q 531 874 497 893 z "},"‚":{"ha":331,"x_min":21,"x_max":310,"o":"m 256 129 q 301 70 292 108 q 292 0 310 32 l 204 -150 q 146 -192 183 -183 q 72 -181 108 -201 q 31 -124 40 -160 q 40 -53 21 -87 l 128 96 q 186 140 149 129 q 256 129 224 150 z "},"„":{"ha":618,"x_min":32,"x_max":586,"o":"m 265 129 q 310 71 300 108 q 301 0 321 33 l 215 -150 q 158 -193 196 -183 q 85 -182 119 -203 q 42 -126 51 -162 q 51 -54 32 -89 l 139 96 q 194 138 157 128 q 265 129 232 149 m 531 129 q 576 71 565 108 q 567 0 586 33 l 481 -150 q 423 -193 461 -183 q 350 -182 385 -203 q 307 -126 317 -162 q 317 -54 297 -89 l 404 96 q 460 138 422 128 q 531 129 497 149 z "},"`":{"ha":417,"x_min":25,"x_max":392,"o":"m 35 878 q 78 934 44 915 q 147 943 113 953 l 315 899 q 373 855 354 888 q 382 785 392 822 q 338 726 372 746 q 267 715 304 706 l 100 761 q 44 804 63 771 q 35 878 25 838 z "},"à":{"ha":729,"x_min":33,"x_max":707,"o":"m 410 671 q 527 635 472 664 q 622 560 582 606 q 684 458 661 515 q 707 336 707 400 l 707 90 q 679 26 707 53 q 617 0 651 0 q 539 44 568 0 q 526 38 532 42 q 515 32 521 35 q 447 8 482 17 q 371 0 411 0 q 185 56 267 0 q 63 201 103 113 q 41 267 49 233 q 33 336 33 300 q 41 406 33 372 q 63 471 49 439 q 185 617 103 561 q 371 672 267 672 q 391 672 382 672 q 410 671 400 672 m 369 181 q 430 192 401 181 q 479 225 458 204 q 513 274 500 246 q 525 336 525 303 q 513 395 525 367 q 478 445 500 424 q 428 479 457 467 q 369 492 400 492 q 311 479 339 492 q 262 445 283 467 q 228 395 240 424 q 215 336 215 367 q 228 276 215 304 q 263 226 242 247 q 313 193 285 206 q 369 181 340 181 m 167 913 q 210 969 176 950 q 279 978 244 988 l 447 933 q 505 890 486 922 q 514 819 524 857 q 470 760 504 781 q 399 750 436 740 l 232 796 q 176 839 194 806 q 167 913 157 872 z "},"´":{"ha":415,"x_min":25,"x_max":392,"o":"m 382 878 q 373 804 392 838 q 317 761 354 771 l 150 715 q 78 726 113 706 q 35 785 44 746 q 44 855 25 822 q 101 899 63 888 l 269 943 q 338 934 304 953 q 382 878 372 915 z "},"á":{"ha":729,"x_min":33,"x_max":707,"o":"m 410 671 q 527 635 472 664 q 622 560 582 606 q 684 458 661 515 q 707 336 707 400 l 707 90 q 679 26 707 53 q 617 0 651 0 q 539 44 568 0 q 526 38 532 42 q 515 32 521 35 q 447 8 482 17 q 371 0 411 0 q 185 56 267 0 q 63 201 103 113 q 41 267 49 233 q 33 336 33 300 q 41 406 33 372 q 63 471 49 439 q 185 617 103 561 q 371 672 267 672 q 391 672 382 672 q 410 671 400 672 m 369 181 q 430 192 401 181 q 479 225 458 204 q 513 274 500 246 q 525 336 525 303 q 513 395 525 367 q 478 445 500 424 q 428 479 457 467 q 369 492 400 492 q 311 479 339 492 q 262 445 283 467 q 228 395 240 424 q 215 336 215 367 q 228 276 215 304 q 263 226 242 247 q 313 193 285 206 q 369 181 340 181 m 569 913 q 560 839 579 872 q 504 796 542 806 l 338 750 q 266 760 300 740 q 222 819 232 781 q 231 890 213 857 q 289 933 250 922 l 457 978 q 526 969 492 988 q 569 913 560 950 z "},"?":{"ha":607,"x_min":26,"x_max":590,"o":"m 308 888 q 417 865 367 888 q 507 806 468 843 q 568 717 546 768 q 590 607 590 665 q 576 516 590 558 q 535 438 561 474 q 444 358 499 389 q 324 324 389 326 l 324 322 q 297 257 324 285 q 229 229 269 229 q 164 257 190 229 q 138 322 138 285 l 138 417 l 138 426 q 165 486 138 463 q 229 513 193 510 l 321 513 q 379 544 356 517 q 403 607 403 571 q 375 675 403 647 q 308 703 347 703 q 240 675 268 703 q 213 607 213 647 q 185 541 213 568 q 118 514 157 514 q 56 537 82 514 q 26 596 29 560 q 47 704 26 651 q 103 798 67 757 q 192 863 140 839 q 308 888 244 888 m 321 93 q 294 27 321 54 q 228 0 267 0 q 164 27 190 0 q 138 93 138 54 q 164 158 138 131 q 228 185 190 185 q 294 158 267 185 q 321 93 321 131 z "},"A":{"ha":760,"x_min":43,"x_max":717,"o":"m 381 888 q 508 863 447 888 q 615 795 569 839 q 689 692 661 751 q 717 563 717 632 l 717 94 q 691 32 717 58 q 628 4 665 6 q 563 28 590 4 q 536 90 536 53 l 536 253 l 226 253 l 226 94 q 199 31 226 58 q 135 4 171 4 q 71 29 99 4 q 43 90 43 54 l 43 551 q 70 682 44 621 q 141 789 96 743 q 247 861 186 835 q 381 888 308 888 m 536 551 q 524 612 536 583 q 491 661 513 640 q 441 694 469 682 q 379 707 413 707 q 321 695 349 707 q 272 664 293 683 q 239 617 251 644 q 226 558 226 589 l 226 433 l 536 433 l 536 551 z "},"B":{"ha":767,"x_min":49,"x_max":726,"o":"m 150 889 l 460 889 q 564 868 515 889 q 649 815 613 847 q 706 735 685 783 q 726 632 726 688 q 709 535 726 579 q 661 454 692 490 q 709 374 692 419 q 726 279 726 329 q 706 169 726 224 q 649 79 685 115 q 564 22 613 43 q 460 0 515 0 l 150 0 l 143 0 q 75 26 100 3 q 49 93 49 54 l 49 797 q 60 836 49 818 q 78 861 67 850 q 135 889 101 886 q 150 889 139 889 m 460 185 q 519 209 494 185 q 544 283 544 233 q 519 358 544 333 q 460 382 494 382 l 232 382 l 232 185 l 460 185 m 460 542 q 519 567 494 542 q 544 628 544 592 q 519 687 544 663 q 460 711 494 711 l 232 711 l 232 542 l 460 542 z "},"=":{"ha":614,"x_min":44,"x_max":569,"o":"m 569 369 q 543 305 569 332 q 479 278 517 278 l 136 278 q 71 305 97 278 q 44 369 44 332 q 71 434 44 407 q 136 461 97 461 l 479 461 q 543 434 517 461 q 569 369 569 407 m 569 610 q 543 545 569 572 q 479 518 517 518 l 136 518 q 71 545 97 518 q 44 610 44 572 q 71 674 44 647 q 136 701 97 701 l 479 701 q 543 674 517 701 q 569 610 569 647 z "},"<":{"ha":533,"x_min":10,"x_max":497,"o":"m 53 496 l 356 657 q 425 664 389 675 q 479 619 461 653 q 485 550 497 586 q 440 496 474 514 l 290 415 l 440 336 q 485 282 474 318 q 479 213 497 246 q 425 168 461 179 q 356 175 389 157 l 53 335 q 20 369 31 346 q 10 417 10 392 q 22 464 11 442 q 53 496 33 486 z "},">":{"ha":536,"x_min":38,"x_max":525,"o":"m 482 496 q 513 464 501 486 q 524 417 524 442 q 515 369 525 392 q 482 335 504 346 l 179 175 q 110 168 146 157 q 56 213 74 179 q 49 282 38 246 q 94 336 61 318 l 244 415 l 94 496 q 49 550 61 514 q 56 619 38 586 q 110 664 74 653 q 179 657 146 675 l 482 496 z "},"ˆ":{"ha":614,"x_min":26,"x_max":589,"o":"m 185 786 q 120 760 158 760 q 54 788 82 760 q 33 855 26 817 q 67 919 40 893 l 233 1086 q 299 1113 261 1114 q 368 1086 338 1113 l 549 919 q 583 853 576 892 q 561 786 589 814 q 496 759 535 760 q 429 786 457 758 l 300 901 l 185 786 z "},"˜":{"ha":714,"x_min":35,"x_max":679,"o":"m 368 985 l 436 947 q 471 935 458 932 q 501 961 483 939 q 552 1006 519 992 q 621 999 585 1019 q 667 942 656 979 q 654 863 679 904 q 597 794 629 819 q 519 758 564 768 q 424 759 475 749 q 346 786 372 769 l 276 824 q 239 831 256 838 q 213 808 222 825 q 160 765 193 779 q 92 772 128 751 q 46 829 57 792 q 58 908 35 867 q 116 976 83 951 q 193 1012 149 1001 q 287 1013 238 1022 q 368 985 336 1003 z "},"¡":{"ha":243,"x_min":44,"x_max":232,"o":"m 232 610 q 204 675 232 647 q 140 703 176 703 q 72 675 100 703 q 44 610 44 647 q 72 543 44 571 q 140 515 100 515 q 204 543 176 515 q 232 610 232 571 m 140 -185 q 204 -157 176 -185 q 232 -90 232 -130 l 232 378 q 204 445 232 418 q 140 472 176 472 q 72 445 100 472 q 44 378 44 418 l 44 -90 q 72 -157 44 -130 q 140 -185 100 -185 z "},"¿":{"ha":619,"x_min":29,"x_max":593,"o":"m 311 -214 q 202 -192 253 -214 q 113 -132 151 -169 q 51 -43 74 -94 q 29 67 29 8 q 44 158 29 115 q 85 236 58 200 q 176 316 121 285 q 296 350 231 347 l 296 351 q 323 417 296 389 q 390 444 350 444 q 456 417 429 444 q 482 351 482 389 l 482 257 l 482 247 q 454 188 482 211 q 390 161 426 164 l 299 161 q 240 130 264 157 q 217 67 217 103 q 245 -1 217 27 q 311 -29 272 -29 q 379 -1 351 -29 q 407 67 407 27 q 435 133 407 106 q 501 160 463 160 q 564 137 538 160 q 593 78 590 114 q 573 -30 593 22 q 516 -124 553 -83 q 427 -189 479 -165 q 311 -214 375 -214 m 299 581 q 326 647 299 619 q 392 674 353 674 q 456 647 429 674 q 482 581 482 619 q 456 516 482 543 q 392 489 429 489 q 326 516 353 489 q 299 581 299 543 z "},"â":{"ha":729,"x_min":33,"x_max":707,"o":"m 410 671 q 527 635 472 664 q 622 560 582 606 q 684 458 661 515 q 707 336 707 400 l 707 90 q 679 26 707 53 q 617 0 651 0 q 539 44 568 0 q 526 38 532 42 q 515 32 521 35 q 447 8 482 17 q 371 0 411 0 q 185 56 267 0 q 63 201 103 113 q 41 267 49 233 q 33 336 33 300 q 41 406 33 372 q 63 471 49 439 q 185 617 103 561 q 371 672 267 672 q 391 672 382 672 q 410 671 400 672 m 369 181 q 430 192 401 181 q 479 225 458 204 q 513 274 500 246 q 525 336 525 303 q 513 395 525 367 q 478 445 500 424 q 428 479 457 467 q 369 492 400 492 q 311 479 339 492 q 262 445 283 467 q 228 395 240 424 q 215 336 215 367 q 228 276 215 304 q 263 226 242 247 q 313 193 285 206 q 369 181 340 181 m 254 743 q 190 717 228 717 q 124 744 151 717 q 103 812 96 774 q 136 876 110 850 l 303 1043 q 369 1070 331 1071 q 438 1043 407 1069 l 618 876 q 652 810 646 849 q 631 743 658 771 q 565 716 604 717 q 499 743 526 715 l 369 858 l 254 743 z "},"ã":{"ha":729,"x_min":33,"x_max":707,"o":"m 410 671 q 527 635 472 664 q 622 560 582 606 q 684 458 661 515 q 707 336 707 400 l 707 90 q 679 26 707 53 q 617 0 651 0 q 539 44 568 0 q 526 38 532 42 q 515 32 521 35 q 447 8 482 17 q 371 0 411 0 q 185 56 267 0 q 63 201 103 113 q 41 267 49 233 q 33 336 33 300 q 41 406 33 372 q 63 471 49 439 q 185 617 103 561 q 371 672 267 672 q 391 672 382 672 q 410 671 400 672 m 369 181 q 430 192 401 181 q 479 225 458 204 q 513 274 500 246 q 525 336 525 303 q 513 395 525 367 q 478 445 500 424 q 428 479 457 467 q 369 492 400 492 q 311 479 339 492 q 262 445 283 467 q 228 395 240 424 q 215 336 215 367 q 228 276 215 304 q 263 226 242 247 q 313 193 285 206 q 369 181 340 181 m 385 978 l 453 940 q 488 928 475 925 q 518 954 500 932 q 569 999 536 985 q 638 992 601 1013 q 684 935 672 972 q 671 856 696 897 q 613 787 646 813 q 536 751 581 761 q 440 752 492 742 q 363 779 389 763 l 293 817 q 256 824 272 831 q 229 801 239 818 q 177 758 210 772 q 108 765 144 744 q 63 822 74 785 q 75 901 51 860 q 133 969 100 944 q 210 1005 165 994 q 303 1006 254 1015 q 385 978 353 996 z "},"¨":{"ha":542,"x_min":43,"x_max":500,"o":"m 232 846 q 204 779 232 807 q 136 751 176 751 q 70 779 97 751 q 43 846 43 807 q 70 913 43 885 q 136 940 97 940 q 204 913 176 940 q 232 846 232 885 m 500 846 q 472 779 500 807 q 404 751 444 751 q 338 779 365 751 q 311 846 311 807 q 338 913 311 885 q 404 940 365 940 q 472 913 444 940 q 500 846 500 885 z "},"è":{"ha":729,"x_min":33,"x_max":707,"o":"m 369 672 q 497 644 436 672 q 605 570 558 617 q 679 463 651 524 q 707 336 707 403 q 680 279 707 300 q 613 260 653 258 l 243 260 q 369 181 289 181 q 407 185 392 181 q 434 194 422 189 q 458 204 446 200 q 485 208 469 208 q 535 192 514 207 q 567 153 557 176 q 574 104 578 131 q 550 56 571 78 q 467 13 513 25 q 369 0 421 1 q 242 24 303 -3 q 134 98 181 51 q 60 207 88 144 q 33 336 33 269 q 60 463 33 401 q 133 570 88 524 q 240 644 179 617 q 369 672 301 672 m 496 414 q 440 474 472 457 q 369 492 408 492 q 298 474 329 492 q 243 414 267 457 l 496 414 m 132 913 q 176 969 142 950 q 244 978 210 988 l 413 933 q 470 890 451 922 q 479 819 489 857 q 435 760 469 781 q 364 750 401 740 l 197 796 q 141 839 160 806 q 132 913 122 872 z "},"é":{"ha":729,"x_min":33,"x_max":707,"o":"m 369 672 q 497 644 436 672 q 605 570 558 617 q 679 463 651 524 q 707 336 707 403 q 680 279 707 300 q 613 260 653 258 l 243 260 q 369 181 289 181 q 407 185 392 181 q 434 194 422 189 q 458 204 446 200 q 485 208 469 208 q 535 192 514 207 q 567 153 557 176 q 574 104 578 131 q 550 56 571 78 q 467 13 513 25 q 369 0 421 1 q 242 24 303 -3 q 134 98 181 51 q 60 207 88 144 q 33 336 33 269 q 60 463 33 401 q 133 570 88 524 q 240 644 179 617 q 369 672 301 672 m 496 414 q 440 474 472 457 q 369 492 408 492 q 298 474 329 492 q 243 414 267 457 l 496 414 m 603 913 q 594 839 613 872 q 538 796 575 806 l 371 750 q 299 760 333 740 q 256 819 265 781 q 265 890 246 857 q 322 933 283 922 l 490 978 q 559 969 525 988 q 603 913 593 950 z "},"ê":{"ha":729,"x_min":33,"x_max":707,"o":"m 369 672 q 497 644 436 672 q 605 570 558 617 q 679 463 651 524 q 707 336 707 403 q 680 279 707 300 q 613 260 653 258 l 243 260 q 369 181 289 181 q 407 185 392 181 q 434 194 422 189 q 458 204 446 200 q 485 208 469 208 q 535 192 514 207 q 567 153 557 176 q 574 104 578 131 q 550 56 571 78 q 467 13 513 25 q 369 0 421 1 q 242 24 303 -3 q 134 98 181 51 q 60 207 88 144 q 33 336 33 269 q 60 463 33 401 q 133 570 88 524 q 240 644 179 617 q 369 672 301 672 m 496 414 q 440 474 472 457 q 369 492 408 492 q 298 474 329 492 q 243 414 267 457 l 496 414 m 242 746 q 177 719 215 719 q 111 747 139 719 q 90 815 83 776 q 124 879 97 853 l 290 1046 q 356 1073 318 1074 q 425 1046 394 1072 l 606 879 q 640 813 633 851 q 618 746 646 774 q 553 719 592 719 q 486 746 514 718 l 357 861 l 242 746 z "},"ë":{"ha":729,"x_min":33,"x_max":707,"o":"m 369 672 q 497 644 436 672 q 605 570 558 617 q 679 463 651 524 q 707 336 707 403 q 680 279 707 300 q 613 260 653 258 l 243 260 q 369 181 289 181 q 407 185 392 181 q 434 194 422 189 q 458 204 446 200 q 485 208 469 208 q 535 192 514 207 q 567 153 557 176 q 574 104 578 131 q 550 56 571 78 q 467 13 513 25 q 369 0 421 1 q 242 24 303 -3 q 134 98 181 51 q 60 207 88 144 q 33 336 33 269 q 60 463 33 401 q 133 570 88 524 q 240 644 179 617 q 369 672 301 672 m 496 414 q 440 474 472 457 q 369 492 408 492 q 298 474 329 492 q 243 414 267 457 l 496 414 m 332 872 q 304 806 332 833 q 236 778 276 778 q 170 806 197 778 q 143 872 143 833 q 170 939 143 911 q 236 967 197 967 q 304 939 276 967 q 332 872 332 911 m 600 872 q 572 806 600 833 q 504 778 544 778 q 438 806 465 778 q 411 872 411 833 q 438 939 411 911 q 504 967 465 967 q 572 939 544 967 q 600 872 600 911 z "},"î":{"ha":589,"x_min":14,"x_max":576,"o":"m 292 674 q 352 647 328 674 q 379 583 376 621 l 379 92 q 356 29 379 54 q 292 1 332 4 q 231 24 256 1 q 200 86 206 46 l 200 589 q 229 649 203 625 q 292 674 256 672 m 172 739 q 108 713 146 713 q 42 740 69 713 q 21 808 14 769 q 54 872 28 846 l 221 1039 q 287 1066 249 1067 q 356 1039 325 1065 l 536 872 q 570 806 564 844 q 549 739 576 767 q 483 712 522 713 q 417 739 444 711 l 288 854 l 172 739 z "},"ï":{"ha":503,"x_min":24,"x_max":481,"o":"m 251 669 q 312 643 288 669 q 339 579 336 617 l 339 88 q 315 25 339 50 q 251 -3 292 0 q 190 19 215 -3 q 160 82 165 42 l 160 585 q 189 644 163 621 q 251 669 215 668 m 213 872 q 185 806 213 833 q 117 778 157 778 q 51 806 78 778 q 24 872 24 833 q 51 939 24 911 q 117 967 78 967 q 185 939 157 967 q 213 872 213 911 m 481 872 q 453 806 481 833 q 385 778 425 778 q 319 806 346 778 q 292 872 292 833 q 319 939 292 911 q 385 967 346 967 q 453 939 425 967 q 481 872 481 911 z "},"ò":{"ha":728,"x_min":33,"x_max":706,"o":"m 369 674 q 499 647 438 674 q 606 575 560 621 q 678 468 651 529 q 706 336 706 407 q 679 206 706 267 q 608 100 653 146 q 501 28 563 54 q 369 1 440 1 q 239 26 300 1 q 132 97 178 51 q 60 203 86 142 q 33 336 33 264 q 59 466 33 406 q 130 572 85 526 q 237 644 175 617 q 369 674 299 671 m 369 492 q 310 480 338 492 q 260 447 282 468 q 226 398 239 426 q 214 336 214 369 q 226 276 214 304 q 260 226 239 247 q 310 192 282 204 q 369 179 338 179 q 430 192 401 179 q 479 226 458 204 q 513 276 500 247 q 525 336 525 304 q 479 444 522 400 q 369 492 436 489 m 168 913 q 212 969 178 950 q 281 978 246 988 l 449 933 q 506 890 488 922 q 515 819 525 857 q 472 760 506 781 q 400 750 438 740 l 233 796 q 177 839 196 806 q 168 913 158 872 z "},"ó":{"ha":728,"x_min":33,"x_max":706,"o":"m 369 674 q 499 647 438 674 q 606 575 560 621 q 678 468 651 529 q 706 336 706 407 q 679 206 706 267 q 608 100 653 146 q 501 28 563 54 q 369 1 440 1 q 239 26 300 1 q 132 97 178 51 q 60 203 86 142 q 33 336 33 264 q 59 466 33 406 q 130 572 85 526 q 237 644 175 617 q 369 674 299 671 m 369 492 q 310 480 338 492 q 260 447 282 468 q 226 398 239 426 q 214 336 214 369 q 226 276 214 304 q 260 226 239 247 q 310 192 282 204 q 369 179 338 179 q 430 192 401 179 q 479 226 458 204 q 513 276 500 247 q 525 336 525 304 q 479 444 522 400 q 369 492 436 489 m 574 917 q 565 843 583 876 q 508 800 546 810 l 342 754 q 270 765 304 744 q 226 824 236 785 q 235 894 217 861 q 293 938 254 926 l 461 982 q 530 973 496 992 q 574 917 564 954 z "},"ô":{"ha":728,"x_min":33,"x_max":706,"o":"m 369 674 q 499 647 438 674 q 606 575 560 621 q 678 468 651 529 q 706 336 706 407 q 679 206 706 267 q 608 100 653 146 q 501 28 563 54 q 369 1 440 1 q 239 26 300 1 q 132 97 178 51 q 60 203 86 142 q 33 336 33 264 q 59 466 33 406 q 130 572 85 526 q 237 644 175 617 q 369 674 299 671 m 369 492 q 310 480 338 492 q 260 447 282 468 q 226 398 239 426 q 214 336 214 369 q 226 276 214 304 q 260 226 239 247 q 310 192 282 204 q 369 179 338 179 q 430 192 401 179 q 479 226 458 204 q 513 276 500 247 q 525 336 525 304 q 479 444 522 400 q 369 492 436 489 m 251 742 q 187 715 225 715 q 121 743 149 715 q 100 810 93 772 q 133 875 107 849 l 300 1042 q 366 1069 328 1069 q 435 1042 404 1068 l 615 875 q 649 808 643 847 q 628 742 656 769 q 563 715 601 715 q 496 742 524 714 l 367 857 l 251 742 z "},"õ":{"ha":728,"x_min":33,"x_max":706,"o":"m 369 674 q 499 647 438 674 q 606 575 560 621 q 678 468 651 529 q 706 336 706 407 q 679 206 706 267 q 608 100 653 146 q 501 28 563 54 q 369 1 440 1 q 239 26 300 1 q 132 97 178 51 q 60 203 86 142 q 33 336 33 264 q 59 466 33 406 q 130 572 85 526 q 237 644 175 617 q 369 674 299 671 m 369 492 q 310 480 338 492 q 260 447 282 468 q 226 398 239 426 q 214 336 214 369 q 226 276 214 304 q 260 226 239 247 q 310 192 282 204 q 369 179 338 179 q 430 192 401 179 q 479 226 458 204 q 513 276 500 247 q 525 336 525 304 q 479 444 522 400 q 369 492 436 489 m 381 978 l 449 940 q 483 928 471 925 q 514 954 496 932 q 565 999 532 985 q 633 992 597 1013 q 680 935 668 972 q 667 856 692 897 q 609 787 642 813 q 532 751 576 761 q 436 752 488 742 q 358 779 385 763 l 289 817 q 251 824 268 831 q 225 801 235 818 q 173 758 206 772 q 104 765 140 744 q 58 822 69 785 q 71 901 47 860 q 128 969 96 944 q 206 1005 161 994 q 299 1006 250 1015 q 381 978 349 996 z "},"ö":{"ha":728,"x_min":33,"x_max":706,"o":"m 369 674 q 499 647 438 674 q 606 575 560 621 q 678 468 651 529 q 706 336 706 407 q 679 206 706 267 q 608 100 653 146 q 501 28 563 54 q 369 1 440 1 q 239 26 300 1 q 132 97 178 51 q 60 203 86 142 q 33 336 33 264 q 59 466 33 406 q 130 572 85 526 q 237 644 175 617 q 369 674 299 671 m 369 492 q 310 480 338 492 q 260 447 282 468 q 226 398 239 426 q 214 336 214 369 q 226 276 214 304 q 260 226 239 247 q 310 192 282 204 q 369 179 338 179 q 430 192 401 179 q 479 226 458 204 q 513 276 500 247 q 525 336 525 304 q 479 444 522 400 q 369 492 436 489 m 332 872 q 304 806 332 833 q 236 778 276 778 q 170 806 197 778 q 143 872 143 833 q 170 939 143 911 q 236 967 197 967 q 304 939 276 967 q 332 872 332 911 m 600 872 q 572 806 600 833 q 504 778 544 778 q 438 806 465 778 q 411 872 411 833 q 438 939 411 911 q 504 967 465 967 q 572 939 544 967 q 600 872 600 911 z "},"ù":{"ha":731,"x_min":40,"x_max":715,"o":"m 131 674 q 194 647 167 674 q 222 581 222 619 l 222 336 q 235 276 222 304 q 268 226 247 247 q 317 193 289 206 q 378 181 346 181 q 436 192 408 181 q 485 222 464 203 q 519 269 507 242 q 532 329 532 297 l 532 582 q 558 644 532 617 q 622 674 585 672 q 687 647 660 674 q 715 586 714 619 l 715 336 q 689 206 715 267 q 617 99 663 144 q 510 26 571 53 q 378 0 449 0 q 250 23 311 -3 q 142 94 189 49 q 68 199 96 139 q 40 326 40 260 l 40 582 q 66 645 40 618 q 131 674 92 672 m 175 913 q 219 969 185 950 q 288 978 253 988 l 456 933 q 513 890 494 922 q 522 819 532 857 q 478 760 513 781 q 407 750 444 740 l 240 796 q 184 839 203 806 q 175 913 165 872 z "},"ú":{"ha":731,"x_min":40,"x_max":715,"o":"m 131 674 q 194 647 167 674 q 222 581 222 619 l 222 336 q 235 276 222 304 q 268 226 247 247 q 317 193 289 206 q 378 181 346 181 q 436 192 408 181 q 485 222 464 203 q 519 269 507 242 q 532 329 532 297 l 532 582 q 558 644 532 617 q 622 674 585 672 q 687 647 660 674 q 715 586 714 619 l 715 336 q 689 206 715 267 q 617 99 663 144 q 510 26 571 53 q 378 0 449 0 q 250 23 311 -3 q 142 94 189 49 q 68 199 96 139 q 40 326 40 260 l 40 582 q 66 645 40 618 q 131 674 92 672 m 579 913 q 570 839 589 872 q 514 796 551 806 l 347 750 q 276 760 310 740 q 232 819 242 781 q 241 890 222 857 q 299 933 260 922 l 467 978 q 535 969 501 988 q 579 913 569 950 z "},"û":{"ha":731,"x_min":40,"x_max":715,"o":"m 131 674 q 194 647 167 674 q 222 581 222 619 l 222 336 q 235 276 222 304 q 268 226 247 247 q 317 193 289 206 q 378 181 346 181 q 436 192 408 181 q 485 222 464 203 q 519 269 507 242 q 532 329 532 297 l 532 582 q 558 644 532 617 q 622 674 585 672 q 687 647 660 674 q 715 586 714 619 l 715 336 q 689 206 715 267 q 617 99 663 144 q 510 26 571 53 q 378 0 449 0 q 250 23 311 -3 q 142 94 189 49 q 68 199 96 139 q 40 326 40 260 l 40 582 q 66 645 40 618 q 131 674 92 672 m 258 742 q 194 715 232 715 q 128 743 156 715 q 107 810 100 772 q 140 875 114 849 l 307 1042 q 373 1069 335 1069 q 442 1042 411 1068 l 622 875 q 656 808 650 847 q 635 742 663 769 q 569 715 608 715 q 503 742 531 714 l 374 857 l 258 742 z "},"ü":{"ha":731,"x_min":40,"x_max":715,"o":"m 131 674 q 194 647 167 674 q 222 581 222 619 l 222 336 q 235 276 222 304 q 268 226 247 247 q 317 193 289 206 q 378 181 346 181 q 436 192 408 181 q 485 222 464 203 q 519 269 507 242 q 532 329 532 297 l 532 582 q 558 644 532 617 q 622 674 585 672 q 687 647 660 674 q 715 586 714 619 l 715 336 q 689 206 715 267 q 617 99 663 144 q 510 26 571 53 q 378 0 449 0 q 250 23 311 -3 q 142 94 189 49 q 68 199 96 139 q 40 326 40 260 l 40 582 q 66 645 40 618 q 131 674 92 672 m 340 871 q 313 804 340 832 q 244 776 285 776 q 178 804 206 776 q 151 871 151 832 q 178 938 151 910 q 244 965 206 965 q 313 938 285 965 q 340 871 340 910 m 608 871 q 581 804 608 832 q 513 776 553 776 q 447 804 474 776 q 419 871 419 832 q 447 938 419 910 q 513 965 474 965 q 581 938 553 965 q 608 871 608 910 z "},"ý":{"ha":731,"x_min":19,"x_max":694,"o":"m 110 674 q 173 650 144 674 q 201 589 201 626 l 201 338 q 213 278 201 306 q 246 229 225 250 q 295 196 267 208 q 357 183 324 183 q 415 194 386 183 q 465 225 443 206 q 499 272 486 244 q 513 331 513 299 l 513 585 q 538 647 513 621 q 603 674 564 674 q 667 649 639 674 q 694 589 694 625 l 694 -125 q 667 -186 694 -161 q 603 -211 639 -211 q 540 -186 568 -211 q 513 -121 513 -161 l 513 39 q 440 10 481 19 q 357 1 399 1 q 228 28 289 1 q 120 100 167 54 q 47 209 74 146 q 19 347 19 272 l 19 585 q 45 647 19 621 q 110 674 71 674 m 561 913 q 552 839 571 872 q 496 796 533 806 l 329 750 q 258 760 292 740 q 214 819 224 781 q 223 890 204 857 q 281 933 242 922 l 449 978 q 517 969 483 988 q 561 913 551 950 z "},"ÿ":{"ha":731,"x_min":19,"x_max":694,"o":"m 110 674 q 173 650 144 674 q 201 589 201 626 l 201 338 q 213 278 201 306 q 246 229 225 250 q 295 196 267 208 q 357 183 324 183 q 415 194 386 183 q 465 225 443 206 q 499 272 486 244 q 513 331 513 299 l 513 585 q 538 647 513 621 q 603 674 564 674 q 667 649 639 674 q 694 589 694 625 l 694 -125 q 667 -186 694 -161 q 603 -211 639 -211 q 540 -186 568 -211 q 513 -121 513 -161 l 513 39 q 440 10 481 19 q 357 1 399 1 q 228 28 289 1 q 120 100 167 54 q 47 209 74 146 q 19 347 19 272 l 19 585 q 45 647 19 621 q 110 674 71 674 m 321 871 q 293 804 321 832 q 225 776 265 776 q 159 804 186 776 q 132 871 132 832 q 159 938 132 910 q 225 965 186 965 q 293 938 265 965 q 321 871 321 910 m 589 871 q 561 804 589 832 q 493 776 533 776 q 427 804 454 776 q 400 871 400 832 q 427 938 400 910 q 493 965 454 965 q 561 938 533 965 q 589 871 589 910 z "},"C":{"ha":719,"x_min":38,"x_max":686,"o":"m 593 303 q 658 276 631 303 q 686 208 686 249 q 681 182 686 194 q 669 156 676 169 q 556 42 629 85 q 389 0 482 0 l 376 0 q 246 24 307 0 q 139 92 185 49 q 65 196 93 136 q 38 325 38 256 l 38 551 q 63 682 38 621 q 134 789 89 743 q 240 861 179 835 q 376 888 301 888 q 449 881 417 888 q 554 843 506 871 q 671 726 628 801 q 681 703 676 717 q 686 676 686 689 q 658 610 686 638 q 592 582 631 582 q 542 598 561 582 q 507 638 522 614 q 461 682 490 665 q 400 706 438 696 q 375 707 389 707 q 314 695 342 707 q 265 664 286 683 q 232 617 244 644 q 219 558 219 589 l 219 336 q 230 276 218 304 q 263 226 242 247 q 313 193 285 206 q 378 181 342 181 l 394 181 q 461 204 436 189 q 507 249 489 221 q 539 288 522 272 q 593 303 556 303 z "},"D":{"ha":753,"x_min":49,"x_max":714,"o":"m 397 888 q 516 863 458 888 q 617 796 574 839 q 688 696 661 753 q 714 572 714 639 l 714 315 q 688 196 714 253 q 619 95 663 139 q 519 26 576 51 q 397 0 461 0 l 143 0 q 77 27 106 0 q 49 94 49 54 l 49 793 q 76 858 49 829 q 143 888 103 888 l 397 888 m 236 699 l 236 189 l 397 189 q 447 199 424 189 q 488 226 471 208 q 515 266 506 243 q 525 315 525 289 l 525 572 q 515 622 525 599 q 488 662 506 644 q 447 689 471 679 q 397 699 424 699 l 236 699 z "},"E":{"ha":678,"x_min":49,"x_max":632,"o":"m 539 188 q 605 160 578 188 q 632 94 632 132 q 605 27 632 54 q 539 0 578 0 l 142 0 q 77 27 106 0 q 49 94 49 54 l 49 793 q 75 858 49 829 q 142 888 101 888 l 539 888 q 605 860 578 888 q 632 793 632 832 q 605 726 632 753 q 539 700 578 700 l 233 700 l 233 542 l 446 542 q 511 514 483 542 q 539 447 539 486 q 511 381 539 408 q 446 354 483 354 l 233 354 l 233 188 l 539 188 z "},"F":{"ha":643,"x_min":49,"x_max":633,"o":"m 238 700 l 238 493 l 447 493 q 514 465 488 493 q 540 399 540 438 q 514 333 540 360 q 447 306 488 306 l 238 306 l 238 94 q 210 27 238 54 q 143 0 183 0 q 76 27 103 0 q 49 94 49 54 l 49 793 q 76 858 49 829 q 143 888 103 888 l 540 888 q 606 860 579 888 q 633 793 633 832 q 606 726 633 753 q 540 700 579 700 l 238 700 z "},"H":{"ha":776,"x_min":49,"x_max":728,"o":"m 632 886 q 698 860 668 886 q 728 793 728 833 l 728 93 q 720 58 728 75 q 699 28 713 42 q 667 8 685 15 q 632 0 650 0 q 571 27 599 0 q 543 93 543 54 l 543 321 l 240 321 l 240 93 q 213 27 240 54 q 147 0 186 0 q 77 26 104 0 q 49 93 50 53 l 49 793 q 78 861 49 836 q 147 886 108 886 q 213 858 186 886 q 240 793 240 831 l 240 510 l 543 510 l 543 793 q 571 858 543 831 q 632 886 599 886 z "},"I":{"ha":283,"x_min":47,"x_max":233,"o":"m 142 886 q 206 858 179 886 q 233 793 233 831 l 233 93 q 206 27 233 54 q 142 0 179 0 q 74 27 101 0 q 47 93 47 54 l 47 793 q 74 858 47 831 q 142 886 101 886 z "},"J":{"ha":460,"x_min":11,"x_max":419,"o":"m 324 886 q 392 858 364 886 q 419 793 419 831 l 419 315 q 394 192 418 249 q 327 94 369 136 q 227 26 285 51 q 103 0 169 1 q 38 26 65 0 q 11 93 11 53 q 38 160 11 132 q 103 188 65 188 q 153 197 129 188 q 195 224 178 207 q 223 265 213 242 q 233 315 233 289 l 233 793 q 260 858 233 831 q 324 886 286 886 z "},"K":{"ha":768,"x_min":49,"x_max":722,"o":"m 694 158 q 722 92 722 131 q 694 25 722 54 q 628 -1 667 -1 q 561 25 590 -1 l 238 311 l 238 93 q 210 27 238 54 q 143 0 183 0 q 76 27 104 0 q 49 93 49 54 l 49 793 q 76 858 49 831 q 143 886 104 886 q 210 858 183 886 q 238 793 238 831 l 238 575 l 561 858 q 628 886 590 886 q 694 858 667 886 q 722 792 722 831 q 694 726 722 754 l 369 443 l 694 158 z "},"L":{"ha":671,"x_min":49,"x_max":664,"o":"m 572 189 q 637 162 610 189 q 664 96 664 135 q 637 28 664 56 q 572 1 610 1 l 144 1 q 78 28 104 1 q 49 96 51 56 l 49 794 q 76 860 49 833 q 144 888 104 888 q 209 860 181 888 q 238 794 238 833 l 238 189 l 572 189 z "},"M":{"ha":1028,"x_min":46,"x_max":982,"o":"m 701 888 q 808 865 758 888 q 896 804 858 843 q 956 715 933 765 q 982 606 979 664 l 982 94 q 954 27 982 54 q 889 0 926 0 q 822 27 849 0 q 794 94 794 54 l 794 594 q 767 662 794 635 q 701 689 740 689 q 635 662 663 689 q 607 594 607 635 l 607 94 q 580 27 607 54 q 514 0 553 0 q 448 27 475 0 q 421 94 421 54 l 421 594 q 394 662 421 635 q 326 689 367 689 q 260 662 288 689 q 233 594 233 635 l 233 94 q 206 27 233 54 q 139 0 179 0 q 73 27 100 0 q 46 94 46 54 l 46 606 q 67 711 46 660 q 127 801 89 763 q 217 864 165 840 q 326 888 268 888 q 426 868 379 888 q 514 815 472 849 q 601 867 554 847 q 701 888 647 888 z "},"N":{"ha":760,"x_min":43,"x_max":717,"o":"m 381 883 q 508 859 447 883 q 615 791 569 835 q 689 688 661 747 q 717 558 717 628 l 717 90 q 691 28 717 54 q 628 0 665 1 q 563 24 590 0 q 536 86 536 49 l 536 547 q 524 608 536 579 q 491 657 513 636 q 441 690 469 678 q 379 703 413 703 q 321 691 349 703 q 272 660 293 679 q 239 613 251 640 q 226 554 226 585 l 226 90 q 199 27 226 54 q 135 0 171 0 q 71 25 99 0 q 43 86 43 50 l 43 547 q 70 678 44 617 q 141 785 96 739 q 247 857 186 831 q 381 883 308 883 z "},"R":{"ha":757,"x_min":47,"x_max":721,"o":"m 346 215 l 233 215 l 233 93 q 206 27 233 54 q 140 0 179 0 q 74 27 101 0 q 47 93 47 54 l 47 797 q 74 863 47 836 q 140 890 101 890 l 383 890 q 515 864 453 890 q 622 792 576 838 q 694 684 668 746 q 721 553 721 622 q 677 385 721 461 q 561 265 633 310 l 667 163 q 693 96 693 135 q 665 29 693 57 q 601 1 640 1 q 535 29 563 1 l 346 215 m 535 553 q 523 611 535 583 q 490 660 511 639 q 442 692 469 681 q 383 704 414 704 l 233 704 l 233 401 l 383 401 q 442 413 414 401 q 490 446 469 425 q 523 494 511 467 q 535 553 535 521 z "},"S":{"ha":704,"x_min":38,"x_max":667,"o":"m 306 700 q 249 676 272 700 q 225 615 226 651 q 249 560 226 583 q 306 538 272 538 l 400 538 q 499 517 451 538 q 585 459 547 496 q 644 373 622 422 q 667 268 667 324 q 646 165 667 214 q 589 81 625 117 q 504 23 553 44 q 400 0 456 1 l 153 0 q 85 27 111 0 q 58 94 58 54 q 85 160 58 132 q 153 188 113 188 l 400 188 q 457 211 432 188 q 482 268 482 235 q 458 326 482 303 q 401 350 433 349 l 306 350 q 204 372 253 351 q 119 428 156 393 q 60 513 82 464 q 38 618 38 561 q 58 718 38 669 q 116 804 79 767 q 201 865 153 842 q 306 888 250 888 l 553 888 q 617 860 590 888 q 646 793 643 833 q 619 726 646 753 q 553 700 593 700 l 306 700 z "},"T":{"ha":728,"x_min":21,"x_max":707,"o":"m 613 888 q 680 860 653 888 q 707 793 707 832 q 680 726 707 753 q 613 700 653 700 l 457 700 l 457 94 q 431 27 457 54 q 364 0 404 0 q 297 27 324 0 q 271 94 271 54 l 271 700 l 114 700 q 48 726 75 700 q 21 793 21 753 q 48 860 21 832 q 114 888 75 888 l 613 888 z "},"U":{"ha":760,"x_min":43,"x_max":717,"o":"m 381 4 q 247 31 308 4 q 141 103 186 57 q 70 210 96 149 q 43 340 44 271 l 43 801 q 71 863 43 838 q 135 888 99 888 q 199 860 171 888 q 226 797 226 833 l 226 333 q 239 275 226 303 q 272 228 251 247 q 321 197 293 208 q 379 185 349 185 q 441 197 413 185 q 491 231 469 210 q 524 280 513 251 q 536 340 536 308 l 536 801 q 563 863 536 839 q 628 888 590 888 q 691 860 665 886 q 717 797 717 833 l 717 329 q 689 200 717 260 q 615 97 661 140 q 508 28 569 53 q 381 4 447 4 z "},"V":{"ha":821,"x_min":21,"x_max":800,"o":"m 500 61 q 465 17 489 33 q 413 0 440 0 q 361 18 386 0 q 325 61 336 36 l 35 760 q 37 831 21 796 q 89 882 53 867 q 160 880 125 896 q 210 826 196 864 l 413 351 l 613 826 q 662 880 626 864 q 733 882 697 896 q 785 831 769 867 q 786 760 800 796 l 500 61 z "},"W":{"ha":1028,"x_min":46,"x_max":982,"o":"m 325 0 q 217 22 267 0 q 131 81 168 43 q 72 171 94 119 q 46 282 50 222 l 46 793 q 72 860 46 832 q 138 888 99 888 q 204 860 178 888 q 231 793 231 832 l 231 292 q 259 226 231 253 q 325 199 288 199 q 391 226 363 199 q 419 292 419 253 l 419 794 q 447 861 419 833 q 514 889 474 889 q 580 861 553 889 q 607 794 607 833 l 607 292 q 634 226 607 253 q 699 199 661 199 q 766 226 739 199 q 793 292 793 253 l 793 793 q 821 860 793 832 q 888 888 849 888 q 953 860 925 888 q 982 793 982 832 l 982 282 q 958 174 981 225 q 898 85 936 124 q 808 23 860 46 q 699 0 757 0 q 600 18 649 0 q 514 72 551 36 q 427 20 474 39 q 325 0 381 1 z "},"X":{"ha":768,"x_min":40,"x_max":728,"o":"m 704 149 q 719 78 726 117 q 681 17 713 39 q 610 1 649 -7 q 549 40 572 8 l 385 278 l 218 40 q 158 1 196 8 q 88 17 119 -7 q 61 44 71 28 q 48 78 51 60 q 49 114 44 96 q 64 149 53 132 l 268 443 l 64 739 q 48 809 40 771 q 88 871 56 847 q 158 886 119 893 q 218 847 196 879 l 385 610 l 549 847 q 610 886 572 879 q 681 871 649 893 q 720 809 713 847 q 704 739 728 771 l 500 443 l 704 149 z "},"Y":{"ha":690,"x_min":25,"x_max":665,"o":"m 25 671 l 25 794 q 52 860 25 833 q 117 888 79 888 q 184 860 157 888 q 211 794 211 833 l 211 671 q 249 576 211 614 q 344 538 288 538 q 440 576 401 538 q 479 671 479 614 l 479 794 q 506 860 479 833 q 571 888 533 888 q 638 860 611 888 q 665 794 665 833 l 665 671 l 665 669 q 648 566 665 615 q 600 476 631 517 q 527 407 569 436 q 435 364 485 378 l 435 93 q 408 27 435 54 q 343 0 381 0 q 276 27 303 0 q 249 93 249 54 l 249 365 q 159 410 200 381 q 88 479 118 439 q 42 568 58 519 q 25 671 25 617 z "},"Z":{"ha":769,"x_min":46,"x_max":724,"o":"m 631 188 q 697 160 671 188 q 724 94 724 132 q 697 27 724 54 q 631 0 671 0 l 142 0 q 93 15 114 1 q 61 49 72 28 q 50 94 50 69 q 64 144 50 119 l 65 146 l 446 700 l 139 700 q 74 726 101 700 q 46 793 46 753 q 74 860 46 832 q 139 888 101 888 l 628 888 q 676 872 654 886 q 709 837 697 858 q 721 790 721 815 q 706 739 721 764 l 322 188 l 631 188 z "},"À":{"ha":729,"x_min":43,"x_max":717,"o":"m 381 888 q 508 863 447 888 q 615 795 569 839 q 689 692 661 751 q 717 563 717 632 l 717 94 q 691 32 717 58 q 628 4 665 6 q 563 28 590 4 q 536 90 536 53 l 536 253 l 226 253 l 226 94 q 199 31 226 58 q 135 4 171 4 q 71 29 99 4 q 43 90 43 54 l 43 551 q 70 682 44 621 q 141 789 96 743 q 247 861 186 835 q 381 888 308 888 m 536 551 q 524 612 536 583 q 491 661 513 640 q 441 694 469 682 q 379 707 413 707 q 321 695 349 707 q 272 664 293 683 q 239 617 251 644 q 226 558 226 589 l 226 433 l 536 433 l 536 551 m 114 1135 q 158 1191 124 1172 q 226 1200 192 1210 l 394 1156 q 452 1112 433 1144 q 461 1042 471 1079 q 417 983 451 1003 q 346 972 383 963 l 179 1018 q 123 1061 142 1028 q 114 1135 104 1094 z "},"Á":{"ha":729,"x_min":43,"x_max":717,"o":"m 381 888 q 508 863 447 888 q 615 795 569 839 q 689 692 661 751 q 717 563 717 632 l 717 94 q 691 32 717 58 q 628 4 665 6 q 563 28 590 4 q 536 90 536 53 l 536 253 l 226 253 l 226 94 q 199 31 226 58 q 135 4 171 4 q 71 29 99 4 q 43 90 43 54 l 43 551 q 70 682 44 621 q 141 789 96 743 q 247 861 186 835 q 381 888 308 888 m 536 551 q 524 612 536 583 q 491 661 513 640 q 441 694 469 682 q 379 707 413 707 q 321 695 349 707 q 272 664 293 683 q 239 617 251 644 q 226 558 226 589 l 226 433 l 536 433 l 536 551 m 628 1135 q 619 1061 638 1094 q 563 1018 600 1028 l 396 972 q 324 983 358 963 q 281 1042 290 1003 q 290 1112 271 1079 q 347 1156 308 1144 l 515 1200 q 584 1191 550 1210 q 628 1135 618 1172 z "},"Â":{"ha":729,"x_min":43,"x_max":717,"o":"m 381 888 q 508 863 447 888 q 615 795 569 839 q 689 692 661 751 q 717 563 717 632 l 717 94 q 691 32 717 58 q 628 4 665 6 q 563 28 590 4 q 536 90 536 53 l 536 253 l 226 253 l 226 94 q 199 31 226 58 q 135 4 171 4 q 71 29 99 4 q 43 90 43 54 l 43 551 q 70 682 44 621 q 141 789 96 743 q 247 861 186 835 q 381 888 308 888 m 536 551 q 524 612 536 583 q 491 661 513 640 q 441 694 469 682 q 379 707 413 707 q 321 695 349 707 q 272 664 293 683 q 239 617 251 644 q 226 558 226 589 l 226 433 l 536 433 l 536 551 m 258 958 q 194 932 232 932 q 128 960 156 932 q 107 1027 100 989 q 140 1092 114 1065 l 307 1258 q 373 1285 335 1286 q 442 1258 411 1285 l 622 1092 q 656 1025 650 1064 q 635 958 663 986 q 569 931 608 932 q 503 958 531 931 l 374 1074 l 258 958 z "},"Ã":{"ha":729,"x_min":43,"x_max":717,"o":"m 381 888 q 508 863 447 888 q 615 795 569 839 q 689 692 661 751 q 717 563 717 632 l 717 94 q 691 32 717 58 q 628 4 665 6 q 563 28 590 4 q 536 90 536 53 l 536 253 l 226 253 l 226 94 q 199 31 226 58 q 135 4 171 4 q 71 29 99 4 q 43 90 43 54 l 43 551 q 70 682 44 621 q 141 789 96 743 q 247 861 186 835 q 381 888 308 888 m 536 551 q 524 612 536 583 q 491 661 513 640 q 441 694 469 682 q 379 707 413 707 q 321 695 349 707 q 272 664 293 683 q 239 617 251 644 q 226 558 226 589 l 226 433 l 536 433 l 536 551 m 392 1197 l 460 1160 q 494 1148 482 1144 q 525 1174 507 1151 q 576 1218 543 1204 q 644 1211 608 1232 q 691 1154 679 1192 q 678 1075 703 1117 q 620 1006 653 1032 q 543 971 588 981 q 447 972 499 961 q 369 999 396 982 l 300 1036 q 263 1044 279 1050 q 236 1021 246 1038 q 184 978 217 992 q 115 985 151 964 q 69 1042 81 1004 q 82 1121 58 1079 q 140 1189 107 1164 q 217 1224 172 1214 q 310 1225 261 1235 q 392 1197 360 1215 z "},"Ä":{"ha":729,"x_min":43,"x_max":717,"o":"m 381 888 q 508 863 447 888 q 615 795 569 839 q 689 692 661 751 q 717 563 717 632 l 717 94 q 691 32 717 58 q 628 4 665 6 q 563 28 590 4 q 536 90 536 53 l 536 253 l 226 253 l 226 94 q 199 31 226 58 q 135 4 171 4 q 71 29 99 4 q 43 90 43 54 l 43 551 q 70 682 44 621 q 141 789 96 743 q 247 861 186 835 q 381 888 308 888 m 536 551 q 524 612 536 583 q 491 661 513 640 q 441 694 469 682 q 379 707 413 707 q 321 695 349 707 q 272 664 293 683 q 239 617 251 644 q 226 558 226 589 l 226 433 l 536 433 l 536 551 m 343 1090 q 315 1024 343 1051 q 247 996 288 996 q 181 1024 208 996 q 154 1090 154 1051 q 181 1157 154 1129 q 247 1185 208 1185 q 315 1157 288 1185 q 343 1090 343 1129 m 611 1090 q 583 1024 611 1051 q 515 996 556 996 q 449 1024 476 996 q 422 1090 422 1051 q 449 1157 422 1129 q 515 1185 476 1185 q 583 1157 556 1185 q 611 1090 611 1129 z "},"È":{"ha":639,"x_min":49,"x_max":632,"o":"m 539 188 q 605 160 578 188 q 632 94 632 132 q 605 27 632 54 q 539 0 578 0 l 142 0 q 77 27 106 0 q 49 94 49 54 l 49 793 q 75 858 49 829 q 142 888 101 888 l 539 888 q 605 860 578 888 q 632 793 632 832 q 605 726 632 753 q 539 700 578 700 l 233 700 l 233 542 l 446 542 q 511 514 483 542 q 539 447 539 486 q 511 381 539 408 q 446 354 483 354 l 233 354 l 233 188 l 539 188 m 75 1135 q 119 1191 85 1172 q 188 1200 153 1210 l 356 1156 q 413 1112 394 1144 q 422 1042 432 1079 q 378 983 413 1003 q 307 972 344 963 l 140 1018 q 84 1061 103 1028 q 75 1135 65 1094 z "},"É":{"ha":639,"x_min":49,"x_max":632,"o":"m 539 188 q 605 160 578 188 q 632 94 632 132 q 605 27 632 54 q 539 0 578 0 l 142 0 q 77 27 106 0 q 49 94 49 54 l 49 793 q 75 858 49 829 q 142 888 101 888 l 539 888 q 605 860 578 888 q 632 793 632 832 q 605 726 632 753 q 539 700 578 700 l 233 700 l 233 542 l 446 542 q 511 514 483 542 q 539 447 539 486 q 511 381 539 408 q 446 354 483 354 l 233 354 l 233 188 l 539 188 m 608 1133 q 599 1060 618 1093 q 543 1017 581 1026 l 376 971 q 305 981 339 961 q 261 1040 271 1001 q 270 1110 251 1078 q 328 1154 289 1143 l 496 1199 q 565 1190 531 1208 q 608 1133 599 1171 z "},"Ê":{"ha":639,"x_min":36,"x_max":632,"o":"m 539 188 q 605 160 578 188 q 632 94 632 132 q 605 27 632 54 q 539 0 578 0 l 142 0 q 77 27 106 0 q 49 94 49 54 l 49 793 q 75 858 49 829 q 142 888 101 888 l 539 888 q 605 860 578 888 q 632 793 632 832 q 605 726 632 753 q 539 700 578 700 l 233 700 l 233 542 l 446 542 q 511 514 483 542 q 539 447 539 486 q 511 381 539 408 q 446 354 483 354 l 233 354 l 233 188 l 539 188 m 194 958 q 130 932 168 932 q 64 960 92 932 q 43 1027 36 989 q 76 1092 50 1065 l 243 1258 q 309 1285 271 1286 q 378 1258 347 1285 l 558 1092 q 592 1025 586 1064 q 571 958 599 986 q 506 931 544 932 q 439 958 467 931 l 310 1074 l 194 958 z "},"Ë":{"ha":639,"x_min":49,"x_max":632,"o":"m 539 188 q 605 160 578 188 q 632 94 632 132 q 605 27 632 54 q 539 0 578 0 l 142 0 q 77 27 106 0 q 49 94 49 54 l 49 793 q 75 858 49 829 q 142 888 101 888 l 539 888 q 605 860 578 888 q 632 793 632 832 q 605 726 632 753 q 539 700 578 700 l 233 700 l 233 542 l 446 542 q 511 514 483 542 q 539 447 539 486 q 511 381 539 408 q 446 354 483 354 l 233 354 l 233 188 l 539 188 m 303 1093 q 275 1026 303 1054 q 207 999 247 999 q 141 1026 168 999 q 114 1093 114 1054 q 141 1160 114 1132 q 207 1188 168 1188 q 275 1160 247 1188 q 303 1093 303 1132 m 571 1093 q 543 1026 571 1054 q 475 999 515 999 q 409 1026 436 999 q 382 1093 382 1054 q 409 1160 382 1132 q 475 1188 436 1188 q 543 1160 515 1188 q 571 1093 571 1132 z "},"Ì":{"ha":368,"x_min":-39,"x_max":328,"o":"m 197 886 q 262 858 235 886 q 289 793 289 831 l 289 93 q 262 27 289 54 q 197 0 235 0 q 130 27 157 0 q 103 93 103 54 l 103 793 q 130 858 103 831 q 197 886 157 886 m -29 1132 q 15 1188 -19 1169 q 83 1197 49 1207 l 251 1153 q 309 1109 290 1142 q 318 1039 328 1076 q 274 980 308 1000 q 203 969 240 960 l 36 1015 q -20 1058 -1 1025 q -29 1132 -39 1092 z "},"Í":{"ha":368,"x_min":68,"x_max":435,"o":"m 200 886 q 265 858 238 886 q 292 793 292 831 l 292 93 q 265 27 292 54 q 200 0 238 0 q 133 27 160 0 q 106 93 106 54 l 106 793 q 133 858 106 831 q 200 886 160 886 m 425 1132 q 416 1058 435 1092 q 360 1015 397 1025 l 193 969 q 122 980 156 960 q 78 1039 88 1000 q 87 1109 68 1076 q 144 1153 106 1142 l 313 1197 q 381 1188 347 1207 q 425 1132 415 1169 z "},"Î":{"ha":479,"x_min":-26,"x_max":536,"o":"m 254 886 q 319 858 292 886 q 346 793 346 831 l 346 93 q 319 27 346 54 q 254 0 292 0 q 187 27 214 0 q 160 93 160 54 l 160 793 q 187 858 160 831 q 254 886 214 886 m 132 958 q 67 932 106 932 q 1 960 29 932 q -19 1027 -26 989 q 14 1092 -12 1065 l 181 1258 q 247 1285 208 1286 q 315 1258 285 1285 l 496 1092 q 530 1025 524 1064 q 508 958 536 986 q 443 931 482 932 q 376 958 404 931 l 247 1074 l 132 958 z "},"Ï":{"ha":513,"x_min":43,"x_max":500,"o":"m 271 886 q 335 858 308 886 q 363 793 363 831 l 363 93 q 335 27 363 54 q 271 0 308 0 q 203 27 231 0 q 176 93 176 54 l 176 793 q 203 858 176 831 q 271 886 231 886 m 232 1092 q 204 1025 232 1053 q 136 997 176 997 q 70 1025 97 997 q 43 1092 43 1053 q 70 1158 43 1131 q 136 1186 97 1186 q 204 1158 176 1186 q 232 1092 232 1131 m 500 1092 q 472 1025 500 1053 q 404 997 444 997 q 338 1025 365 997 q 311 1092 311 1053 q 338 1158 311 1131 q 404 1186 365 1186 q 472 1158 444 1186 q 500 1092 500 1131 z "},"Ù":{"ha":729,"x_min":43,"x_max":717,"o":"m 381 4 q 247 31 308 4 q 141 103 186 57 q 70 210 96 149 q 43 340 44 271 l 43 801 q 71 863 43 838 q 135 888 99 888 q 199 860 171 888 q 226 797 226 833 l 226 333 q 239 275 226 303 q 272 228 251 247 q 321 197 293 208 q 379 185 349 185 q 441 197 413 185 q 491 231 469 210 q 524 280 513 251 q 536 340 536 308 l 536 801 q 563 863 536 839 q 628 888 590 888 q 691 860 665 886 q 717 797 717 833 l 717 329 q 689 200 717 260 q 615 97 661 140 q 508 28 569 53 q 381 4 447 4 m 181 1135 q 224 1191 190 1172 q 293 1200 258 1210 l 461 1156 q 519 1112 500 1144 q 528 1042 538 1079 q 484 983 518 1003 q 413 972 450 963 l 246 1018 q 190 1061 208 1028 q 181 1135 171 1094 z "},"Ú":{"ha":729,"x_min":43,"x_max":717,"o":"m 381 4 q 247 31 308 4 q 141 103 186 57 q 70 210 96 149 q 43 340 44 271 l 43 801 q 71 863 43 838 q 135 888 99 888 q 199 860 171 888 q 226 797 226 833 l 226 333 q 239 275 226 303 q 272 228 251 247 q 321 197 293 208 q 379 185 349 185 q 441 197 413 185 q 491 231 469 210 q 524 280 513 251 q 536 340 536 308 l 536 801 q 563 863 536 839 q 628 888 590 888 q 691 860 665 886 q 717 797 717 833 l 717 329 q 689 200 717 260 q 615 97 661 140 q 508 28 569 53 q 381 4 447 4 m 582 1133 q 573 1060 592 1093 q 517 1017 554 1026 l 350 971 q 278 981 313 961 q 235 1040 244 1001 q 244 1110 225 1078 q 301 1154 263 1143 l 469 1199 q 538 1190 504 1208 q 582 1133 572 1171 z "},"Û":{"ha":729,"x_min":43,"x_max":717,"o":"m 381 4 q 247 31 308 4 q 141 103 186 57 q 70 210 96 149 q 43 340 44 271 l 43 801 q 71 863 43 838 q 135 888 99 888 q 199 860 171 888 q 226 797 226 833 l 226 333 q 239 275 226 303 q 272 228 251 247 q 321 197 293 208 q 379 185 349 185 q 441 197 413 185 q 491 231 469 210 q 524 280 513 251 q 536 340 536 308 l 536 801 q 563 863 536 839 q 628 888 590 888 q 691 860 665 886 q 717 797 717 833 l 717 329 q 689 200 717 260 q 615 97 661 140 q 508 28 569 53 q 381 4 447 4 m 263 958 q 198 932 236 932 q 132 960 160 932 q 111 1027 104 989 q 144 1092 118 1065 l 311 1258 q 377 1285 339 1286 q 446 1258 415 1285 l 626 1092 q 660 1025 654 1064 q 639 958 667 986 q 574 931 613 932 q 507 958 535 931 l 378 1074 l 263 958 z "},"Ü":{"ha":729,"x_min":43,"x_max":717,"o":"m 381 4 q 247 31 308 4 q 141 103 186 57 q 70 210 96 149 q 43 340 44 271 l 43 801 q 71 863 43 838 q 135 888 99 888 q 199 860 171 888 q 226 797 226 833 l 226 333 q 239 275 226 303 q 272 228 251 247 q 321 197 293 208 q 379 185 349 185 q 441 197 413 185 q 491 231 469 210 q 524 280 513 251 q 536 340 536 308 l 536 801 q 563 863 536 839 q 628 888 590 888 q 691 860 665 886 q 717 797 717 833 l 717 329 q 689 200 717 260 q 615 97 661 140 q 508 28 569 53 q 381 4 447 4 m 340 1092 q 313 1025 340 1053 q 244 997 285 997 q 178 1025 206 997 q 151 1092 151 1053 q 178 1158 151 1131 q 244 1186 206 1186 q 313 1158 285 1186 q 340 1092 340 1131 m 608 1092 q 581 1025 608 1053 q 513 997 553 997 q 447 1025 474 997 q 419 1092 419 1053 q 447 1158 419 1131 q 513 1186 474 1186 q 581 1158 553 1186 q 608 1092 608 1131 z "},"ä":{"ha":729,"x_min":33,"x_max":707,"o":"m 410 671 q 527 635 472 664 q 622 560 582 606 q 684 458 661 515 q 707 336 707 400 l 707 90 q 679 26 707 53 q 617 0 651 0 q 539 44 568 0 q 526 38 532 42 q 515 32 521 35 q 447 8 482 17 q 371 0 411 0 q 185 56 267 0 q 63 201 103 113 q 41 267 49 233 q 33 336 33 300 q 41 406 33 372 q 63 471 49 439 q 185 617 103 561 q 371 672 267 672 q 391 672 382 672 q 410 671 400 672 m 369 181 q 430 192 401 181 q 479 225 458 204 q 513 274 500 246 q 525 336 525 303 q 513 395 525 367 q 478 445 500 424 q 428 479 457 467 q 369 492 400 492 q 311 479 339 492 q 262 445 283 467 q 228 395 240 424 q 215 336 215 367 q 228 276 215 304 q 263 226 242 247 q 313 193 285 206 q 369 181 340 181 m 332 874 q 304 807 332 835 q 236 779 276 779 q 170 807 197 779 q 143 874 143 835 q 170 940 143 913 q 236 968 197 968 q 304 940 276 968 q 332 874 332 913 m 600 874 q 572 807 600 835 q 504 779 544 779 q 438 807 465 779 q 411 874 411 835 q 438 940 411 913 q 504 968 465 968 q 572 940 544 968 q 600 874 600 913 z "},"Š":{"ha":693,"x_min":32,"x_max":661,"o":"m 463 1225 q 513 1246 483 1246 q 564 1225 543 1246 q 586 1172 586 1201 q 565 1122 586 1143 l 411 968 q 360 947 389 946 q 307 968 331 947 l 142 1122 q 120 1174 119 1143 q 142 1225 121 1204 q 193 1247 163 1246 q 244 1225 224 1247 l 360 1122 l 463 1225 m 300 700 q 244 676 267 700 q 219 615 221 651 q 244 560 221 583 q 300 538 267 538 l 394 538 q 494 517 446 538 q 579 459 542 496 q 639 373 617 422 q 661 268 661 324 q 640 165 661 214 q 583 81 619 117 q 499 23 547 44 q 394 0 450 1 l 147 0 q 79 27 106 0 q 53 94 53 54 q 80 160 53 132 q 147 188 107 188 l 394 188 q 451 211 426 188 q 476 268 476 235 q 452 326 476 303 q 396 350 428 349 l 300 350 q 199 372 247 351 q 113 428 150 393 q 54 513 76 464 q 32 618 32 561 q 53 718 32 669 q 110 804 74 767 q 196 865 147 842 q 300 888 244 888 l 547 888 q 611 860 585 888 q 640 793 638 833 q 614 726 640 753 q 547 700 588 700 l 300 700 z "},"š":{"ha":649,"x_min":39,"x_max":614,"o":"m 429 985 q 480 1006 450 1006 q 531 985 510 1006 q 553 932 553 961 q 532 882 553 903 l 378 728 q 326 706 356 706 q 274 728 297 707 l 108 882 q 87 933 86 903 q 108 985 88 964 q 160 1006 129 1006 q 211 985 190 1007 l 326 882 l 429 985 m 493 675 q 556 647 531 675 q 581 586 581 618 q 553 523 581 550 q 493 496 526 496 l 254 496 q 226 486 238 496 q 214 458 214 476 q 226 428 214 439 q 254 418 238 418 l 411 418 q 491 400 454 418 q 555 352 528 382 q 597 289 582 322 q 613 214 613 256 q 597 128 614 168 q 550 60 579 88 q 482 16 521 32 q 394 0 443 0 l 139 0 q 76 25 103 0 q 50 88 50 50 q 75 151 50 122 q 136 181 100 179 l 392 181 q 429 214 429 181 q 392 251 429 251 l 239 251 q 160 269 197 251 q 97 317 124 286 q 54 383 69 347 q 39 461 39 419 q 55 542 39 503 q 99 610 71 581 q 164 656 126 639 q 246 675 201 674 l 493 675 z "},"ñ":{"ha":729,"x_min":40,"x_max":714,"o":"m 378 676 q 506 652 444 676 q 613 584 567 628 q 686 481 658 540 q 714 351 714 421 l 714 94 q 688 32 714 58 q 625 4 663 6 q 560 28 588 4 q 533 90 533 53 l 533 340 q 522 401 533 372 q 488 450 510 429 q 438 483 467 471 q 376 496 410 496 q 318 484 346 496 q 269 453 290 472 q 236 406 249 433 q 224 347 224 378 l 224 94 q 196 31 224 58 q 132 4 168 4 q 68 29 96 4 q 40 90 40 54 l 40 340 q 67 471 42 410 q 138 578 93 532 q 244 650 183 624 q 378 676 306 676 m 390 981 l 458 943 q 493 931 481 928 q 524 957 506 935 q 574 1001 542 988 q 643 994 607 1015 q 690 938 678 975 q 676 858 701 900 q 619 790 651 815 q 542 754 586 764 q 446 755 497 744 q 368 782 394 765 l 299 819 q 261 827 278 833 q 235 804 244 821 q 183 761 215 775 q 114 768 150 747 q 68 825 79 788 q 81 904 57 863 q 138 972 106 947 q 215 1008 171 997 q 309 1008 260 1018 q 390 981 358 999 z "},"Ý":{"ha":735,"x_min":25,"x_max":665,"o":"m 25 671 l 25 794 q 52 860 25 833 q 117 888 79 888 q 184 860 157 888 q 211 794 211 833 l 211 671 q 249 576 211 614 q 344 538 288 538 q 440 576 401 538 q 479 671 479 614 l 479 794 q 506 860 479 833 q 571 888 533 888 q 638 860 611 888 q 665 794 665 833 l 665 671 l 665 669 q 648 566 665 615 q 600 476 631 517 q 527 407 569 436 q 435 364 485 378 l 435 93 q 408 27 435 54 q 343 0 381 0 q 276 27 303 0 q 249 93 249 54 l 249 365 q 159 410 200 381 q 88 479 118 439 q 42 568 58 519 q 25 671 25 617 m 567 1132 q 558 1058 576 1092 q 501 1015 539 1025 l 335 969 q 263 980 297 960 q 219 1039 229 1000 q 228 1109 210 1076 q 286 1153 247 1142 l 454 1197 q 523 1188 489 1207 q 567 1132 557 1169 z "},"Ñ":{"ha":729,"x_min":43,"x_max":717,"o":"m 381 883 q 508 859 447 883 q 615 791 569 835 q 689 688 661 747 q 717 558 717 628 l 717 90 q 691 28 717 54 q 628 0 665 1 q 563 24 590 0 q 536 86 536 49 l 536 547 q 524 608 536 579 q 491 657 513 636 q 441 690 469 678 q 379 703 413 703 q 321 691 349 703 q 272 660 293 679 q 239 613 251 640 q 226 554 226 585 l 226 90 q 199 27 226 54 q 135 0 171 0 q 71 25 99 0 q 43 86 43 50 l 43 547 q 70 678 44 617 q 141 785 96 739 q 247 857 186 831 q 381 883 308 883 m 389 1196 l 457 1158 q 492 1147 479 1143 q 522 1172 504 1150 q 573 1217 540 1203 q 642 1210 606 1231 q 688 1153 676 1190 q 675 1074 700 1115 q 617 1005 650 1031 q 540 969 585 979 q 444 970 496 960 q 367 997 393 981 l 297 1035 q 260 1042 276 1049 q 233 1019 243 1036 q 181 976 214 990 q 113 983 149 963 q 67 1040 78 1003 q 79 1119 56 1078 q 137 1188 104 1163 q 214 1223 169 1213 q 308 1224 258 1233 q 389 1196 357 1214 z "},"~":{"ha":717,"x_min":36,"x_max":681,"o":"m 369 514 l 438 476 q 471 469 450 464 q 503 490 492 474 q 553 535 521 521 q 622 528 586 549 q 669 471 657 508 q 656 392 681 433 q 598 323 631 349 q 521 288 565 297 q 429 286 476 278 q 404 293 417 290 q 347 315 374 299 l 278 353 q 244 360 265 364 q 214 338 224 354 q 162 294 194 308 q 93 301 129 281 q 47 358 58 321 q 60 438 36 396 q 117 506 85 481 q 194 541 150 531 q 286 542 239 551 q 303 536 294 539 q 369 514 338 532 z "},"¥":{"ha":732,"x_min":26,"x_max":706,"o":"m 538 301 q 601 275 575 301 q 628 211 628 249 q 601 147 628 174 q 538 121 575 121 l 456 121 l 456 90 q 429 26 456 53 q 365 0 403 0 q 301 26 328 0 q 275 90 275 53 l 275 121 l 193 121 q 129 147 156 121 q 103 211 103 174 q 129 275 103 249 q 193 301 156 301 l 275 301 l 275 338 l 194 338 q 129 365 156 338 q 103 429 103 392 q 128 492 103 465 q 189 521 153 518 l 47 735 q 33 806 26 768 q 71 867 39 843 q 141 882 103 889 q 200 842 179 875 l 365 607 l 528 842 q 588 882 550 875 q 657 867 626 889 q 698 806 690 843 q 682 735 706 768 l 540 521 q 602 492 576 519 q 628 429 628 465 q 601 365 628 392 q 538 338 575 338 l 456 338 l 456 301 l 538 301 z "},"€":{"ha":751,"x_min":26,"x_max":717,"o":"m 624 303 q 689 276 661 303 q 717 208 717 249 q 712 182 717 194 q 700 156 707 169 q 586 42 660 85 q 428 0 513 0 q 310 24 367 0 q 209 91 253 49 q 139 190 165 133 q 125 229 131 210 l 118 229 q 53 254 79 229 q 26 317 26 279 q 53 381 26 354 q 114 408 78 407 l 114 461 q 53 488 78 463 q 26 553 26 515 q 53 615 26 590 q 118 640 79 640 q 138 690 128 665 q 206 791 163 747 q 306 860 249 835 q 428 886 363 886 q 585 844 511 886 q 701 726 658 801 q 712 703 707 717 q 717 676 717 689 q 689 610 717 638 q 622 582 661 582 q 572 598 592 582 q 538 638 553 614 q 492 682 521 665 q 428 699 464 699 q 378 689 401 699 q 338 661 356 679 q 321 640 328 651 l 336 640 q 400 615 374 640 q 426 553 426 590 q 400 488 426 515 q 336 461 374 461 l 300 461 l 300 408 l 336 408 q 400 381 374 408 q 426 317 426 354 q 400 254 426 279 q 336 229 374 229 l 333 229 l 338 224 q 378 197 356 207 q 428 188 401 188 q 492 204 464 188 q 538 249 519 221 q 569 288 553 272 q 624 303 586 303 z "},"#":{"ha":824,"x_min":25,"x_max":799,"o":"m 644 474 l 629 421 q 695 393 668 421 q 722 326 722 365 q 695 260 722 288 q 629 232 668 232 l 569 232 l 517 67 q 471 11 506 29 q 399 6 436 -7 q 343 51 361 17 q 338 122 325 85 l 372 232 l 317 232 l 264 67 q 219 11 253 29 q 147 6 185 -7 q 92 51 110 17 q 86 122 74 85 l 121 232 l 119 232 q 52 260 79 232 q 25 326 25 288 q 52 393 25 365 q 119 421 79 421 l 179 421 l 196 474 q 128 501 156 474 q 101 568 101 528 q 128 633 101 606 q 196 660 156 660 l 254 660 l 306 824 q 352 878 317 861 q 425 885 388 896 q 478 839 461 874 q 486 768 496 804 l 450 660 l 507 660 l 557 824 q 605 879 571 861 q 675 885 639 897 q 732 840 714 875 q 739 768 750 806 l 704 660 q 771 633 743 660 q 799 568 799 606 q 771 501 799 528 q 704 474 743 474 l 644 474 m 449 474 l 392 474 l 378 421 l 432 421 l 449 474 z "},"£":{"ha":738,"x_min":29,"x_max":717,"o":"m 624 186 q 690 158 663 186 q 717 93 717 131 q 690 27 717 54 q 624 0 663 0 l 213 0 q 145 27 172 0 q 118 94 118 54 l 118 264 q 56 289 79 264 q 29 356 32 314 q 53 418 29 392 q 118 450 78 444 l 118 638 q 137 731 118 686 q 188 811 156 776 q 265 867 221 846 q 360 888 310 888 q 430 865 401 888 q 461 796 458 842 q 435 733 461 758 q 368 704 408 707 q 322 683 343 704 q 304 638 304 664 l 304 450 q 365 420 340 447 q 392 356 390 393 q 367 292 392 317 q 304 264 343 267 l 304 186 l 624 186 z "},"Ÿ":{"ha":735,"x_min":25,"x_max":665,"o":"m 25 671 l 25 794 q 52 860 25 833 q 117 888 79 888 q 184 860 157 888 q 211 794 211 833 l 211 671 q 249 576 211 614 q 344 538 288 538 q 440 576 401 538 q 479 671 479 614 l 479 794 q 506 860 479 833 q 571 888 533 888 q 638 860 611 888 q 665 794 665 833 l 665 671 l 665 669 q 648 566 665 615 q 600 476 631 517 q 527 407 569 436 q 435 364 485 378 l 435 93 q 408 27 435 54 q 343 0 381 0 q 276 27 303 0 q 249 93 249 54 l 249 365 q 159 410 200 381 q 88 479 118 439 q 42 568 58 519 q 25 671 25 617 m 306 1092 q 278 1025 306 1053 q 210 997 250 997 q 144 1025 171 997 q 117 1092 117 1053 q 144 1158 117 1131 q 210 1186 171 1186 q 278 1158 250 1186 q 306 1092 306 1131 m 574 1092 q 546 1025 574 1053 q 478 997 518 997 q 412 1025 439 997 q 385 1092 385 1053 q 412 1158 385 1131 q 478 1186 439 1186 q 546 1158 518 1186 q 574 1092 574 1131 z "},"@":{"ha":1014,"x_min":33,"x_max":985,"o":"m 510 886 q 694 849 608 886 q 845 747 781 811 q 947 595 910 682 q 985 410 985 508 q 983 353 985 382 q 971 296 981 324 q 900 200 951 238 q 782 160 849 163 q 654 207 710 160 q 510 160 590 160 q 415 179 460 160 q 335 233 369 199 q 281 312 301 267 q 260 410 260 357 q 279 507 260 461 q 333 587 299 553 q 413 640 367 621 q 510 660 458 660 q 629 629 575 660 q 717 549 683 599 q 747 483 736 518 q 758 410 758 449 q 756 385 758 397 q 754 363 754 374 q 781 336 754 336 q 796 342 789 336 q 806 357 803 349 q 810 410 810 382 q 769 558 810 493 q 662 668 731 626 q 510 710 593 710 q 393 686 447 710 q 298 622 339 663 q 233 526 257 581 q 210 410 210 472 q 233 293 210 347 q 298 198 257 239 q 393 133 339 157 q 510 110 447 110 q 599 124 558 110 q 635 131 617 131 q 697 105 671 131 q 722 43 722 79 q 706 -8 722 15 q 661 -42 689 -31 q 510 -67 588 -67 q 324 -29 411 -67 q 173 73 238 8 q 71 224 108 138 q 33 410 33 311 q 71 595 33 508 q 173 747 108 682 q 324 849 238 811 q 510 886 411 886 m 510 483 q 457 462 478 483 q 436 410 436 440 q 457 358 436 379 q 510 336 478 336 q 562 358 540 336 q 583 410 583 379 q 562 462 583 440 q 510 483 540 483 z "},"–":{"ha":626,"x_min":43,"x_max":583,"o":"m 583 418 q 556 351 583 379 q 490 324 529 324 l 136 324 q 69 351 96 324 q 43 418 43 379 q 69 485 43 458 q 136 513 96 513 l 490 513 q 556 485 529 513 q 583 418 583 458 z "},"—":{"ha":740,"x_min":44,"x_max":696,"o":"m 696 418 q 669 351 696 379 q 603 324 642 324 l 138 324 q 71 351 97 324 q 44 418 44 379 q 71 485 44 458 q 138 513 97 513 l 603 513 q 669 485 642 513 q 696 418 696 458 z "},"_":{"ha":740,"x_min":44,"x_max":696,"o":"m 696 96 q 669 29 696 57 q 603 1 642 1 l 138 1 q 71 29 97 1 q 44 96 44 57 q 71 163 44 136 q 138 190 97 190 l 603 190 q 669 163 642 190 q 696 96 696 136 z "},"¢":{"ha":638,"x_min":19,"x_max":617,"o":"m 344 819 q 414 790 385 819 q 443 721 443 761 l 443 661 q 593 575 528 640 q 615 513 617 549 q 588 453 613 476 q 524 428 563 429 q 460 453 485 426 q 443 465 451 460 l 443 204 q 460 218 451 211 q 524 246 485 246 q 588 218 563 246 q 607 192 600 207 q 615 160 614 176 q 610 127 615 143 q 593 99 604 111 q 486 25 544 50 q 443 10 465 15 l 443 -62 q 414 -132 443 -103 q 344 -161 385 -161 q 276 -132 304 -161 q 247 -62 247 -103 l 247 18 q 226 26 236 22 q 119 100 165 54 q 47 207 74 146 q 19 336 19 268 q 47 464 19 403 q 120 571 74 525 q 228 644 167 617 l 247 653 l 247 721 q 276 790 247 761 q 344 819 304 819 m 213 394 q 200 336 200 367 q 213 276 200 304 q 247 225 225 247 l 247 444 q 213 394 225 422 z "},"¦":{"ha":283,"x_min":47,"x_max":233,"o":"m 142 886 q 206 858 179 886 q 233 793 233 831 l 233 -122 q 206 -188 233 -161 q 142 -215 179 -215 q 74 -188 101 -215 q 47 -122 47 -161 l 47 793 q 74 858 47 831 q 142 886 101 886 z "},"œ":{"ha":1221,"x_min":33,"x_max":1199,"o":"m 369 688 q 499 661 438 688 q 606 589 560 635 q 678 482 651 543 q 706 350 706 421 q 679 220 706 281 q 608 114 653 160 q 501 42 563 68 q 369 15 440 15 q 239 40 300 15 q 132 110 178 65 q 60 217 86 156 q 33 350 33 278 q 59 480 33 419 q 130 585 85 540 q 237 658 175 631 q 369 688 299 685 m 369 506 q 310 494 338 506 q 260 461 282 482 q 226 412 239 440 q 214 350 214 383 q 226 290 214 318 q 260 240 239 261 q 310 206 282 218 q 369 193 338 193 q 430 206 401 193 q 479 240 458 218 q 513 290 500 261 q 525 350 525 318 q 479 458 522 414 q 369 506 436 503 m 861 672 q 989 644 928 672 q 1097 570 1050 617 q 1171 463 1143 524 q 1199 336 1199 403 q 1172 279 1199 300 q 1104 260 1144 258 l 735 260 q 861 181 781 181 q 899 185 883 181 q 926 194 914 189 q 949 204 938 200 q 976 208 961 208 q 1027 192 1006 207 q 1059 153 1049 176 q 1066 104 1069 131 q 1042 56 1063 78 q 958 13 1004 25 q 861 0 913 1 q 733 24 794 -3 q 626 98 672 51 q 552 207 579 144 q 525 336 525 269 q 552 463 525 401 q 625 570 579 524 q 732 644 671 617 q 861 672 793 672 m 988 414 q 932 474 964 457 q 861 492 900 492 q 790 474 821 492 q 735 414 758 457 l 988 414 z "},"æ":{"ha":1206,"x_min":18,"x_max":1183,"o":"m 394 671 q 512 635 457 664 q 606 560 567 606 q 669 458 646 515 q 692 336 692 400 l 692 90 q 664 26 692 53 q 601 0 636 0 q 524 44 553 0 q 511 38 517 42 q 500 32 506 35 q 432 8 467 17 q 356 0 396 0 q 169 56 251 0 q 47 201 88 113 q 26 267 33 233 q 18 336 18 300 q 26 406 18 372 q 47 471 33 439 q 169 617 88 561 q 356 672 251 672 q 376 672 367 672 q 394 671 385 672 m 354 181 q 415 192 386 181 q 464 225 443 204 q 497 274 485 246 q 510 336 510 303 q 497 395 510 367 q 463 445 485 424 q 413 479 442 467 q 354 492 385 492 q 296 479 324 492 q 247 445 268 467 q 213 395 225 424 q 200 336 200 367 q 213 276 200 304 q 248 226 226 247 q 297 193 269 206 q 354 181 325 181 m 846 672 q 974 644 913 672 q 1081 570 1035 617 q 1156 463 1128 524 q 1183 336 1183 403 q 1156 279 1183 300 q 1089 260 1129 258 l 719 260 q 846 181 765 181 q 883 185 868 181 q 910 194 899 189 q 934 204 922 200 q 961 208 946 208 q 1012 192 990 207 q 1044 153 1033 176 q 1051 104 1054 131 q 1026 56 1047 78 q 943 13 989 25 q 846 0 897 1 q 718 24 779 -3 q 610 98 657 51 q 537 207 564 144 q 510 336 510 269 q 537 463 510 401 q 610 570 564 524 q 717 644 656 617 q 846 672 778 672 m 972 414 q 917 474 949 457 q 846 492 885 492 q 774 474 806 492 q 719 414 743 457 l 972 414 z "},"Ð":{"ha":817,"x_min":31,"x_max":776,"o":"m 460 888 q 578 863 521 888 q 680 796 636 839 q 750 696 724 753 q 776 572 776 639 l 776 315 q 751 196 776 253 q 682 95 725 139 q 581 26 639 51 q 460 0 524 0 l 222 0 q 156 27 185 0 q 128 94 128 54 l 128 324 l 124 324 q 57 351 83 324 q 31 418 31 379 q 57 485 31 458 q 124 513 83 513 l 128 513 l 128 793 q 155 858 128 829 q 222 888 182 888 l 460 888 m 410 418 q 383 351 410 379 q 317 324 356 324 l 307 324 l 307 189 l 460 189 q 510 199 486 189 q 551 226 533 208 q 578 266 568 243 q 588 315 588 289 l 588 572 q 578 622 588 599 q 551 662 568 644 q 510 689 533 679 q 460 699 486 699 l 307 699 l 307 513 l 317 513 q 383 485 356 513 q 410 418 410 458 z "},"Æ":{"ha":1129,"x_min":44,"x_max":1122,"o":"m 382 886 q 510 862 449 886 q 617 794 571 838 q 690 690 663 750 q 718 561 718 631 l 718 93 q 692 31 718 57 q 629 3 667 4 q 565 27 592 3 q 538 89 538 51 l 538 251 l 228 251 l 228 93 q 200 30 228 57 q 136 3 172 3 q 72 28 100 3 q 44 89 44 53 l 44 550 q 72 681 46 619 q 142 788 97 742 q 249 860 188 833 q 382 886 310 886 m 538 550 q 526 610 538 582 q 492 660 514 639 q 442 693 471 681 q 381 706 414 706 q 322 694 350 706 q 274 663 294 682 q 240 615 253 643 q 228 557 228 588 l 228 432 l 538 432 l 538 550 m 1029 188 q 1095 160 1068 188 q 1122 94 1122 132 q 1095 27 1122 54 q 1029 0 1068 0 l 632 0 q 567 27 596 0 q 539 94 539 54 l 539 793 q 565 858 539 829 q 632 888 592 888 l 1029 888 q 1095 860 1068 888 q 1122 793 1122 832 q 1095 726 1122 753 q 1029 700 1068 700 l 724 700 l 724 542 l 936 542 q 1001 514 974 542 q 1029 447 1029 486 q 1001 381 1029 408 q 936 354 974 354 l 724 354 l 724 188 l 1029 188 z "},"÷":{"ha":568,"x_min":15,"x_max":556,"o":"m 556 418 q 528 485 556 458 q 463 513 501 513 l 108 513 q 42 485 68 513 q 15 418 15 458 q 42 351 15 379 q 108 324 68 324 l 463 324 q 528 351 501 324 q 556 418 556 379 m 372 176 q 344 110 372 138 q 276 82 317 82 q 210 110 238 82 q 183 176 183 138 q 210 243 183 215 q 276 271 238 271 q 344 243 317 271 q 372 176 372 215 m 372 661 q 344 594 372 622 q 276 567 317 567 q 210 594 238 567 q 183 661 183 622 q 210 728 183 700 q 276 756 238 756 q 344 728 317 756 q 372 661 372 700 z "},"µ":{"ha":743,"x_min":49,"x_max":724,"o":"m 633 674 q 698 647 672 674 q 724 585 724 621 l 724 347 q 697 209 724 272 q 623 100 669 146 q 515 28 576 54 q 386 1 454 1 q 303 10 344 1 q 231 39 263 19 l 231 -121 q 203 -186 231 -161 q 140 -211 175 -211 q 76 -186 104 -211 q 49 -125 49 -161 l 49 589 q 76 649 49 625 q 140 674 104 674 q 205 647 179 674 q 231 585 231 621 l 231 331 q 244 272 231 299 q 278 225 257 244 q 328 194 300 206 q 386 183 357 183 q 448 196 419 183 q 497 229 476 208 q 530 278 518 250 q 542 338 542 306 l 542 589 q 570 650 542 626 q 633 674 599 674 z "},"×":{"ha":704,"x_min":43,"x_max":663,"o":"m 510 618 q 572 644 536 644 q 635 617 607 643 q 660 554 660 592 q 635 490 660 517 l 482 336 l 635 182 q 661 119 660 157 q 635 53 663 81 q 572 28 610 28 q 506 57 533 28 l 353 207 l 200 53 q 138 28 175 31 q 72 53 100 25 q 45 115 47 78 q 69 179 43 151 l 226 336 l 69 493 q 46 554 43 519 q 72 617 49 589 q 138 644 103 647 q 200 617 172 642 l 353 464 l 510 618 z "},"•":{"ha":357,"x_min":35,"x_max":324,"o":"m 178 193 q 122 204 149 193 q 76 235 96 215 q 46 281 57 254 q 35 336 35 307 q 47 393 35 367 q 79 439 60 419 q 124 469 99 458 q 178 481 150 481 q 238 467 211 481 q 284 433 265 454 q 313 387 303 413 q 324 336 324 361 q 312 281 324 307 q 281 235 300 254 q 234 204 261 215 q 178 193 207 193 z "},"·":{"ha":257,"x_min":35,"x_max":224,"o":"m 224 338 q 196 271 224 299 q 128 243 168 243 q 62 271 89 243 q 35 338 35 299 q 62 404 35 376 q 128 432 89 432 q 196 404 168 432 q 224 338 224 376 z "}," ":{"ha":313,"x_min":0,"x_max":0,"o":""},"¼":{"ha":1147,"x_min":14,"x_max":1126,"o":"m 231 888 q 299 860 271 888 q 326 794 326 832 l 326 438 q 299 372 326 399 q 231 344 271 344 q 165 372 192 344 q 138 438 138 399 l 138 579 q 108 575 124 575 q 42 604 71 576 q 14 670 14 632 q 42 736 14 708 l 164 860 q 176 869 169 865 q 231 888 200 888 m 1126 94 q 1101 30 1126 57 q 1039 0 1075 3 l 1039 -96 q 1011 -148 1039 -121 q 943 -175 983 -175 q 878 -148 906 -175 q 851 -96 851 -121 l 851 0 l 715 0 q 649 27 676 0 q 622 94 622 54 l 622 96 l 721 464 q 771 517 739 500 q 839 521 803 535 q 895 469 876 507 q 894 397 914 432 l 828 188 l 851 188 q 880 251 853 225 q 943 278 907 278 q 1010 251 983 278 q 1039 188 1038 225 q 1101 158 1075 185 q 1126 94 1126 131 m 653 883 q 707 838 689 872 q 714 767 725 803 l 492 65 q 446 11 481 29 q 375 4 411 -7 q 319 49 338 15 q 313 122 301 83 l 535 822 q 581 878 546 860 q 653 883 617 896 z "},"½":{"ha":1108,"x_min":25,"x_max":1082,"o":"m 242 889 q 310 861 282 889 q 338 796 338 833 l 338 439 q 310 373 338 400 q 242 346 282 346 q 176 373 203 346 q 149 439 149 400 l 149 581 q 119 576 135 576 q 53 606 82 578 q 25 672 25 633 q 53 738 25 710 l 175 861 q 188 871 181 867 q 242 889 211 889 m 765 301 q 698 330 725 301 q 671 397 671 358 q 683 442 671 422 q 717 483 699 467 q 760 513 736 499 q 826 536 793 531 q 867 540 844 540 l 892 540 q 963 526 929 540 q 1021 486 996 511 q 1060 428 1046 461 q 1075 358 1075 394 q 1060 285 1075 318 q 1019 228 1044 253 l 979 190 l 988 190 q 1053 164 1025 190 q 1082 96 1082 138 q 1053 28 1082 57 q 988 0 1025 0 l 757 0 q 691 30 715 0 q 667 97 667 60 q 672 123 667 108 q 692 153 678 138 l 853 314 l 868 328 q 885 334 879 328 q 892 349 892 340 q 869 371 892 371 q 844 351 847 371 q 813 315 829 329 q 765 301 797 301 m 650 883 q 704 838 686 872 q 711 767 722 803 l 489 65 q 443 11 478 29 q 372 4 408 -7 q 317 49 335 15 q 310 122 299 83 l 532 822 q 578 878 543 860 q 650 883 614 896 z "},"¾":{"ha":1138,"x_min":15,"x_max":1117,"o":"m 110 585 q 158 572 142 585 q 189 536 174 558 q 214 518 192 518 q 230 524 224 518 q 236 539 236 531 q 230 553 236 547 q 213 560 224 560 l 208 561 q 180 578 192 567 q 167 621 168 589 q 172 643 167 633 q 183 660 176 653 q 196 670 189 667 q 207 675 203 674 l 213 676 q 230 683 224 676 q 236 697 236 689 q 230 712 236 706 q 214 718 224 718 q 189 700 192 718 q 158 665 174 678 q 110 651 142 651 q 42 678 69 651 q 15 742 15 706 q 19 767 15 754 q 28 788 22 781 q 104 861 58 838 q 136 874 119 868 q 171 883 153 881 q 211 888 189 888 l 236 888 q 307 874 274 888 q 365 836 340 860 q 405 781 390 813 q 419 717 419 750 q 408 662 419 682 q 375 618 396 642 q 408 574 396 594 q 419 519 419 553 q 405 455 419 486 q 365 400 390 424 q 307 363 340 376 q 236 349 274 349 l 211 349 q 171 353 189 349 q 136 362 153 356 q 104 375 119 368 q 28 449 58 399 q 19 469 22 456 q 15 494 15 482 q 42 558 15 531 q 110 585 69 585 m 1117 94 q 1091 30 1117 57 q 1029 0 1065 3 l 1029 -96 q 1001 -148 1029 -121 q 933 -175 974 -175 q 869 -148 896 -175 q 842 -96 842 -121 l 842 0 l 706 0 q 640 27 667 0 q 613 94 613 54 l 613 96 l 711 464 q 761 517 729 500 q 829 521 793 535 q 885 469 867 507 q 885 397 904 432 l 818 188 l 842 188 q 870 251 843 225 q 933 278 897 278 q 1001 251 974 278 q 1029 188 1028 225 q 1091 158 1065 185 q 1117 94 1117 131 m 683 883 q 738 838 719 872 q 744 767 756 803 l 522 65 q 476 11 511 29 q 406 4 442 -7 q 350 49 368 15 q 343 122 332 83 l 565 822 q 612 878 576 860 q 683 883 647 896 z "},"»":{"ha":911,"x_min":46,"x_max":885,"o":"m 657 329 l 486 514 q 460 580 460 540 q 486 644 461 619 q 554 674 515 674 q 621 647 593 674 l 857 396 q 884 328 883 365 q 856 261 885 290 l 619 26 q 555 0 593 0 q 489 28 517 0 q 461 94 461 56 q 488 158 461 132 l 657 329 m 244 329 l 74 514 q 47 581 46 542 q 74 646 47 619 q 140 674 101 674 q 207 647 179 675 l 443 397 q 470 328 469 367 q 443 263 471 290 l 207 26 q 142 0 181 0 q 75 28 104 0 q 47 94 47 56 q 74 158 47 132 l 244 329 z "},"¹":{"ha":372,"x_min":13,"x_max":325,"o":"m 229 889 q 297 861 269 889 q 325 796 325 833 l 325 439 q 297 373 325 400 q 229 346 269 346 q 163 373 190 346 q 136 439 136 400 l 136 581 q 107 576 122 576 q 40 606 69 578 q 13 672 13 633 q 40 738 13 710 l 163 861 q 175 871 168 867 q 229 889 199 889 z "},"¸":{"ha":326,"x_min":26,"x_max":308,"o":"m 168 -292 q 110 -280 136 -292 q 65 -247 83 -268 q 37 -200 47 -226 q 26 -146 26 -174 q 41 -117 28 -128 q 72 -106 54 -106 q 106 -119 92 -106 q 119 -151 119 -132 q 133 -186 119 -172 q 168 -200 147 -200 q 201 -186 188 -200 q 215 -151 215 -172 q 203 -120 215 -133 q 174 -104 192 -107 l 128 -104 q 96 -91 110 -103 q 82 -61 82 -79 l 82 -57 l 82 101 q 95 128 82 114 q 128 142 108 142 q 162 128 149 142 q 175 101 175 114 l 175 -10 q 235 -27 208 -11 q 281 -67 263 -43 q 301 -106 294 -85 q 308 -151 308 -128 q 297 -206 308 -181 q 267 -251 286 -232 q 222 -281 247 -269 q 168 -292 197 -292 z "},"Þ":{"ha":729,"x_min":49,"x_max":722,"o":"m 146 889 q 215 860 186 889 q 244 790 244 831 l 244 -87 q 215 -157 244 -128 q 146 -186 186 -186 q 77 -157 106 -186 q 49 -87 49 -128 l 49 790 q 77 860 49 831 q 146 889 106 889 m 139 886 q 174 880 157 888 q 203 860 190 872 q 224 830 217 847 q 231 794 231 813 l 231 635 q 331 667 279 660 q 435 667 383 675 q 535 637 486 660 q 625 575 583 614 q 698 467 674 525 q 722 336 722 410 q 695 206 722 267 q 622 99 668 144 q 515 26 576 53 q 386 0 454 0 q 258 27 319 0 q 151 100 197 54 q 76 207 104 146 q 49 336 49 268 l 49 801 q 57 834 49 818 q 78 862 65 850 q 106 881 90 874 q 139 886 122 888 m 231 336 q 243 276 231 304 q 277 226 256 247 q 326 193 299 206 q 386 181 354 181 q 445 193 417 181 q 495 226 474 206 q 529 276 517 247 q 542 336 542 304 q 529 397 542 368 q 495 446 517 425 q 445 479 474 467 q 386 492 417 492 q 326 478 354 492 q 277 444 299 465 q 243 394 256 422 q 231 336 231 365 z "},"ß":{"ha":675,"x_min":43,"x_max":636,"o":"m 364 888 l 369 889 q 474 868 425 889 q 558 810 522 847 q 615 725 594 774 q 636 621 636 676 q 619 524 636 568 q 571 443 601 479 q 619 363 601 408 q 636 268 636 318 q 615 163 636 213 q 558 78 594 114 q 474 20 522 42 q 369 -1 425 -1 l 368 -1 q 303 26 329 -1 q 276 90 276 53 q 303 157 276 131 q 368 183 329 183 l 369 183 q 429 208 404 183 q 454 268 454 232 q 429 328 454 304 q 369 353 404 353 l 367 353 q 301 379 328 353 q 275 443 275 406 q 301 508 275 481 q 367 535 328 535 l 369 535 q 429 560 404 535 q 454 621 454 585 q 433 674 454 651 q 407 690 422 683 q 357 700 383 700 q 308 690 331 700 q 267 663 285 681 q 240 622 250 644 q 229 571 229 599 l 229 94 q 203 28 229 56 q 138 0 176 0 q 70 28 97 0 q 43 94 43 56 l 43 571 q 72 695 46 638 q 139 796 97 753 q 237 863 181 839 q 357 888 293 888 l 364 888 z "},"ø":{"ha":728,"x_min":33,"x_max":706,"o":"m 369 674 q 499 647 438 674 q 606 575 560 621 q 678 468 651 529 q 706 336 706 407 q 679 206 706 267 q 608 100 653 146 q 501 28 563 54 q 369 1 440 1 q 239 26 300 1 q 132 97 178 51 q 60 203 86 142 q 33 336 33 264 q 59 466 33 406 q 130 572 85 526 q 237 644 175 617 q 369 674 299 671 m 369 492 q 310 480 338 492 q 260 447 282 468 q 226 398 239 426 q 214 336 214 369 q 226 276 214 304 q 260 226 239 247 q 310 192 282 204 q 369 179 338 179 q 430 192 401 179 q 479 226 458 204 q 513 276 500 247 q 525 336 525 304 q 479 444 522 400 q 369 492 436 489 m 508 774 q 563 728 544 763 q 569 657 581 693 l 347 -44 q 301 -99 336 -81 q 231 -106 267 -117 q 175 -60 193 -94 q 168 13 157 -26 l 390 713 q 437 768 401 750 q 508 774 472 786 z "},"ð":{"ha":622,"x_min":24,"x_max":582,"o":"m 572 208 q 535 126 561 164 q 474 60 510 88 q 395 16 439 32 q 303 0 351 0 q 194 22 244 0 q 106 82 143 44 q 46 170 68 119 q 24 279 24 221 q 46 388 24 338 q 106 476 68 439 q 194 536 143 514 q 303 558 244 558 q 351 553 328 558 q 399 542 375 549 l 399 613 q 370 677 397 650 q 303 704 343 704 l 301 704 l 275 704 q 210 731 238 704 q 183 796 183 758 q 210 861 183 835 q 275 888 238 888 l 328 888 q 427 860 382 885 q 505 796 472 835 q 558 709 538 757 q 582 613 578 661 l 582 279 q 579 242 582 260 q 572 208 576 225 m 303 374 q 235 347 263 374 q 207 279 207 319 q 235 211 207 239 q 303 183 263 183 q 371 211 343 183 q 399 279 399 239 q 371 347 399 319 q 303 374 343 374 z "},"ç":{"ha":653,"x_min":32,"x_max":629,"o":"m 369 672 q 606 575 508 672 q 627 513 629 549 q 600 453 625 476 q 536 428 575 429 q 472 453 497 426 q 369 492 429 492 q 309 478 338 492 q 259 444 281 465 q 225 394 238 422 q 213 336 213 367 q 225 276 213 304 q 260 226 238 247 q 310 192 282 204 q 369 181 338 179 q 472 218 431 181 q 536 246 497 246 q 600 218 575 246 q 619 192 613 207 q 627 160 626 176 q 622 127 628 143 q 606 99 617 111 q 499 25 557 50 q 369 0 440 0 q 239 27 300 0 q 132 100 178 54 q 59 207 86 146 q 32 336 32 268 q 59 464 32 403 q 133 571 86 525 q 240 644 179 617 q 369 672 301 672 m 397 -304 q 339 -292 365 -304 q 294 -260 313 -281 q 266 -212 276 -239 q 256 -158 256 -186 q 270 -129 257 -140 q 301 -118 283 -118 q 335 -131 321 -118 q 349 -164 349 -144 q 363 -199 349 -185 q 397 -212 376 -212 q 431 -199 417 -212 q 444 -164 444 -185 q 433 -133 444 -146 q 403 -117 421 -119 l 357 -117 q 325 -103 339 -115 q 311 -74 311 -92 l 311 -69 l 311 89 q 324 115 311 101 q 357 129 338 129 q 391 115 378 129 q 404 89 404 101 l 404 -22 q 465 -40 438 -24 q 510 -79 492 -56 q 531 -119 524 -97 q 538 -164 538 -140 q 526 -219 538 -193 q 496 -263 515 -244 q 451 -293 476 -282 q 397 -304 426 -304 z "},"Ç":{"ha":704,"x_min":38,"x_max":686,"o":"m 593 303 q 658 276 631 303 q 686 208 686 249 q 681 182 686 194 q 669 156 676 169 q 556 42 629 85 q 389 0 482 0 l 376 0 q 246 24 307 0 q 139 92 185 49 q 65 196 93 136 q 38 325 38 256 l 38 551 q 63 682 38 621 q 134 789 89 743 q 240 861 179 835 q 376 888 301 888 q 449 881 417 888 q 554 843 506 871 q 671 726 628 801 q 681 703 676 717 q 686 676 686 689 q 658 610 686 638 q 592 582 631 582 q 542 598 561 582 q 507 638 522 614 q 461 682 490 665 q 400 706 438 696 q 375 707 389 707 q 314 695 342 707 q 265 664 286 683 q 232 617 244 644 q 219 558 219 589 l 219 336 q 230 276 218 304 q 263 226 242 247 q 313 193 285 206 q 378 181 342 181 l 394 181 q 461 204 436 189 q 507 249 489 221 q 539 288 522 272 q 593 303 556 303 m 403 -337 q 344 -326 371 -337 q 300 -293 318 -314 q 272 -246 282 -272 q 261 -192 261 -219 q 276 -162 263 -174 q 307 -151 289 -151 q 340 -165 326 -151 q 354 -197 354 -178 q 368 -232 354 -218 q 403 -246 382 -246 q 436 -232 422 -246 q 450 -197 450 -218 q 438 -166 450 -179 q 408 -150 426 -153 l 363 -150 q 331 -137 344 -149 q 317 -107 317 -125 l 317 -103 l 317 56 q 330 82 317 68 q 363 96 343 96 q 397 82 383 96 q 410 56 410 68 l 410 -56 q 470 -73 443 -57 q 515 -112 497 -89 q 536 -152 529 -131 q 543 -197 543 -174 q 532 -252 543 -226 q 501 -297 521 -278 q 457 -326 482 -315 q 403 -337 432 -337 z "},"å":{"ha":729,"x_min":33,"x_max":707,"o":"m 410 671 q 527 635 472 664 q 622 560 582 606 q 684 458 661 515 q 707 336 707 400 l 707 90 q 679 26 707 53 q 617 0 651 0 q 539 44 568 0 q 526 38 532 42 q 515 32 521 35 q 447 8 482 17 q 371 0 411 0 q 185 56 267 0 q 63 201 103 113 q 41 267 49 233 q 33 336 33 300 q 41 406 33 372 q 63 471 49 439 q 185 617 103 561 q 371 672 267 672 q 391 672 382 672 q 410 671 400 672 m 369 181 q 430 192 401 181 q 479 225 458 204 q 513 274 500 246 q 525 336 525 303 q 513 395 525 367 q 478 445 500 424 q 428 479 457 467 q 369 492 400 492 q 311 479 339 492 q 262 445 283 467 q 228 395 240 424 q 215 336 215 367 q 228 276 215 304 q 263 226 242 247 q 313 193 285 206 q 369 181 340 181 z "},"Å":{"ha":729,"x_min":43,"x_max":717,"o":"m 381 888 q 508 863 447 888 q 615 795 569 839 q 689 692 661 751 q 717 563 717 632 l 717 94 q 691 32 717 58 q 628 4 665 6 q 563 28 590 4 q 536 90 536 53 l 536 253 l 226 253 l 226 94 q 199 31 226 58 q 135 4 171 4 q 71 29 99 4 q 43 90 43 54 l 43 551 q 70 682 44 621 q 141 789 96 743 q 247 861 186 835 q 381 888 308 888 m 536 551 q 524 612 536 583 q 491 661 513 640 q 441 694 469 682 q 379 707 413 707 q 321 695 349 707 q 272 664 293 683 q 239 617 251 644 q 226 558 226 589 l 226 433 l 536 433 l 536 551 z "},"§":{"ha":722,"x_min":35,"x_max":690,"o":"m 335 771 q 276 748 301 768 q 247 692 251 728 q 265 630 246 658 q 318 600 283 601 l 411 597 q 504 567 460 593 q 582 501 549 540 q 633 410 615 461 q 643 306 650 358 q 611 206 638 253 q 578 161 597 182 l 585 153 q 635 63 618 114 q 646 -43 651 11 q 615 -140 640 -96 q 550 -215 589 -185 q 468 -258 511 -246 q 390 -273 425 -271 q 319 -271 354 -275 q 237 -254 279 -267 q 150 -211 194 -242 q 65 -118 88 -161 q 38 -60 42 -75 q 36 -33 35 -46 q 71 28 40 4 q 139 50 101 53 q 186 29 168 47 q 215 -14 204 11 q 254 -64 229 -46 q 302 -87 279 -82 q 339 -94 325 -93 q 397 -92 372 -99 q 442 -69 422 -86 q 465 -22 463 -51 q 447 41 469 13 q 394 75 425 69 l 343 75 q 305 78 328 75 q 254 88 282 81 q 204 108 226 96 q 126 174 160 135 q 77 261 93 213 q 67 365 61 310 q 97 461 74 415 q 132 511 113 489 q 64 713 47 581 q 95 809 69 763 q 160 888 121 856 q 251 937 200 921 q 367 949 301 953 q 476 932 433 946 q 575 885 531 917 q 678 760 644 836 q 687 735 683 749 q 689 708 690 721 q 654 646 685 671 q 586 625 624 621 q 539 645 556 628 q 510 688 522 663 q 471 737 496 718 q 410 765 446 756 q 335 771 374 775 m 247 336 q 278 274 247 300 q 354 249 310 249 q 431 274 399 249 q 463 336 463 300 q 431 399 463 372 q 354 425 399 425 q 278 399 310 425 q 247 336 247 372 z "},"‡":{"ha":561,"x_min":18,"x_max":543,"o":"m 279 889 q 349 860 319 889 q 378 790 378 831 l 378 -87 q 349 -157 378 -128 q 279 -186 319 -186 q 210 -157 239 -186 q 182 -87 182 -128 l 182 790 q 210 860 182 831 q 279 889 239 889 m 543 314 q 517 249 543 276 q 453 222 490 222 l 110 222 q 44 249 71 222 q 18 314 18 276 q 44 378 18 351 q 110 406 71 406 l 453 406 q 517 378 490 406 q 543 314 543 351 m 543 610 q 517 545 543 572 q 453 518 490 518 l 110 518 q 44 545 71 518 q 18 610 18 572 q 44 674 18 647 q 110 701 71 701 l 453 701 q 517 674 490 701 q 543 610 543 647 z "},"†":{"ha":565,"x_min":13,"x_max":553,"o":"m 282 889 q 351 860 322 889 q 381 790 381 831 l 381 -87 q 351 -157 381 -128 q 282 -186 322 -186 q 213 -157 242 -186 q 185 -87 185 -128 l 185 790 q 213 860 185 831 q 282 889 242 889 m 553 515 q 526 449 553 476 q 460 421 499 421 l 106 421 q 39 449 65 421 q 13 515 13 476 q 39 583 13 556 q 106 610 65 610 l 460 610 q 526 583 499 610 q 553 515 553 556 z "},"«":{"ha":911,"x_min":26,"x_max":865,"o":"m 424 158 q 450 94 450 132 q 422 28 450 56 q 356 0 394 0 q 292 26 318 0 l 56 261 q 27 328 26 290 q 54 396 28 365 l 290 647 q 357 674 318 674 q 425 644 396 674 q 451 580 450 619 q 425 514 451 540 l 254 329 l 424 158 m 838 158 q 864 94 864 132 q 836 28 864 56 q 769 0 807 0 q 704 26 731 0 l 468 263 q 441 328 440 290 q 468 397 442 367 l 704 647 q 771 674 732 675 q 838 646 810 674 q 865 581 864 619 q 838 514 865 542 l 667 329 l 838 158 z "},"°":{"ha":604,"x_min":33,"x_max":571,"o":"m 308 888 q 494 806 417 888 q 571 617 571 725 q 494 427 571 508 q 308 346 417 346 q 110 423 188 350 q 33 629 33 496 q 119 813 38 738 q 308 888 200 888 m 304 707 q 241 682 268 707 q 213 621 214 657 q 238 552 213 576 q 304 526 264 528 q 366 553 340 526 q 392 617 392 581 q 366 680 392 653 q 304 707 340 707 z "},"²":{"ha":490,"x_min":38,"x_max":453,"o":"m 136 649 q 69 677 96 649 q 42 744 42 706 q 54 789 42 769 q 88 830 69 814 q 131 860 107 846 q 197 883 164 878 q 238 888 215 888 l 263 888 q 333 873 300 888 q 392 833 367 858 q 431 775 417 808 q 446 706 446 742 q 431 633 446 665 q 390 575 415 600 l 350 538 l 358 538 q 424 511 396 538 q 453 443 453 485 q 424 376 453 404 q 358 347 396 347 l 128 347 q 62 377 86 347 q 38 444 38 407 q 43 470 38 456 q 63 500 49 485 l 224 665 l 239 675 q 256 681 250 675 q 263 696 263 688 q 240 718 263 718 q 215 699 218 718 q 184 663 200 676 q 136 649 168 649 z "},"³":{"ha":476,"x_min":35,"x_max":439,"o":"m 129 585 q 177 572 161 585 q 208 536 193 558 q 233 518 211 518 q 249 524 243 518 q 256 539 256 531 q 249 553 256 547 q 232 560 243 560 l 228 561 q 199 578 211 567 q 186 621 188 589 q 191 643 186 633 q 202 660 196 653 q 215 670 208 667 q 226 675 222 674 l 232 676 q 249 683 243 676 q 256 697 256 689 q 249 712 256 706 q 233 718 243 718 q 208 700 211 718 q 177 665 193 678 q 129 651 161 651 q 62 678 89 651 q 35 742 35 706 q 38 767 35 754 q 47 788 42 781 q 124 861 78 838 q 156 874 139 868 q 190 883 172 881 q 231 888 208 888 l 256 888 q 326 874 293 888 q 385 836 360 860 q 424 781 410 813 q 439 717 439 750 q 427 662 439 682 q 394 618 415 642 q 427 574 415 594 q 439 519 439 553 q 424 455 439 486 q 385 400 410 424 q 326 363 360 376 q 256 349 293 349 l 231 349 q 190 353 208 349 q 156 362 172 356 q 124 375 139 368 q 47 449 78 399 q 38 469 42 456 q 35 494 35 482 q 62 558 35 531 q 129 585 89 585 z "},"ƒ":{"ha":521,"x_min":18,"x_max":504,"o":"m 406 888 q 474 865 446 888 q 504 799 501 843 q 478 738 504 763 q 414 710 453 713 q 368 689 385 708 q 351 643 351 669 l 351 542 q 412 513 388 539 q 436 450 436 488 q 413 388 436 413 q 351 360 389 363 l 351 46 q 338 -32 351 6 q 301 -99 325 -69 q 245 -153 278 -129 q 171 -189 213 -176 q 119 -197 146 -197 q 72 -185 93 -196 q 35 -156 50 -175 q 18 -106 19 -136 q 44 -44 18 -69 q 106 -17 69 -18 q 152 3 133 -17 q 171 49 171 24 l 171 360 q 111 385 133 360 q 86 450 89 410 q 110 512 86 486 q 171 542 133 538 l 171 644 q 189 735 171 692 q 239 813 207 779 q 314 867 271 847 q 406 888 357 888 z "},"…":{"ha":731,"x_min":44,"x_max":686,"o":"m 233 94 q 206 28 233 56 q 138 0 178 0 q 72 28 99 0 q 44 94 44 56 q 72 161 44 133 q 138 189 99 189 q 206 161 178 189 q 233 94 233 133 m 460 94 q 432 28 460 56 q 364 0 404 0 q 298 28 325 0 q 271 94 271 56 q 298 161 271 133 q 364 189 325 189 q 432 161 404 189 q 460 94 460 133 m 686 94 q 658 28 686 56 q 590 0 631 0 q 524 28 551 0 q 497 94 497 56 q 524 161 497 133 q 590 189 551 189 q 658 161 631 189 q 686 94 686 133 z "},"^":{"ha":790,"x_min":22,"x_max":768,"o":"m 301 835 q 342 879 318 863 q 394 896 367 896 q 446 878 421 896 q 490 835 471 860 l 754 428 q 752 356 768 392 q 700 306 736 321 q 628 308 664 292 q 568 361 593 324 l 394 613 l 218 361 q 160 308 196 324 q 89 306 125 292 q 38 356 53 321 q 36 428 22 392 l 301 835 z "},"±":{"ha":597,"x_min":29,"x_max":569,"o":"m 474 633 q 542 606 514 633 q 569 539 569 579 q 542 472 569 500 q 474 444 514 444 l 393 444 l 393 364 q 365 296 393 324 q 299 268 338 268 q 231 296 258 268 q 204 364 204 324 l 204 444 l 122 444 q 56 472 82 444 q 29 539 29 500 q 56 606 29 579 q 122 633 82 633 l 204 633 l 204 715 q 231 783 204 756 q 299 810 258 810 q 365 783 338 810 q 393 715 393 756 l 393 633 l 474 633 m 569 94 q 542 28 569 56 q 476 0 515 0 l 122 0 q 56 28 82 0 q 29 94 29 56 q 56 162 29 135 q 122 189 82 189 l 476 189 q 542 162 515 189 q 569 94 569 135 z "},"þ":{"ha":729,"x_min":49,"x_max":722,"o":"m 146 889 q 215 860 186 889 q 244 790 244 831 l 244 -87 q 215 -157 244 -128 q 146 -186 186 -186 q 77 -157 106 -186 q 49 -87 49 -128 l 49 790 q 77 860 49 831 q 146 889 106 889 m 139 886 q 174 880 157 888 q 203 860 190 872 q 224 830 217 847 q 231 794 231 813 l 231 635 q 331 667 279 660 q 435 667 383 675 q 535 637 486 660 q 625 575 583 614 q 698 467 674 525 q 722 336 722 410 q 695 206 722 267 q 622 99 668 144 q 515 26 576 53 q 386 0 454 0 q 258 27 319 0 q 151 100 197 54 q 76 207 104 146 q 49 336 49 268 l 49 801 q 57 834 49 818 q 78 862 65 850 q 106 881 90 874 q 139 886 122 888 m 231 336 q 243 276 231 304 q 277 226 256 247 q 326 193 299 206 q 386 181 354 181 q 445 193 417 181 q 495 226 474 206 q 529 276 517 247 q 542 336 542 304 q 529 397 542 368 q 495 446 517 425 q 445 479 474 467 q 386 492 417 492 q 326 478 354 492 q 277 444 299 465 q 243 394 256 422 q 231 336 231 365 z "},"¶":{"ha":283,"x_min":47,"x_max":233,"o":"m 142 886 q 206 858 179 886 q 233 793 233 831 l 233 93 q 206 27 233 54 q 142 0 179 0 q 74 27 101 0 q 47 93 47 54 l 47 793 q 74 858 47 831 q 142 886 101 886 z "},"›":{"ha":479,"x_min":43,"x_max":468,"o":"m 242 329 l 71 514 q 44 581 43 542 q 71 646 44 619 q 138 674 99 674 q 204 647 176 675 l 440 397 q 467 328 467 367 q 440 263 468 290 l 204 26 q 140 0 178 0 q 72 28 101 0 q 44 94 44 56 q 71 158 44 132 l 242 329 z "},"‹":{"ha":478,"x_min":10,"x_max":435,"o":"m 407 158 q 433 94 433 132 q 406 28 433 56 q 338 0 376 0 q 274 26 300 0 l 38 263 q 10 328 10 290 q 38 397 11 367 l 274 647 q 340 674 301 675 q 407 646 379 674 q 434 581 433 619 q 407 514 435 542 l 236 329 l 407 158 z "},"¬":{"ha":710,"x_min":11,"x_max":663,"o":"m 568 163 q 501 190 529 163 q 474 256 474 217 l 474 324 l 104 324 q 38 351 64 324 q 11 418 11 379 q 38 485 11 458 q 104 513 64 513 l 569 513 q 635 485 608 513 q 663 422 661 460 l 663 256 q 635 190 663 217 q 568 163 608 163 z "},"©":{"ha":1026,"x_min":32,"x_max":993,"o":"m 465 463 q 444 410 443 440 q 465 358 444 381 q 517 337 488 338 q 569 358 547 336 l 575 364 q 635 384 600 385 q 696 358 671 383 q 722 303 719 335 q 706 244 724 271 l 694 233 q 614 181 660 199 q 519 163 568 163 q 424 180 471 163 q 340 233 378 197 q 285 317 304 271 q 267 410 267 363 q 285 505 267 458 q 340 588 304 551 q 447 650 388 633 q 565 656 507 667 q 633 631 601 647 q 693 586 665 614 q 706 569 701 579 q 719 515 722 544 q 694 461 717 485 q 632 435 671 438 l 628 431 l 622 435 q 579 454 599 436 q 569 463 575 458 q 517 485 546 486 q 465 463 488 485 m 518 888 q 703 850 617 888 q 853 748 789 813 q 956 597 918 683 q 993 411 993 510 q 978 288 993 349 q 893 119 951 193 q 756 -1 835 44 q 583 -61 676 -47 q 393 -49 489 -75 q 224 35 299 -24 q 104 173 150 94 q 45 345 58 251 q 57 535 32 439 q 141 703 82 629 q 278 822 200 776 q 450 882 357 868 q 518 886 483 886 l 518 888 m 594 701 q 548 710 567 708 q 518 711 529 711 q 440 700 478 711 q 307 625 365 681 q 228 489 249 569 q 220 369 211 428 q 258 261 229 311 q 333 174 286 211 q 439 121 379 138 q 558 114 500 106 q 667 151 617 122 q 753 227 717 181 q 807 333 790 274 q 817 422 819 381 q 815 447 814 435 q 778 560 808 508 q 669 669 739 628 q 610 697 640 686 l 594 701 z "},"®":{"ha":1026,"x_min":32,"x_max":993,"o":"m 518 888 q 703 850 617 888 q 853 748 789 813 q 956 597 918 683 q 993 411 993 510 q 978 288 993 349 q 893 119 951 193 q 756 -1 835 44 q 583 -61 676 -47 q 393 -49 489 -75 q 224 35 299 -24 q 104 173 150 94 q 45 345 58 251 q 57 535 32 439 q 141 703 82 629 q 278 822 200 776 q 420 878 357 868 q 518 888 483 888 m 594 701 q 548 710 567 708 q 518 711 529 711 q 440 700 478 711 q 307 625 365 681 q 228 489 249 569 q 220 369 211 428 q 258 261 229 311 q 333 174 286 211 q 439 121 379 138 q 558 114 500 106 q 667 151 617 122 q 753 227 717 181 q 807 333 790 274 q 817 422 819 381 l 815 447 q 778 560 808 508 q 669 669 739 628 q 610 697 640 686 l 594 701 m 531 401 q 551 453 531 432 q 604 475 572 475 q 669 501 642 475 q 696 565 696 528 q 669 630 696 603 q 604 657 642 657 q 505 637 551 657 q 424 582 458 617 q 369 501 389 547 q 350 401 350 454 l 350 249 q 376 185 350 211 q 440 158 403 158 q 504 185 478 158 q 531 249 531 211 l 531 401 z "},"­":{"ha":626,"x_min":43,"x_max":583,"o":"m 583 418 q 556 351 583 379 q 490 324 529 324 l 136 324 q 69 351 96 324 q 43 418 43 379 q 69 485 43 458 q 136 513 96 513 l 490 513 q 556 485 529 513 q 583 418 583 458 z "},"™":{"ha":1158,"x_min":38,"x_max":1114,"o":"m 351 888 q 419 860 392 888 q 446 793 446 832 q 419 726 446 753 q 351 700 392 700 l 335 700 l 335 511 q 308 444 335 471 q 242 417 282 417 q 175 444 201 417 q 149 511 149 471 l 149 700 l 131 700 q 65 726 92 700 q 38 793 38 753 q 65 860 38 832 q 131 888 92 888 l 351 888 m 903 879 q 961 871 918 879 q 1042 831 1004 863 q 1097 756 1079 799 q 1114 653 1114 713 l 1114 503 q 1086 435 1114 463 q 1021 408 1058 408 q 953 435 981 408 q 926 503 926 463 l 926 628 q 920 667 926 654 q 903 681 914 681 q 885 667 892 681 q 878 628 878 654 l 878 503 q 851 435 878 463 q 785 408 824 408 q 719 435 746 408 q 692 503 692 463 l 692 628 q 685 667 692 654 q 667 681 679 681 q 649 667 656 681 q 643 628 643 654 l 643 503 q 616 435 643 463 q 549 408 589 408 q 483 435 510 408 q 456 503 456 463 l 456 653 q 470 751 456 707 q 523 828 485 796 q 599 869 561 860 q 667 879 636 879 q 717 874 692 879 q 785 849 743 868 q 851 873 825 867 q 903 879 876 879 z "},"ª":{"ha":611,"x_min":33,"x_max":571,"o":"m 308 888 q 493 806 417 888 q 571 622 568 726 l 571 433 q 544 369 571 396 q 481 343 517 343 q 417 369 443 343 q 308 346 367 346 q 110 423 188 350 q 33 629 33 496 q 119 813 38 738 q 308 888 200 888 m 304 707 q 241 682 268 707 q 213 621 214 657 q 238 552 213 576 q 304 526 264 528 q 366 553 340 526 q 392 617 392 581 q 366 680 392 653 q 304 707 340 707 z "},"º":{"ha":604,"x_min":33,"x_max":571,"o":"m 308 888 q 494 806 417 888 q 571 617 571 725 q 494 427 571 508 q 308 346 417 346 q 110 423 188 350 q 33 629 33 496 q 119 813 38 738 q 308 888 200 888 m 304 707 q 241 682 268 707 q 213 621 214 657 q 238 552 213 576 q 304 526 264 528 q 366 553 340 526 q 392 617 392 581 q 366 680 392 653 q 304 707 340 707 z "},"¤":{"ha":772,"x_min":43,"x_max":731,"o":"m 707 149 q 722 78 729 117 q 683 17 715 39 q 613 1 651 -7 q 551 40 575 8 l 490 128 q 388 113 442 113 q 282 128 332 113 l 221 40 q 160 1 199 8 q 90 17 122 -7 q 64 44 74 28 q 51 78 54 60 q 51 114 47 96 q 67 149 56 132 l 125 233 q 78 314 96 269 q 51 447 51 375 q 76 576 51 517 q 124 656 94 619 l 67 739 q 51 809 43 771 q 90 871 58 847 q 160 886 122 893 q 221 847 199 879 l 278 764 q 388 785 329 782 q 496 767 443 785 l 551 847 q 613 886 575 879 q 683 871 651 893 q 723 809 715 847 q 707 739 731 771 l 650 656 q 696 579 678 621 q 724 447 724 518 q 697 317 724 378 q 647 235 676 272 l 707 149 m 388 603 q 328 591 356 603 q 278 558 300 579 q 244 509 257 538 q 232 447 232 481 q 244 387 232 415 q 278 337 257 358 q 328 303 300 315 q 388 290 356 290 q 448 303 419 290 q 497 337 476 315 q 531 387 518 358 q 543 447 543 415 q 497 556 540 511 q 388 603 454 600 z "},"O":{"ha":750,"x_min":38,"x_max":713,"o":"m 376 0 q 246 24 307 0 q 139 92 185 49 q 65 196 93 136 q 38 325 38 256 l 38 551 q 63 682 38 621 q 134 789 89 743 q 240 861 179 835 q 376 888 301 888 q 504 863 443 888 q 611 795 565 839 q 685 692 657 751 q 713 563 713 632 l 713 336 q 687 206 713 267 q 616 99 661 144 q 510 26 571 53 q 376 0 449 0 m 532 551 q 520 612 532 583 q 487 661 508 640 q 437 694 465 682 q 375 707 408 707 q 314 695 342 707 q 265 664 286 683 q 232 617 244 644 q 219 558 219 589 l 219 336 q 230 276 218 304 q 263 226 242 247 q 313 193 285 206 q 378 181 342 181 q 436 192 408 181 q 485 224 464 204 q 518 271 506 243 q 531 329 531 299 l 532 551 z "},"P":{"ha":738,"x_min":49,"x_max":722,"o":"m 722 553 q 696 422 722 483 q 624 314 669 360 q 516 242 578 268 q 385 215 454 215 l 235 215 l 235 93 q 208 27 235 54 q 142 0 181 0 q 76 27 103 0 q 49 93 49 54 l 49 797 q 76 863 49 836 q 142 890 103 890 l 385 890 q 516 864 454 890 q 624 792 578 838 q 696 684 669 746 q 722 553 722 622 m 536 553 q 524 611 536 583 q 492 660 513 639 q 443 692 471 681 q 385 704 415 704 l 235 704 l 235 401 l 385 401 q 443 413 415 401 q 492 446 471 425 q 524 494 513 467 q 536 553 536 521 z "},"Q":{"ha":836,"x_min":36,"x_max":807,"o":"m 375 0 q 244 24 306 0 q 138 92 183 49 q 64 196 92 136 q 36 325 36 256 l 36 551 q 62 682 36 621 q 133 789 88 743 q 239 861 178 835 q 375 888 300 888 q 503 863 442 888 q 610 795 564 839 q 683 692 656 751 q 711 563 711 632 l 711 336 q 685 206 711 267 q 650 140 671 171 q 678 142 664 136 q 747 141 713 153 q 793 92 781 129 q 791 17 807 53 q 729 -35 775 -18 q 642 -48 683 -50 q 560 -24 601 -46 q 500 22 526 -6 q 375 0 442 0 m 531 551 q 519 612 531 583 q 485 661 507 640 q 435 694 464 682 q 374 707 407 707 q 313 695 340 707 q 264 664 285 683 q 231 617 243 644 q 218 558 218 589 l 218 339 q 285 382 244 368 q 381 397 336 400 q 467 376 426 393 q 529 339 500 364 l 531 551 m 368 179 q 419 186 399 181 q 390 217 411 207 q 335 211 367 226 q 315 190 321 200 q 368 179 343 181 z "},"G":{"ha":747,"x_min":38,"x_max":714,"o":"m 374 0 q 246 25 306 1 q 139 94 185 50 q 65 197 93 138 q 38 326 38 257 l 38 553 q 63 683 38 622 q 134 790 89 744 q 240 863 179 836 q 376 889 301 889 q 449 882 417 889 q 554 844 506 872 q 671 728 628 803 q 681 704 676 718 q 686 678 686 690 q 658 611 686 639 q 592 583 631 583 q 542 599 561 583 q 507 639 522 615 q 461 683 490 667 q 400 707 438 697 q 375 708 389 708 q 314 697 342 708 q 265 665 286 685 q 232 618 244 646 q 219 560 219 590 l 219 338 q 230 274 218 299 q 263 228 242 249 q 313 194 285 207 q 378 181 342 182 q 438 192 414 181 q 483 223 463 203 q 515 271 503 243 q 528 328 528 299 l 496 328 q 431 355 458 328 q 404 421 404 382 q 431 488 404 461 q 496 515 458 515 l 618 515 q 685 488 658 515 q 714 421 711 461 l 714 336 q 684 206 710 267 q 613 99 658 144 q 507 26 568 53 q 374 0 446 0 z "},"‰":{"ha":1682,"x_min":31,"x_max":1665,"o":"m 726 885 q 782 839 764 874 q 789 768 800 804 l 567 67 q 520 13 556 31 q 449 6 485 -6 q 394 51 413 17 q 388 124 376 85 l 610 824 q 655 879 621 861 q 726 885 689 897 m 276 888 q 442 815 374 888 q 510 644 510 743 q 442 478 510 550 q 276 406 374 406 q 99 474 168 408 q 31 658 31 539 q 107 821 35 754 q 276 888 179 888 m 274 718 q 222 697 243 718 q 199 649 200 676 q 220 593 199 613 q 274 572 242 574 q 323 594 301 572 q 344 644 344 617 q 323 697 344 675 q 274 718 301 718 m 918 486 q 1083 414 1015 486 q 1151 243 1151 342 q 1083 76 1151 149 q 918 4 1015 4 q 741 72 810 7 q 672 257 672 138 q 749 419 676 353 q 918 486 821 486 m 915 317 q 863 296 885 317 q 840 247 842 275 q 862 192 840 211 q 915 171 883 172 q 965 193 943 171 q 986 243 986 215 q 965 295 986 274 q 915 317 943 317 m 1432 486 q 1597 414 1529 486 q 1665 243 1665 342 q 1597 76 1665 149 q 1432 4 1529 4 q 1255 72 1324 7 q 1186 257 1186 138 q 1263 419 1190 353 q 1432 486 1335 486 m 1429 317 q 1377 296 1399 317 q 1354 247 1356 275 q 1376 192 1354 211 q 1429 171 1397 172 q 1478 193 1457 171 q 1500 243 1500 215 q 1478 295 1500 274 q 1429 317 1457 317 z "},"b":{"ha":732,"x_min":43,"x_max":717,"o":"m 133 886 q 168 880 151 888 q 198 860 185 872 q 218 830 211 847 q 225 794 225 813 l 225 635 q 326 667 274 660 q 429 667 378 675 q 529 637 481 660 q 619 575 578 614 q 692 467 668 525 q 717 336 717 410 q 690 206 717 267 q 617 99 663 144 q 510 26 571 53 q 381 0 449 0 q 253 27 314 0 q 145 100 192 54 q 71 207 99 146 q 43 336 43 268 l 43 801 q 51 834 43 818 q 72 862 60 850 q 101 881 85 874 q 133 886 117 888 m 225 336 q 238 276 225 304 q 272 226 250 247 q 321 193 293 206 q 381 181 349 181 q 440 193 411 181 q 490 226 468 206 q 524 276 511 247 q 536 336 536 304 q 524 397 536 368 q 490 446 511 425 q 440 479 468 467 q 381 492 411 492 q 321 478 349 492 q 272 444 293 465 q 238 394 250 422 q 225 336 225 365 z "},"e":{"ha":733,"x_min":33,"x_max":707,"o":"m 369 672 q 497 644 436 672 q 605 570 558 617 q 679 463 651 524 q 707 336 707 403 q 680 279 707 300 q 613 260 653 258 l 243 260 q 369 181 289 181 q 407 185 392 181 q 434 194 422 189 q 458 204 446 200 q 485 208 469 208 q 535 192 514 207 q 567 153 557 176 q 574 104 578 131 q 550 56 571 78 q 467 13 513 25 q 369 0 421 1 q 242 24 303 -3 q 134 98 181 51 q 60 207 88 144 q 33 336 33 269 q 60 463 33 401 q 133 570 88 524 q 240 644 179 617 q 369 672 301 672 m 496 414 q 440 474 472 457 q 369 492 408 492 q 298 474 329 492 q 243 414 267 457 l 496 414 z "},"Œ":{"ha":1428,"x_min":176,"x_max":1257,"o":"m 515 0 q 385 24 446 0 q 278 92 324 49 q 204 196 232 136 q 176 325 176 256 l 176 551 q 202 682 176 621 q 273 789 228 743 q 379 861 318 835 q 515 888 440 888 q 643 863 582 888 q 750 795 704 839 q 824 692 796 751 q 851 563 851 632 l 851 336 q 826 206 851 267 q 755 99 800 144 q 649 26 710 53 q 515 0 588 0 m 671 551 q 659 612 671 583 q 626 661 647 640 q 576 694 604 682 q 514 707 547 707 q 453 695 481 707 q 404 664 425 683 q 371 617 383 644 q 358 558 358 589 l 358 336 q 369 276 357 304 q 402 226 381 247 q 452 193 424 206 q 517 181 481 181 q 575 192 547 181 q 624 224 603 204 q 657 271 644 243 q 669 329 669 299 l 671 551 m 1164 188 q 1230 160 1203 188 q 1257 94 1257 132 q 1230 27 1257 54 q 1164 0 1203 0 l 767 0 q 702 27 731 0 q 674 94 674 54 l 674 793 q 700 858 674 829 q 767 888 726 888 l 1164 888 q 1230 860 1203 888 q 1257 793 1257 832 q 1230 726 1257 753 q 1164 700 1203 700 l 858 700 l 858 542 l 1071 542 q 1136 514 1108 542 q 1164 447 1164 486 q 1136 381 1164 408 q 1071 354 1108 354 l 858 354 l 858 188 l 1164 188 z "},"Ò":{"ha":750,"x_min":38,"x_max":713,"o":"m 376 0 q 246 24 307 0 q 139 92 185 49 q 65 196 93 136 q 38 325 38 256 l 38 551 q 63 682 38 621 q 134 789 89 743 q 240 861 179 835 q 376 888 301 888 q 504 863 443 888 q 611 795 565 839 q 685 692 657 751 q 713 563 713 632 l 713 336 q 687 206 713 267 q 616 99 661 144 q 510 26 571 53 q 376 0 449 0 m 532 551 q 520 612 532 583 q 487 661 508 640 q 437 694 465 682 q 375 707 408 707 q 314 695 342 707 q 265 664 286 683 q 232 617 244 644 q 219 558 219 589 l 219 336 q 230 276 218 304 q 263 226 242 247 q 313 193 285 206 q 378 181 342 181 q 436 192 408 181 q 485 224 464 204 q 518 271 506 243 q 531 329 531 299 l 532 551 m 174 1132 q 217 1188 183 1169 q 286 1197 251 1207 l 454 1153 q 512 1109 493 1142 q 521 1039 531 1076 q 477 980 511 1000 q 406 969 443 960 l 239 1015 q 183 1058 201 1025 q 174 1132 164 1092 z "},"Ó":{"ha":750,"x_min":38,"x_max":713,"o":"m 376 0 q 246 24 307 0 q 139 92 185 49 q 65 196 93 136 q 38 325 38 256 l 38 551 q 63 682 38 621 q 134 789 89 743 q 240 861 179 835 q 376 888 301 888 q 504 863 443 888 q 611 795 565 839 q 685 692 657 751 q 713 563 713 632 l 713 336 q 687 206 713 267 q 616 99 661 144 q 510 26 571 53 q 376 0 449 0 m 532 551 q 520 612 532 583 q 487 661 508 640 q 437 694 465 682 q 375 707 408 707 q 314 695 342 707 q 265 664 286 683 q 232 617 244 644 q 219 558 219 589 l 219 336 q 230 276 218 304 q 263 226 242 247 q 313 193 285 206 q 378 181 342 181 q 436 192 408 181 q 485 224 464 204 q 518 271 506 243 q 531 329 531 299 l 532 551 m 583 1131 q 574 1057 593 1090 q 518 1014 556 1024 l 351 968 q 280 978 314 958 q 236 1038 246 999 q 245 1108 226 1075 q 303 1151 264 1140 l 471 1196 q 540 1187 506 1206 q 583 1131 574 1168 z "},"Ö":{"ha":750,"x_min":38,"x_max":713,"o":"m 376 0 q 246 24 307 0 q 139 92 185 49 q 65 196 93 136 q 38 325 38 256 l 38 551 q 63 682 38 621 q 134 789 89 743 q 240 861 179 835 q 376 888 301 888 q 504 863 443 888 q 611 795 565 839 q 685 692 657 751 q 713 563 713 632 l 713 336 q 687 206 713 267 q 616 99 661 144 q 510 26 571 53 q 376 0 449 0 m 532 551 q 520 612 532 583 q 487 661 508 640 q 437 694 465 682 q 375 707 408 707 q 314 695 342 707 q 265 664 286 683 q 232 617 244 644 q 219 558 219 589 l 219 336 q 230 276 218 304 q 263 226 242 247 q 313 193 285 206 q 378 181 342 181 q 436 192 408 181 q 485 224 464 204 q 518 271 506 243 q 531 329 531 299 l 532 551 m 335 1093 q 307 1026 335 1054 q 239 999 279 999 q 173 1026 200 999 q 146 1093 146 1054 q 173 1160 146 1132 q 239 1188 200 1188 q 307 1160 279 1188 q 335 1093 335 1132 m 603 1093 q 575 1026 603 1054 q 507 999 547 999 q 441 1026 468 999 q 414 1093 414 1054 q 441 1160 414 1132 q 507 1188 468 1188 q 575 1160 547 1188 q 603 1093 603 1132 z "},"Õ":{"ha":750,"x_min":38,"x_max":713,"o":"m 376 0 q 246 24 307 0 q 139 92 185 49 q 65 196 93 136 q 38 325 38 256 l 38 551 q 63 682 38 621 q 134 789 89 743 q 240 861 179 835 q 376 888 301 888 q 504 863 443 888 q 611 795 565 839 q 685 692 657 751 q 713 563 713 632 l 713 336 q 687 206 713 267 q 616 99 661 144 q 510 26 571 53 q 376 0 449 0 m 532 551 q 520 612 532 583 q 487 661 508 640 q 437 694 465 682 q 375 707 408 707 q 314 695 342 707 q 265 664 286 683 q 232 617 244 644 q 219 558 219 589 l 219 336 q 230 276 218 304 q 263 226 242 247 q 313 193 285 206 q 378 181 342 181 q 436 192 408 181 q 485 224 464 204 q 518 271 506 243 q 531 329 531 299 l 532 551 m 386 1190 l 454 1153 q 489 1141 476 1138 q 519 1167 501 1144 q 570 1211 538 1197 q 639 1204 603 1225 q 685 1147 674 1185 q 672 1068 697 1110 q 615 999 647 1025 q 538 964 582 974 q 442 965 493 954 q 364 992 390 975 l 294 1029 q 257 1037 274 1043 q 231 1014 240 1031 q 178 971 211 985 q 110 978 146 957 q 64 1035 75 997 q 76 1114 53 1072 q 134 1182 101 1157 q 211 1217 167 1207 q 305 1218 256 1228 q 386 1190 354 1208 z "},"Ô":{"ha":750,"x_min":38,"x_max":713,"o":"m 376 0 q 246 24 307 0 q 139 92 185 49 q 65 196 93 136 q 38 325 38 256 l 38 551 q 63 682 38 621 q 134 789 89 743 q 240 861 179 835 q 376 888 301 888 q 504 863 443 888 q 611 795 565 839 q 685 692 657 751 q 713 563 713 632 l 713 336 q 687 206 713 267 q 616 99 661 144 q 510 26 571 53 q 376 0 449 0 m 532 551 q 520 612 532 583 q 487 661 508 640 q 437 694 465 682 q 375 707 408 707 q 314 695 342 707 q 265 664 286 683 q 232 617 244 644 q 219 558 219 589 l 219 336 q 230 276 218 304 q 263 226 242 247 q 313 193 285 206 q 378 181 342 181 q 436 192 408 181 q 485 224 464 204 q 518 271 506 243 q 531 329 531 299 l 532 551 m 256 958 q 191 932 229 932 q 125 960 153 932 q 104 1027 97 989 q 138 1092 111 1065 l 304 1258 q 370 1285 332 1286 q 439 1258 408 1285 l 619 1092 q 653 1025 647 1064 q 632 958 660 986 q 567 931 606 932 q 500 958 528 931 l 371 1074 l 256 958 z "},"Ø":{"ha":750,"x_min":38,"x_max":713,"o":"m 376 0 q 246 24 307 0 q 139 92 185 49 q 65 196 93 136 q 38 325 38 256 l 38 551 q 63 682 38 621 q 134 789 89 743 q 240 861 179 835 q 376 888 301 888 q 504 863 443 888 q 611 795 565 839 q 685 692 657 751 q 713 563 713 632 l 713 336 q 687 206 713 267 q 616 99 661 144 q 510 26 571 53 q 376 0 449 0 m 532 551 q 520 612 532 583 q 487 661 508 640 q 437 694 465 682 q 375 707 408 707 q 314 695 342 707 q 265 664 286 683 q 232 617 244 644 q 219 558 219 589 l 219 336 q 230 276 218 304 q 263 226 242 247 q 313 193 285 206 q 378 181 342 181 q 436 192 408 181 q 485 224 464 204 q 518 271 506 243 q 531 329 531 299 l 532 551 m 514 883 q 568 838 550 872 q 575 767 586 803 l 353 65 q 307 11 342 29 q 236 4 272 -7 q 181 49 199 15 q 174 122 163 83 l 396 822 q 442 878 407 860 q 514 883 478 896 z "},"í":{"ha":419,"x_min":42,"x_max":408,"o":"m 136 671 q 201 643 174 671 q 228 578 228 615 l 228 93 q 201 27 228 54 q 136 0 174 0 q 69 27 96 0 q 42 93 42 54 l 42 578 q 69 643 42 615 q 136 671 96 671 m 399 913 q 390 839 408 872 q 333 796 371 806 l 167 750 q 95 760 129 740 q 51 819 61 781 q 60 890 42 857 q 118 933 79 922 l 286 978 q 355 969 321 988 q 399 913 389 950 z "},"ì":{"ha":419,"x_min":13,"x_max":379,"o":"m 281 671 q 345 643 318 671 q 372 578 372 615 l 372 93 q 345 27 372 54 q 281 0 318 0 q 213 27 240 0 q 186 93 186 54 l 186 578 q 213 643 186 615 q 281 671 240 671 m 22 913 q 66 969 32 950 q 135 978 100 988 l 303 933 q 360 890 342 922 q 369 819 379 857 q 326 760 360 781 q 254 750 292 740 l 88 796 q 31 839 50 806 q 22 913 13 872 z "},"ˇ":{"ha":614,"x_min":26,"x_max":589,"o":"m 300 971 l 429 1086 q 496 1113 457 1114 q 561 1086 535 1113 q 583 1019 589 1058 q 549 953 576 981 l 368 786 q 299 759 338 760 q 233 786 261 758 l 67 953 q 33 1017 40 979 q 54 1085 26 1056 q 120 1113 82 1113 q 185 1086 158 1113 l 300 971 z "},"ž":{"ha":768,"x_min":44,"x_max":721,"o":"m 632 672 q 694 646 668 672 q 721 583 721 617 q 694 519 721 546 q 681 506 688 513 q 667 492 674 499 q 512 337 589 414 q 356 182 435 260 l 632 182 q 694 154 667 181 q 721 89 721 125 q 694 26 721 56 q 632 0 665 0 l 628 0 l 175 0 l 140 0 l 136 0 q 74 26 100 0 q 47 89 46 54 q 72 151 44 126 l 411 492 l 140 492 l 136 492 q 74 519 99 494 q 47 583 44 546 q 74 646 46 618 q 136 672 99 672 l 632 672 m 418 925 l 547 1040 q 614 1067 575 1068 q 679 1040 653 1067 q 701 974 707 1013 q 667 907 694 935 l 486 740 q 417 713 456 714 q 351 740 379 713 l 185 907 q 151 972 158 933 q 172 1039 144 1010 q 238 1067 200 1067 q 303 1040 276 1067 l 418 925 z "},"č":{"ha":664,"x_min":32,"x_max":629,"o":"m 369 672 q 606 575 508 672 q 627 513 629 549 q 600 453 625 476 q 536 428 575 429 q 472 453 497 426 q 369 492 429 492 q 309 478 338 492 q 259 444 281 465 q 225 394 238 422 q 213 336 213 367 q 225 276 213 304 q 260 226 238 247 q 310 192 282 204 q 369 181 338 179 q 472 218 431 181 q 536 246 497 246 q 600 218 575 246 q 619 192 613 207 q 627 160 626 176 q 622 127 628 143 q 606 99 617 111 q 499 25 557 50 q 369 0 440 0 q 239 27 300 0 q 132 100 178 54 q 59 207 86 146 q 32 336 32 268 q 59 464 32 403 q 133 571 86 525 q 240 644 179 617 q 369 672 301 672 m 338 931 l 467 1046 q 533 1073 494 1074 q 599 1046 572 1072 q 620 979 626 1018 q 586 913 614 940 l 406 746 q 337 719 375 719 q 271 746 299 718 l 104 913 q 71 977 78 939 q 92 1044 64 1015 q 158 1072 119 1072 q 222 1046 196 1072 l 338 931 z "},"ě":{"ha":733,"x_min":33,"x_max":707,"o":"m 369 672 q 497 644 436 672 q 605 570 558 617 q 679 463 651 524 q 707 336 707 403 q 680 279 707 300 q 613 260 653 258 l 243 260 q 369 181 289 181 q 407 185 392 181 q 434 194 422 189 q 458 204 446 200 q 485 208 469 208 q 535 192 514 207 q 567 153 557 176 q 574 104 578 131 q 550 56 571 78 q 467 13 513 25 q 369 0 421 1 q 242 24 303 -3 q 134 98 181 51 q 60 207 88 144 q 33 336 33 269 q 60 463 33 401 q 133 570 88 524 q 240 644 179 617 q 369 672 301 672 m 496 414 q 440 474 472 457 q 369 492 408 492 q 298 474 329 492 q 243 414 267 457 l 496 414 m 372 931 l 501 1046 q 568 1073 529 1074 q 633 1046 607 1072 q 655 979 661 1018 q 621 913 649 940 l 440 746 q 372 719 410 719 q 306 746 333 718 l 139 913 q 106 977 113 939 q 126 1044 99 1015 q 192 1072 154 1072 q 257 1046 231 1072 l 372 931 z "},"˛":{"ha":328,"x_min":19,"x_max":301,"o":"m 160 -292 q 106 -281 131 -292 q 61 -251 81 -269 q 31 -206 42 -232 q 19 -151 19 -181 q 26 -106 19 -128 q 47 -67 33 -85 q 92 -27 65 -43 q 153 -10 119 -11 l 153 101 q 166 128 153 114 q 200 142 179 142 q 233 128 219 142 q 246 101 246 114 l 246 -57 l 246 -61 q 232 -91 246 -79 q 200 -104 218 -103 l 154 -104 q 124 -120 136 -107 q 113 -151 113 -133 q 126 -186 113 -172 q 160 -200 140 -200 q 194 -186 181 -200 q 208 -151 208 -172 q 222 -119 208 -132 q 256 -106 236 -106 q 287 -117 274 -106 q 301 -146 300 -128 q 291 -200 301 -174 q 263 -247 281 -226 q 218 -280 244 -268 q 160 -292 192 -292 z "},"ę":{"ha":733,"x_min":33,"x_max":707,"o":"m 369 672 q 497 644 436 672 q 605 570 558 617 q 679 463 651 524 q 707 336 707 403 q 680 279 707 300 q 613 260 653 258 l 243 260 q 369 181 289 181 q 407 185 392 181 q 434 194 422 189 q 458 204 446 200 q 485 208 469 208 q 535 192 514 207 q 567 153 557 176 q 574 104 578 131 q 550 56 571 78 q 467 13 513 25 q 369 0 421 1 q 242 24 303 -3 q 134 98 181 51 q 60 207 88 144 q 33 336 33 269 q 60 463 33 401 q 133 570 88 524 q 240 644 179 617 q 369 672 301 672 m 496 414 q 440 474 472 457 q 369 492 408 492 q 298 474 329 492 q 243 414 267 457 l 496 414 m 321 -314 q 267 -303 292 -314 q 222 -273 242 -292 q 192 -228 203 -254 q 181 -174 181 -203 q 188 -128 181 -150 q 208 -89 194 -107 q 253 -49 226 -65 q 314 -32 281 -33 l 314 79 q 327 106 314 92 q 361 119 340 119 q 394 106 381 119 q 407 79 407 92 l 407 -79 l 407 -83 q 393 -113 407 -101 q 361 -126 379 -125 l 315 -126 q 285 -142 297 -129 q 274 -174 274 -156 q 288 -208 274 -194 q 321 -222 301 -222 q 356 -208 342 -222 q 369 -174 369 -194 q 383 -141 369 -154 q 417 -128 397 -128 q 448 -139 435 -128 q 463 -168 461 -150 q 452 -222 463 -196 q 424 -269 442 -249 q 379 -302 406 -290 q 321 -314 353 -314 z "},"Ę":{"ha":678,"x_min":49,"x_max":632,"o":"m 539 188 q 605 160 578 188 q 632 94 632 132 q 605 27 632 54 q 539 0 578 0 l 142 0 q 77 27 106 0 q 49 94 49 54 l 49 793 q 75 858 49 829 q 142 888 101 888 l 539 888 q 605 860 578 888 q 632 793 632 832 q 605 726 632 753 q 539 700 578 700 l 233 700 l 233 542 l 446 542 q 511 514 483 542 q 539 447 539 486 q 511 381 539 408 q 446 354 483 354 l 233 354 l 233 188 l 539 188 m 303 -308 q 249 -297 274 -308 q 204 -267 224 -286 q 174 -223 185 -249 q 163 -168 163 -197 q 169 -123 163 -144 q 190 -83 176 -101 q 235 -44 208 -60 q 296 -26 263 -28 l 296 85 q 309 111 296 97 q 343 125 322 125 q 376 111 363 125 q 389 85 389 97 l 389 -74 l 389 -78 q 375 -108 389 -96 q 343 -121 361 -119 l 297 -121 q 267 -137 279 -124 q 256 -168 256 -150 q 269 -203 256 -189 q 303 -217 283 -217 q 338 -203 324 -217 q 351 -168 351 -189 q 365 -135 351 -149 q 399 -122 379 -122 q 430 -133 417 -122 q 444 -162 443 -144 q 434 -217 444 -190 q 406 -264 424 -243 q 361 -297 388 -285 q 303 -308 335 -308 z "},"Ž":{"ha":769,"x_min":46,"x_max":724,"o":"m 631 188 q 697 160 671 188 q 724 94 724 132 q 697 27 724 54 q 631 0 671 0 l 142 0 q 93 15 114 1 q 61 49 72 28 q 50 94 50 69 q 64 144 50 119 l 65 146 l 446 700 l 139 700 q 74 726 101 700 q 46 793 46 753 q 74 860 46 832 q 139 888 101 888 l 628 888 q 676 872 654 886 q 709 837 697 858 q 721 790 721 815 q 706 739 721 764 l 322 188 l 631 188 m 390 1135 l 519 1250 q 586 1277 547 1278 q 651 1250 625 1276 q 673 1183 679 1222 q 639 1117 667 1144 l 458 950 q 390 923 428 924 q 324 950 351 922 l 157 1117 q 124 1181 131 1143 q 144 1249 117 1219 q 210 1276 172 1276 q 275 1250 249 1276 l 390 1135 z "},"ň":{"ha":756,"x_min":40,"x_max":714,"o":"m 378 676 q 506 652 444 676 q 613 584 567 628 q 686 481 658 540 q 714 351 714 421 l 714 94 q 688 32 714 58 q 625 4 663 6 q 560 28 588 4 q 533 90 533 53 l 533 340 q 522 401 533 372 q 488 450 510 429 q 438 483 467 471 q 376 496 410 496 q 318 484 346 496 q 269 453 290 472 q 236 406 249 433 q 224 347 224 378 l 224 94 q 196 31 224 58 q 132 4 168 4 q 68 29 96 4 q 40 90 40 54 l 40 340 q 67 471 42 410 q 138 578 93 532 q 244 650 183 624 q 378 676 306 676 m 369 926 l 499 1042 q 565 1069 526 1069 q 631 1042 604 1068 q 652 975 658 1014 q 618 908 646 936 l 438 742 q 369 715 407 715 q 303 742 331 714 l 136 908 q 103 973 110 935 q 124 1040 96 1011 q 190 1068 151 1068 q 254 1042 228 1068 l 369 926 z "},"Ň":{"ha":760,"x_min":43,"x_max":717,"o":"m 381 883 q 508 859 447 883 q 615 791 569 835 q 689 688 661 747 q 717 558 717 628 l 717 90 q 691 28 717 54 q 628 0 665 1 q 563 24 590 0 q 536 86 536 49 l 536 547 q 524 608 536 579 q 491 657 513 636 q 441 690 469 678 q 379 703 413 703 q 321 691 349 703 q 272 660 293 679 q 239 613 251 640 q 226 554 226 585 l 226 90 q 199 27 226 54 q 135 0 171 0 q 71 25 99 0 q 43 86 43 50 l 43 547 q 70 678 44 617 q 141 785 96 739 q 247 857 186 831 q 381 883 308 883 m 372 1144 l 501 1260 q 568 1287 529 1288 q 633 1260 607 1286 q 655 1193 661 1232 q 621 1126 649 1154 l 440 960 q 372 933 410 933 q 306 960 333 932 l 139 1126 q 106 1191 113 1153 q 126 1258 99 1229 q 192 1286 154 1286 q 257 1260 231 1286 l 372 1144 z "},"ź":{"ha":767,"x_min":44,"x_max":721,"o":"m 632 672 q 694 646 668 672 q 721 583 721 617 q 694 519 721 546 q 681 506 688 513 q 667 492 674 499 q 512 337 589 414 q 356 182 435 260 l 632 182 q 694 154 667 181 q 721 89 721 125 q 694 26 721 56 q 632 0 665 0 l 628 0 l 175 0 l 140 0 l 136 0 q 74 26 100 0 q 47 89 46 54 q 72 151 44 126 l 411 492 l 140 492 l 136 492 q 74 519 99 494 q 47 583 44 546 q 74 646 46 618 q 136 672 99 672 l 632 672 m 640 913 q 631 839 650 872 q 575 796 613 806 l 408 750 q 337 760 371 740 q 293 819 303 781 q 302 890 283 857 q 360 933 321 922 l 528 978 q 597 969 563 988 q 640 913 631 950 z "},"Č":{"ha":719,"x_min":38,"x_max":686,"o":"m 593 303 q 658 276 631 303 q 686 208 686 249 q 681 182 686 194 q 669 156 676 169 q 556 42 629 85 q 389 0 482 0 l 376 0 q 246 24 307 0 q 139 92 185 49 q 65 196 93 136 q 38 325 38 256 l 38 551 q 63 682 38 621 q 134 789 89 743 q 240 861 179 835 q 376 888 301 888 q 449 881 417 888 q 554 843 506 871 q 671 726 628 801 q 681 703 676 717 q 686 676 686 689 q 658 610 686 638 q 592 582 631 582 q 542 598 561 582 q 507 638 522 614 q 461 682 490 665 q 400 706 438 696 q 375 707 389 707 q 314 695 342 707 q 265 664 286 683 q 232 617 244 644 q 219 558 219 589 l 219 336 q 230 276 218 304 q 263 226 242 247 q 313 193 285 206 q 378 181 342 181 l 394 181 q 461 204 436 189 q 507 249 489 221 q 539 288 522 272 q 593 303 556 303 m 351 1149 l 481 1264 q 547 1291 508 1292 q 613 1264 586 1290 q 634 1197 640 1236 q 600 1131 628 1158 l 419 964 q 351 937 389 938 q 285 964 313 936 l 118 1131 q 85 1195 92 1157 q 106 1263 78 1233 q 172 1290 133 1290 q 236 1264 210 1290 l 351 1149 z "},"Ě":{"ha":678,"x_min":49,"x_max":632,"o":"m 539 188 q 605 160 578 188 q 632 94 632 132 q 605 27 632 54 q 539 0 578 0 l 142 0 q 77 27 106 0 q 49 94 49 54 l 49 793 q 75 858 49 829 q 142 888 101 888 l 539 888 q 605 860 578 888 q 632 793 632 832 q 605 726 632 753 q 539 700 578 700 l 233 700 l 233 542 l 446 542 q 511 514 483 542 q 539 447 539 486 q 511 381 539 408 q 446 354 483 354 l 233 354 l 233 188 l 539 188 m 331 1140 l 460 1256 q 526 1283 488 1283 q 592 1256 565 1282 q 613 1189 619 1228 q 579 1122 607 1150 l 399 956 q 330 928 368 929 q 264 956 292 928 l 97 1122 q 64 1187 71 1149 q 85 1254 57 1225 q 151 1282 113 1282 q 215 1256 189 1282 l 331 1140 z "},"ń":{"ha":756,"x_min":40,"x_max":714,"o":"m 378 676 q 506 652 444 676 q 613 584 567 628 q 686 481 658 540 q 714 351 714 421 l 714 94 q 688 32 714 58 q 625 4 663 6 q 560 28 588 4 q 533 90 533 53 l 533 340 q 522 401 533 372 q 488 450 510 429 q 438 483 467 471 q 376 496 410 496 q 318 484 346 496 q 269 453 290 472 q 236 406 249 433 q 224 347 224 378 l 224 94 q 196 31 224 58 q 132 4 168 4 q 68 29 96 4 q 40 90 40 54 l 40 340 q 67 471 42 410 q 138 578 93 532 q 244 650 183 624 q 378 676 306 676 m 607 906 q 598 832 617 865 q 542 789 579 799 l 375 743 q 303 753 338 733 q 260 813 269 774 q 269 883 250 850 q 326 926 288 915 l 494 971 q 563 962 529 981 q 607 906 597 943 z "},"ř":{"ha":474,"x_min":-43,"x_max":519,"o":"m 126 -1 q 64 23 89 -1 q 36 88 39 47 l 36 344 q 65 470 38 411 q 137 573 92 529 q 242 642 182 617 q 371 671 303 668 q 435 644 410 671 q 464 581 461 618 q 438 517 464 543 q 372 490 411 492 q 313 478 340 490 q 264 446 285 467 q 231 397 243 425 q 218 335 218 368 l 218 82 q 191 22 215 46 q 126 -1 167 -1 m 231 931 l 360 1046 q 426 1073 388 1074 q 492 1046 465 1072 q 513 979 519 1018 q 479 913 507 940 l 299 746 q 230 719 268 719 q 164 746 192 718 l -3 913 q -36 977 -29 939 q -15 1044 -43 1015 q 51 1072 13 1072 q 115 1046 89 1072 l 231 931 z "},"Ć":{"ha":719,"x_min":38,"x_max":686,"o":"m 593 303 q 658 276 631 303 q 686 208 686 249 q 681 182 686 194 q 669 156 676 169 q 556 42 629 85 q 389 0 482 0 l 376 0 q 246 24 307 0 q 139 92 185 49 q 65 196 93 136 q 38 325 38 256 l 38 551 q 63 682 38 621 q 134 789 89 743 q 240 861 179 835 q 376 888 301 888 q 449 881 417 888 q 554 843 506 871 q 671 726 628 801 q 681 703 676 717 q 686 676 686 689 q 658 610 686 638 q 592 582 631 582 q 542 598 561 582 q 507 638 522 614 q 461 682 490 665 q 400 706 438 696 q 375 707 389 707 q 314 695 342 707 q 265 664 286 683 q 232 617 244 644 q 219 558 219 589 l 219 336 q 230 276 218 304 q 263 226 242 247 q 313 193 285 206 q 378 181 342 181 l 394 181 q 461 204 436 189 q 507 249 489 221 q 539 288 522 272 q 593 303 556 303 m 644 1132 q 635 1058 654 1092 q 579 1015 617 1025 l 413 969 q 341 980 375 960 q 297 1039 307 1000 q 306 1109 288 1076 q 364 1153 325 1142 l 532 1197 q 601 1188 567 1207 q 644 1132 635 1169 z "},"Ź":{"ha":769,"x_min":46,"x_max":724,"o":"m 631 188 q 697 160 671 188 q 724 94 724 132 q 697 27 724 54 q 631 0 671 0 l 142 0 q 93 15 114 1 q 61 49 72 28 q 50 94 50 69 q 64 144 50 119 l 65 146 l 446 700 l 139 700 q 74 726 101 700 q 46 793 46 753 q 74 860 46 832 q 139 888 101 888 l 628 888 q 676 872 654 886 q 709 837 697 858 q 721 790 721 815 q 706 739 721 764 l 322 188 l 631 188 m 656 1132 q 647 1058 665 1092 q 590 1015 628 1025 l 424 969 q 352 980 386 960 q 308 1039 318 1000 q 317 1109 299 1076 q 375 1153 336 1142 l 543 1197 q 612 1188 578 1207 q 656 1132 646 1169 z "},"Ť":{"ha":728,"x_min":21,"x_max":707,"o":"m 613 888 q 680 860 653 888 q 707 793 707 832 q 680 726 707 753 q 613 700 653 700 l 457 700 l 457 94 q 431 27 457 54 q 364 0 404 0 q 297 27 324 0 q 271 94 271 54 l 271 700 l 114 700 q 48 726 75 700 q 21 793 21 753 q 48 860 21 832 q 114 888 75 888 l 613 888 m 358 1143 l 488 1258 q 554 1285 515 1286 q 619 1258 593 1285 q 641 1192 647 1231 q 607 1125 635 1153 l 426 958 q 358 931 396 932 q 292 958 319 931 l 125 1125 q 92 1190 99 1151 q 113 1257 85 1228 q 178 1285 140 1285 q 243 1258 217 1285 l 358 1143 z "},"ć":{"ha":664,"x_min":32,"x_max":629,"o":"m 369 672 q 606 575 508 672 q 627 513 629 549 q 600 453 625 476 q 536 428 575 429 q 472 453 497 426 q 369 492 429 492 q 309 478 338 492 q 259 444 281 465 q 225 394 238 422 q 213 336 213 367 q 225 276 213 304 q 260 226 238 247 q 310 192 282 204 q 369 181 338 179 q 472 218 431 181 q 536 246 497 246 q 600 218 575 246 q 619 192 613 207 q 627 160 626 176 q 622 127 628 143 q 606 99 617 111 q 499 25 557 50 q 369 0 440 0 q 239 27 300 0 q 132 100 178 54 q 59 207 86 146 q 32 336 32 268 q 59 464 32 403 q 133 571 86 525 q 240 644 179 617 q 369 672 301 672 m 617 913 q 608 839 626 872 q 551 796 589 806 l 385 750 q 313 760 347 740 q 269 819 279 781 q 278 890 260 857 q 336 933 297 922 l 504 978 q 573 969 539 988 q 617 913 607 950 z "},"ŕ":{"ha":474,"x_min":36,"x_max":503,"o":"m 126 -1 q 64 23 89 -1 q 36 88 39 47 l 36 344 q 65 470 38 411 q 137 573 92 529 q 242 642 182 617 q 371 671 303 668 q 435 644 410 671 q 464 581 461 618 q 438 517 464 543 q 372 490 411 492 q 313 478 340 490 q 264 446 285 467 q 231 397 243 425 q 218 335 218 368 l 218 82 q 191 22 215 46 q 126 -1 167 -1 m 493 914 q 484 840 503 874 q 428 797 465 807 l 261 751 q 190 762 224 742 q 146 821 156 782 q 155 891 136 858 q 213 935 174 924 l 381 979 q 449 970 415 989 q 493 914 483 951 z "},"Ś":{"ha":704,"x_min":38,"x_max":667,"o":"m 306 700 q 249 676 272 700 q 225 615 226 651 q 249 560 226 583 q 306 538 272 538 l 400 538 q 499 517 451 538 q 585 459 547 496 q 644 373 622 422 q 667 268 667 324 q 646 165 667 214 q 589 81 625 117 q 504 23 553 44 q 400 0 456 1 l 153 0 q 85 27 111 0 q 58 94 58 54 q 85 160 58 132 q 153 188 113 188 l 400 188 q 457 211 432 188 q 482 268 482 235 q 458 326 482 303 q 401 350 433 349 l 306 350 q 204 372 253 351 q 119 428 156 393 q 60 513 82 464 q 38 618 38 561 q 58 718 38 669 q 116 804 79 767 q 201 865 153 842 q 306 888 250 888 l 553 888 q 617 860 590 888 q 646 793 643 833 q 619 726 646 753 q 553 700 593 700 l 306 700 m 608 1129 q 599 1056 618 1089 q 543 1013 581 1022 l 376 967 q 305 977 339 957 q 261 1036 271 997 q 270 1106 251 1074 q 328 1150 289 1139 l 496 1194 q 565 1185 531 1204 q 608 1129 599 1167 z "},"ą":{"ha":747,"x_min":33,"x_max":707,"o":"m 410 671 q 527 635 472 664 q 622 560 582 606 q 684 458 661 515 q 707 336 707 400 l 707 90 q 679 26 707 53 q 617 0 651 0 q 539 44 568 0 q 526 38 532 42 q 515 32 521 35 q 447 8 482 17 q 371 0 411 0 q 185 56 267 0 q 63 201 103 113 q 41 267 49 233 q 33 336 33 300 q 41 406 33 372 q 63 471 49 439 q 185 617 103 561 q 371 672 267 672 q 391 672 382 672 q 410 671 400 672 m 369 181 q 430 192 401 181 q 479 225 458 204 q 513 274 500 246 q 525 336 525 303 q 513 395 525 367 q 478 445 500 424 q 428 479 457 467 q 369 492 400 492 q 311 479 339 492 q 262 445 283 467 q 228 395 240 424 q 215 336 215 367 q 228 276 215 304 q 263 226 242 247 q 313 193 285 206 q 369 181 340 181 m 343 -318 q 289 -307 314 -318 q 244 -277 264 -296 q 214 -233 225 -258 q 203 -178 203 -207 q 210 -133 203 -154 q 231 -93 217 -111 q 276 -53 249 -69 q 336 -36 303 -37 l 336 75 q 349 101 336 88 q 383 115 363 115 q 416 101 403 115 q 429 75 429 88 l 429 -83 l 429 -87 q 415 -117 429 -106 q 383 -131 401 -129 l 338 -131 q 308 -147 319 -133 q 296 -178 296 -160 q 310 -212 296 -199 q 343 -226 324 -226 q 378 -212 364 -226 q 392 -178 392 -199 q 406 -145 392 -158 q 439 -132 419 -132 q 470 -143 457 -132 q 485 -172 483 -154 q 474 -226 485 -200 q 446 -274 464 -253 q 401 -306 428 -294 q 343 -318 375 -318 z "}}}
